<svg xmlns="http://www.w3.org/2000/svg" viewBox="0 0 78.4 47.5"><path d="M4.3.3h-.2v.1q0 .3.3.5h-.3L3.9.7v.2q-.1.1 0 .2l.3.2.4.2-.1-.2q-.2-.1 0-.2l.2.2.3.3h-.3l-.3-.1c-.1 0-.4-.3-.3 0l.6.3q.3 0 .3.3l.6.5q.3 0 .4.3l.8.6.4.3q.3 0 .5.3l.5.2c.1 0 1.6.6.8.5s-2.4-1-3-1.6-.8-.7-1.4-.8 0 .3.2.4l.5.4.3.4.3.3.2.2c0 .3-.2 0-.3 0l-.4-.4-.2-.1-.5-.4-.2-.1q-.1-.3-.4-.4h-.2q.5.4 0 .3t-.6-.4q-.2-.4-.5-.4.1.3.5.6l.7.6.5.3q.5.3.6.6c0 .3-.2 0-.3 0-.2-.3-1-.8-1.2-1l-.3-.1-.2-.2q-.1.3.4.5.2 0 .4.3c.2.3.8 1 1.1 1l.4.3q0 .2.3.2t.3.2.3.2q.4 0 .6.4l.8.4c.2 0 .7.3.2.3l-.6-.3-1.7-.9q-.2 0-.6-.5c-.4-.5-1.2-1-1.5-1.2l-.7-.5-.3-.1q-.2-.3 0 .2c0 .3.6 1 1 1.1q.6.3.6.7c0 .3-.4-.2-.6-.2q-.2 0-.3.3.2.4.5.5t.2.1v.3l.3-.1.1-.2q.3.3.1.7-.2 0-.4-.3-.3-.4-.5-.3-.1.2.2.3.2 0 .2.3l-.2-.2-.3-.2q-.4-.2-.7-.6.1-.2.2 0l.2.2-.1-.3s-.3-.3 0-.3l-.1-.2q-.1-.2.1-.1.2 0 .3-.2-.1-.3-.4-.5l-.2-.1q0-.4-.6-.5-.2 0 0 .2t-.2.2V4l-.3-.2v.5H2q0 .2.2.2v-.1c.1-.3.4 0 .5 0l.1.4h-.2q0-.2-.1 0V5q.2.2 0 .3-.5-.2-.9-.6-.1-.5-.6-.6H.7q0 .2.2.2h.2l.1.3q-.1.2.4.3l.9.8 2.2 1.8q.5.3.5.5s-.5-.4-.3 0 1 .6 1.3.6.1 0 .3.2l.2.1.3.2.6.3q.3 0 .5.3.3.4.8.5h.3q.1 0 0 0-.2.2.1.4l.4.2q.3 0 .2.2c0 .3-.2 0-.3 0q0-.3-.3-.4-.4 0-.7-.4L8 10l-.3-.2-.7-.4-.8-.4-.6-.4q-.9-.4-1.5-1c-.6-.5-.3-.1-.5-.2q-.2-.1-.3-.4c-.1-.3 0 0-.1 0L3 6.9h-.2c-.3 0-.9-.7-1-.9C1.5 5.8.5 4.7.5 5.1l1.2 1.3c.4.2 1.1 1 1.5 1.4l1.4 1 1.3.8c.3.3.3.1.5.2h.1q0 .2.2.3t.5.2l.4.2.4.3.5.4q.3.1.1.2-.2 0 0 .3h.1q.3-.2.5 0H9h.2l.3.2.2.2v.1l-.3-.1-.3-.1-.1-.1q-.2-.2-.4.1t-.5 0q-.2 0-.2-.3l.3.2q0 .1.2 0 .2 0 0 0l-.2-.3-.2-.1-.3-.2h-.2q.1.3 0 .2l-.3-.1-.3-.2-.3-.2v-.3h-.4q.1 0 0 0l-.6-.2q-.3 0-.3-.3h.3l.4.2h.3L6 10l-.4-.1h-.2q0-.3-.2-.3L5 9.4v-.1.2h-.2q-.2-.1-.1-.2v-.1.3q0 .2-.2.1H4l-.2-.2-.3-.2-.5-.4-.5-.4q-.3 0-.4-.3l-.4-.3-.2-.1q-.4-.5-.9-.5c-.5.1 0 .3.3.5l.3.2q1 1.4 2.7 2.2l.4.3 1 .6.8.4 1.1.8.7.3.4.4q-.1.3-.4-.1l-.5-.4-.9-.5q-.4-.3-1-.4-.2 0-.3-.2L5 11h-.3l-.4.2.2-.3q.1 0 0-.1l-.4-.3-.4-.1-.1-.2-.6-.4-.6-.4c-.3-.1.1.1 0 .1L2 9.1Q2.1 9 2 9l-.2-.1q-.2.1-.3-.2-.3-.6-1-1H.4l.5.6q.4.2.4.5-.4-.1-.6-.4c0-.1-.4-.5-.4-.3s0 .1.2.3l.5.5q.4.6 1 .9c.3.2 1 .7 1 1s0 .2.2.3h.1c0-.2.4 0 .4.1q.2 0 .3.4l.2.3.1.2q0 .3.3.2c.3 0 .6.4.5.2-.2-.3.2 0 .3.1l.6.3q.2 0 0 0-.3-.1-.1-.2H6l.3.2-.2.1q-.2 0-.1.1l.5.3q0 .3.4.2l-.2-.2q-.2-.2.3 0 .5.1.2.3l.2.2h.4l.2.2v.1l-.3.2h.9v.1l-.3.2v.1h.3l.2.2q.2 0 .2.2.1.3.5.4l1 .8q.1.3.2.1v-.2h.2c.1 0 .6.4.5.6v-.1q-.3-.1-.4 0 .1.3.4.3h.1l-.1.1v.2l.3.2.3.2.5.2h.3l-.2-.1-.3-.2q-.1 0 0-.1.3 0 .5.3c.1 0 .6.4.5.5l-.4-.1h-.1l.1.4.1.1h.6q0-.3.3 0l-.2.3q0 .2.1 0h.3v.3h.3l.4.2.3.1q0 .2 0 0l-.2.2.3.2q.4 0 .5.3l.2.2q.4 0 .6.3-.2.4.1.1.4 0 .7.4l.6.4.5.4q1.5 1 3.2 1.6c.5.2.2 0 .3.2l.3.3q.3.2.5 0 .2 0 0-.2-.2-.1-.2 0l-.2-.3h.4s.5.3.3.4h-.1v.3q0 .3.3.2l.3.1.3.2.4.1.8.5.3.2.7.4q.4.2.3 0t-.5-.4l-.4-.4q0-.1-.2 0c-.2 0-.9-.3-1-.6s.1 0 .3 0l.3.1 1.1.6.4.3 1.1.6 1.3.8c.3.2.2 0 .4.3l.7.5v-.2l-.2-.2.2.2.3.2.5.3.6.4q.1.2 0 .1l-.6-.2c-.4-.1 0 .2.2.4l.6.5q.2.2.5.1.1 0 0-.1-.3 0-.4-.3h.6l.1.3v.5c0 .3.6.5.8.5h.3q0 .2-.1.1h-.1l.3.3H33l-.5-.2h-.3v.3h.3l.4.1q.4.3.7-.1h.3q.4.1.4.5.1.5.7.5c.2.1.7.5.8 0l-.1-.4.2.2.3.1h.3l-.1.2q-.3 0-.3.2.3.4.9.5l1.1.6q.4 0 .6.3v.2h.3l.9.4q.4.3.8.3.5.1.9.4l.6.5.1.2h.5v.2c0 .2.7.5 1 .6l.2.1h.2l.3.2v.1q-.4-.4-1-.4h-.2l-.1-.2q-.2-.3-.5-.3h-.2q-.2-.2-.2 0l-.1-.2q-.1-.2-.4-.1-.2 0 0 .2 0 .1-.1 0l-.2.1v.1h.2q.2.5.7.4c.5-.1-.1-.2-.1-.3h.2q.6.5 1.3.7.3 0 .6.3l1 .6 1.1.5 1 .5 1.4.7.3.2q.3 0 .5.2l4.8 2.5-.2-.1-.3-.1-.3-.2q-.7-.4-1.3-.5l-.2-.1H52q-.2 0-.4-.3t-.5-.3l-.6-.3c-.3 0-.9-.3 0 .3l2.3 1.1 1.1.5.7.3.8.4 3 1.6c1.4.7 3.7 1.7 5.4 2l.7.3h.6l.2.1.4.2h.6l.2.1h.5l.6.1h.7c.3 0 0 0 0 0s-.5-.1-.4-.3V47l-.2.1-.4-.1-.1-.4q0-.2-.2-.3l-.4-.2-1-.4q-.3 0-.5-.2h-.6l-1-.4-.7-.2-.1-.1-.4-.2s-.4-.2-.3 0v.3h.3q.2-.1.2.2t-.4 0l-.4-.2-.2-.1h.1q.4-.1.1-.4-.6-.5-1-.6l-.4-.1-.6-.3-.7-.4-.6-.3-1-.5-.1-.1-.3-.2-.2-.1-.3-.2-.3-.1-.2-.1-.1-.2-.4-.2-.5-.2-.5-.2-.3-.1-.4-.2-.3-.1-.2-.1h-.1l-.1-.1-.3-.1-.3-.2q-.3.3-.3 0 0-.4-.4-.3l-.3-.2-1-.5q-.4 0-.4-.3-.2-.3.2 0l1.4.7 1.1.5 3.6 1.7 7.4 3.7.7.2.5.2 1.4.4q.7 0 1 .4.2.1-.1.3t0 .1.3-.2.3-.2l.2-.1h-.3l-1-.5c-.2-.4.5-.1.7 0s.8.3 1 0q0-.2.2 0h.2c.2-.2-.2-.4-.3-.5l-.4-.2h.2q0-.1 0 0h.3l.2.1.2.1q.4.4 1 .3c.6 0 0 0 0-.1V45c.1 0 .3-.4 0-.3q-.1-.3.2-.1l.2.1.1.2q.2.2 0 .2l-.2.1.1.1.4.1v.5l.3-.1v-.3l-.1-.1-.2-.2-.1-.3.8.2s.6.4.7.2h-.1q-.2 0-.2-.2h.2l.2-.1q0-.2-.2-.2H72l-.6-.1q-.3 0-.3-.3v-.1h.8c.2 0 .5.3.6 0q0-.1-.2 0L72 44l-.3-.1-.5-.2-.4-.2.2-.2q.2-.3.6-.2l.4.2.3.1.2.1h.2v.3l.2.1v-.1l.1-.2q.1 0 0 0v-.1h-.2l-.2-.2h-.2q0-.2.3 0h.4q.2-.3.4 0h-.2l.3.1h.3l.3.1.1.1c.1.1.5.2.3-.1l-.7-.3-1.2-.6c-.3-.2 0-.1 0-.2q.2-.5-.2-.6-.3-.1-.4-.4v-.1l.3.1q0 .2.1 0h.2l.2.3h.3q.1-.2.3 0 .2 0-.1.1v.3q.5 0 .9-.2 0-.2-.2-.2 0-.2.2 0h.3q0-.2-.2-.3t-.3-.2h-.6l-.3-.3c-.1 0-.5-.3-.4-.4h.2l.4.2.5.2h.4q-.3 0-.2-.3h.2l.2.1h.3q.2.2.2 0l-.2-.4-.4-.2q-.5 0-.4-.5t-.2-.4h-.4l-.6-.4q-.8 0-1.2-.6c-.4-.6.3 0 .4 0l.3.1.2.2q.5.3 1.1.4h.3l.4.2h.6l.4-.2.4-.3.1-.1q.2 0 0 0-.1-.4-.7-.5v-.1h.2q0 .2.3 0h-.1q-.3-.2-.1-.4l.1-.2q0-.2.2 0h.4q.2.3.3 0l-.2-.1-.2-.2v-.3q.3.3.4.2l.3.1.1.2.2-.1q.2 0 .4.6h-.1l-.1-.1v.3q.1.3-.2.2l-.3.1h-.3q0-.2-.3-.1c-.3.1.1.2.2.2q.2 0 .3.3l.3-.1.5-.2q.4.1 0 .2-.2 0 0 .2l.3.2q.4.3 0 .4-.3 0-.4.2 0 .2-.2.1l-.2-.2q-.3-.3-.7 0-.2 0 0 0h.2l.2.3q.2 0 .1.2 0 .3.2.2t.3-.2q.3 0 .3.2h.2q0 .2.2 0l-.1-.3q.2-.2.2 0 0 .4.3.3v-.4q-.2.1-.2 0v-.3q0-.4.3-.6v-.2h-.1q-.2 0-.2-.2l.1-.1-.1-.3-.5-.3q-.2-.2 0-.3t.2.2v.1h.2v-.3l-.2-.3h.5l-.1-.1-.2-.2-.1-.1q-.2 0-.2-.2l-.2-.2q-.1.1 0 .2.2 0 0 .1t-.3-.4-.7-.6q-.5-.5-1-.6-.4-.2-.5-.5.1-.1.3.1s.5.4.2.1.2 0-.5-.4c-.8-.4-1.4-.9-2.9-1.6l-4.3-2C62.4 28 55.5 25 49.7 22l-5.2-2.7-4.5-2.2c-.7-.4-.4-.4-.7-.3-.4 0 .6.5.7.4l.5.2.8.4q.5.4 0 .1h-.9v-.2q-.5-.6-1-.5c-.6 0-.4 0-.5-.2v-.2q0-.2-.3 0h-.2q-.2 0-.3-.2h.2q.2 0 0-.2t.1 0l.3.1s.3.2 0 0q-.2-.4-.9-.6l-2.7-1.4-14.9-8.1L14 2.9l-.7-.5-.7-.3q-.3 0-.5-.3c-.2-.2 0 0-.3 0q-.7 0-1.4-.4l-.5-.2-.5-.2-.7-.3L8 .5 7.5.3 7 0q-.2 0 0 .3L6.7.2q-.4-.4-.7 0 0 .2.4.4t.3.7h-.3L5.9 1h-.2L5.4.7 5 .5h-.3L4.6.3V0h-.2zM76.7 36v.1h-.2V36zM6.9 1.5h.2l.4.3.3.2-.1.1h.4l.5.2.8.4c.2 0 .8.2.7.4s-.5 0-.7-.2q-.3-.3-1-.3c-.7 0-.7-.2-1-.4V2L7 1.7q-.2 0-.2-.2M78 39q0 .2 0 0l-.1-.1h-.2l.1-.2.2.1zm-2.5-2q-.2.1-.2 0zm-.3.2v.1q-.4 0-.3-.2zM5.8 3.2v.2h-.1zM75 37.4l-.2.3c-.2.2 0-.2 0-.3zM4.7 3.5l.2.1v.2l-.2-.1zm6.2 0h.1v.1zm64.6 35.3h-.3v-.2q.5 0 .3.2M5 3.9l.3.1zm70 34.5v.1q-.1.2-.2 0zM11.7 4c.2 0 .8.1.8.3s-.4-.1-.5-.1zm-6.2.1.2.1v.1h-.2zm-.2.4h.2q.2 0 .2.2t-.3 0c-.3-.2-.2 0-.1-.2m2.3 0v.2l-.4-.1q.1-.3.4 0Zm9.4.9s.2.1 0 .1l-.2-.1zM6.4 4.8l.1.2-.3-.1q-.2-.2.2 0M6 5q.2 0 .1.3zq0-.2.1 0m2 0q.3 0 .5.3-.2.1-.5-.2S7.7 5 8 5m10.2 1.3-.2-.1zM9 5.3q.1 0 0 .2 0 .2-.1-.1 0-.2.1 0m-4.6.2.1.1v.1h-.2zm3.6 0q.2 0 0 0l.2.2q.3 0 .4.2c.2.3-.5 0-.6-.1l-.6-.2h-.2c.1-.3.7-.2 1-.1m1.5.2.6.3q.4.1.3.3-.3 0-.4-.3zq-.4 0 0-.1M19 6.9l.2.2.5.3s.7.2.3.3-.9-.4-1-.6-.2-.3 0-.2M5 6.3h.2v.2H5zm68.4 33.5v.2s-.4 0-.3-.1zM9.4 6.3H9h.2m64.3 34.4h-.2l-.3-.3q-.5 0 0 0t.5.3M5.7 6.6s.5.2.5.4-.3-.2-.3-.2-.4-.2-.2-.2M4 6.9s.6.3.4.5zm7.4 0h-.2l-.1-.1zm62.4 34.6v.1h-.2v-.1zM12 7.1q0 .3-.2.2t0-.2.2 0m-3 .4.5.3zl-.5-.3c-.2-.3.4 0 .5.2m3.2 0v.2zq0-.1 0 0m-7.5 0v.1zm15.7 1 .2.1v.1h-.2zM5.6 7.6q.3 0 .2.2zq0-.2.1 0m11.7.7.2.1.1.2-.2-.2zm4 .7q.3 0 .3.2l.1.1-.2-.1-.1-.2M18 8.8l.2.1q0 .3-.2 0zm5.3.7v.2zM22 9.4v.2zm-8.2-.7.2.1V9zm58 32.4q0 .2-.3 0l-.3-.2h.3zm-4.1-4.4q0 .1-.2 0-.2 0 0 0zM18.6 9.4h-.2q.1-.2.2 0m-4-.4q.2.1 0 .2t-.2-.1.3-.1M73 43.1v.2zm-.7-.6c-.2 0-.8-.1-.8-.4s.6 0 .7 0c.2.2.5.4.1.4m-5.1-6H67zM19.7 9.9l1 .6 1.6 1 .8.3q.6.2.7.8l.2.2q.1.2.3 0s-.4-.2 0-.1q.7 0 1.2.6l.3.2q.3 0 .2.3-.4.2-.9-.2l-.7-.4-.7-.4-.4-.2q-.2 0-.2-.2l-.2-.1c-.2 0-.7-.2-.6-.4h.3q.1.3.4.2c0-.2-.5-.4-.6-.5h-.3q-.2.2-.3 0v-.3q-.2-.3-.8-.4-.6 0-.8-.4l-.3-.2c-.2-.1-1-.3-1-.7.2-.3.6.1.8.3m3.7 2.4v.2l.2-.1zm1 .7.3.2h.2l-.2-.1-.2-.1m.7.3q0 .3.4.2l-.1-.2zm.7.3v.1h.1zM11.2 8.8V9zm60.2 32.5v.2zm-46-30.5s.2.1 0 .1 0 0-.1-.1q-.1-.1.1 0M13.6 9.2l.1.2zm53 27.1-.3-.1zM15 9.5s.4 0 .4.3-.2 0-.3 0zM66 36l-.3-.1h.1zM15.7 10h.2q0 .3-.2.1zm-1.6 0q0 .2-.2 0v-.2q.2-.1.2.2m12.4 1.4 1.6.9c.6.5-.6-.2-.7-.3l-.7-.3-.2-.1zM10.3 9.5l.3.1.1.3-.2-.2zm60.4 32.3v.2zq0-.1.1 0m-66-32H5q.2 0 .3.2h-.4q-.2 0-.1-.1M47.2 21v.1L47 21zM64 35h-.3v-.2zM46.4 20.7l.1.1-.2-.1zm-.7-.3h-.2q0-.2.2 0m-1.7-1 .9.6.3.3-.3-.2q-.4-.4-.9-.3l-.3-.1-.5-.2L42 19c-.2-.1-.8-.3-.9-.5s.3 0 .4-.1h.3l-.2.1.2.2.5.2h.3l-.2-.1q.1-.1.5.2zm-15.2-6.8h-.2zm-17.4-2.4s.1 0 0 .1q-.1.1-.2 0 0-.2.2-.1m17.8 2.6H29zm-1-.2H28l-.1-.1zm-25-2.3.2.1v.2l-.2-.1zM28.8 13l.1.2-.4-.2c-.1-.3.3 0 .3 0M63 34.3h-.2zm-10.8-9.5q0 .2-.1 0H52zm-36.9-14s.4.2.3.3h-.2zm47.3 23.4h-.1l-.1-.2zm-12-10.3q-.1.2-.7-.2l-1.7-.6-1.2-.5-.5-.2q-.3 0-.4-.4.1-.2.3.1.6.5 1.3.5c.7 0 .2-.2.3 0l.1.3.8.2 1 .5q.6 0 .7.3m-6.1-3.8h-.2zm-18.7-7.8.6.3c.3.4-.3 0-.3 0zm27.7 13.8s.2.1.1.2h-.2l-.1-.2zM30.8 13.8l.4.4c.2.3-.2 0-.3-.1q-.1-.2-.4 0l-.6-.3c0-.1-.7-.2-.4-.4s1 .2 1.3.4M70.4 43v.1h-.2V43h.1Zm-18-17.6v.1zm-1.4-1h-.2zM45.7 21s.3.1.2.2q-.5 0-.6-.3.2-.2.4.1m-27.6-9.5H18l-.2-.1c0-.3.3 0 .3 0m-1.9-.4q.3 0 .5.2l.2.2.2.1v.2l-.2-.1-.1-.1h-.2l-.3-.3V11Zm-3-.2.3.1q-.1.1-.2 0-.1 0 0 0m-3.3-.2v.1h-.1q0-.3.1-.1m42 14.4h.1zm-.7-.4s.5.1.3.2c-.1.1-.7 0-.7-.3q.2-.2.4.1M70.9 44v.1q0 .1 0 0h-.3q0 .2-.1.1V44q0-.2.1-.1c.1 0 .5 0 .4.2Zm-.3-.7h-.3c-.1 0-.5 0-.3.1l.1.1h.2q.2 0 0 .1-.4.1-.6-.2 0-.3.4-.2h.5m-20-19h-.3V24zM27 13h-.4q.3-.1.4 0m-8.3-1.2q.2 0 0 .2-.4.1-.4-.3.1-.2.4.1m-2.5-.2h-.1zM49.6 24q0 .2-.3 0l-.1-.2q.3 0 .4.2m-8.8-5.2v.1h-.3l-.1-.1zm-1.6-.9v.1H39zm-20-6q.3 0 .2.3v.1h.5l.3.2.1.2.4.2 1.4.8 1.5.8.4.1.2.2.2.2.3.1h-.4q-.2 0 .1.2l.1.1v.4l-.2.2-.3-.2-.3-.1h-.2l.2.2.3.2q-.1.2-.6-.1s-.7-.5-.4-.6h.4v-.7H23l-.2-.2q-.6 0-1-.6v-.1a1 1 0 0 1-.9-.4v-.1h-.3v-.1l-.1-.1-.3-.2c-.2-.2 0 0-.3-.1-.2 0-.8-.3-.9-.5v-.1l.1-.1zm2.2 1.6h-.2zq0 .2.2 0zm2.3 1.6v.2l.2.2v.1q.3-.2.1-.5t-.3 0M51 25.2q-.9-.1-1.7-.7l-.8-.4c-.2-.1-.8-.2-.1-.2.6 0 1.6.6 2.2 1 .2 0 1 .3.4.3m-7.2-4.7.2.2h-.3l-.1-.2zm-3.8-2h-.2zm-29.5-7.2v.2zq0-.2 0 0M46 22v.1h-.2q-.1 0 0-.1zm-7.3-4q-.1.1-.2 0l-.2-.1q.3-.1.4.1m-6.1-2.7c-.1 0-1-.3-.7-.4zm-4-1.3 1 .6q.6.2 1 .7l.5.3.8.6.7.5c.1 0 .7.3.4.3s-.8-.4-1.2-.7l-1.1-.8c-.8-.4-2-1-2.5-1.5-.5-.7.1-.2.3 0m-16.6-2.4v.2q-.2 0 0-.2m-1.6-.1.1.2h.2v.3l-.6-.5q0-.2.3 0m37 11.5h-.5l-.3-.1q0-.2.2-.1.3 0 .5.2m-3-1.8.2.3h-.1l-.4-.2V21zM17 12h-.1zm-3.1-.3q0 .1-.1 0m34 11.7v.1zm-4.3-2.6.1.1h-.2zm-10-5 .2.1q.2.1 0 .1zm35.8 27.7q0 .2 0 0-.1 0 0-.2zm-.8-1.3v.1h-.2q0-.2.2 0M47.4 23.2l.1.1zh.1m-1.4-.9.2.2H46l-.2-.2zM33.4 16l.4.3zl-.6-.3c0-.2.6.2.7.3m-16-3.7-.2-.1zM12 12s.4.2.2.3q-.4-.1-.6-.5c-.2-.4.3.2.3.2M47 23v.1zM13.5 12h.2q.2 0 0 .2h-.2q-.2 0 0-.2m-1.4-.1h.2v.2zm14.3 1.9 1 .5.4.3q.3 0 .3.2l-.2.2.2.1q0 .2.2 0-.2-.1 0-.2l.3.2.6.4q.3 0 .5.4 0 .2 0 0c0-.2-.6-.4-.7-.3h-.4l-.3-.1c-.2-.4-1.3-1-1.6-1q-.5 0-.4-.2.2-.2.3 0c.3 0 0-.3 0-.3zm.6.5v.2l.1-.1zm.3.2.2.2q.3 0 0 0 0-.2-.2-.2m-14-2.2 1 .6.4.3h.5l.2.2.2.1h-.1v.2h.4q.3 0 .2.3t.3.2q.6.1.8.6c.2.5.1.2.3.2q.3 0 0 .3l-.1.2h.2q-.2-.1.2-.2.5.2.9.6l.3.1.2.1.2.2h.2l.6.4.3.3.3.2.4.2.3.2q.3 0 .4.3h.3l.4.2.3.1.2.1h.1v.2q.5 0 .6.3t.5.2l.7.3.7.5q.3 0 .3.3.1.4.7.3l.6.3.4.2q.5.1.9.6v.2h.2l.4.1 2.4 1.7c.6.4 1 1 1.5.8s-.6-.5-.6-.5l-.4-.3v-.1q-.3 0-.3-.2t-.2-.2q-.7-.1-1.2-.6c-.5-.5 0-.2-.2-.3V22l-.4-.3-.4-.1h-.2v-.4l.3-.1h.2l.3.3h.2V21l-.5-.2-.6-.3c-.3-.3.2-.2.3-.1l.3.1-.2-.2-.5-.1h-.2q0-.2-.3-.1l-.3-.1c0-.1-.5-.5-.6-.3q-.1.4.4.3l.8.5.2.2q.2.1.1.2 0 .2-.2 0h-.1v.2h-.3q-.3 0-.4-.3 0-.3-.2-.2t-.4-.4v-.1h-.2q-.4 0-.6-.3l-.7-.4-.7-.3-.4-.3q-.4-.1-.6-.4l-.7-.3q-.2 0-.3-.2l-.2-.1h-.2v-.1h-.2q0-.2-.2-.3l-.2-.1h-.2v-.2l.2-.3h.1l.1.3h.1q.2-.2.4 0h-.2q-.2 0 0 .2h.4v.3h.1q0-.2.2-.1v.2q.2.3.7.4c.5.1.2 0 .1-.1s0-.2.2-.2h.3l-.6-.3h.4q.3 0 .4.4c.1.2.7.6 1 .3.2-.2-.4-.2-.5-.3l-.6-.4-.5-.4-.4-.3q0-.2-.2-.2-.1 0 0 .1-.1.2-.3-.1-.2-.2-.5 0-.4.3-.5 0v-.1l.2-.2v-.2s-.5 0-.1-.1q.3-.2.7.2c.5.3 1.5.9 2 1s.8.4 1.1.7q.5.5 1 .6c.4 0 0-.1 0-.1s-.2 0-.2-.2h.5v.2c0 .2.8.6 1 .6l.5.1.3-.1q.3 0 0-.2 0 .2 0 0 .2-.3.5-.2.2.2.2 0-.1-.2-.5-.2l-.7-.3h-.2q-.1 0 0-.2l-.3-.2-.4-.2-.2-.3q-.1-.2-.4-.2l-1.3-.8q-.2-.1 0 0h.2l-.3-.2v-.3l.2.1.4.3q.1.3.4.4l.2-.1q.2 0 0 .1l.4.2.7.4 1.8 1.2.7.5.7.4q.3 0 .4.3c.1.3 0 0 0 0l-.2.1.3.1.4.1.2.2H32l-.4-.1-.5-.1-1-.3q-.3-.4-.7 0c-.4.3 0 0-.1 0l-.3-.3v.2h-.3q-.4 0-.3-.2V19q-.2 0-.2.2l.3.3.6.2h.4l.2-.2q.3 0 .4.3t.6.2h.3l.4.3q.2.2.3 0l.2-.2.1.2v.2q.3-.2.4.1t.4.3h.1-.2q-.3 0-.1.2h.4q.3 0 .3.3t.3.1l.8.4.8.5q.5.3 1.1.4c.6 0 .3 0 .4.1l.2.3q.1 0 0-.1h.2l.1.2h.3l.4.2.1.1q-.2.1 0 .2c.2.1 0 .2.5.2a3 3 0 0 1 1.6 1v.2q0 .2.1.1l.1-.1.1-.2v.2l.3.1q.8 0 1.2.6c.2.3-.3.2-.2.4q.3.2.6.1l.7.2h.4v.4l.2.2h.3l.1-.2v.2q.1.3.4.3h.2c0-.2.5 0 .6 0l.2.1-.1.1h-.2q-.1 0 0 0v.2q-.3-.1-.2-.3t-.2 0v.1h-.3l.2.2c.2 0 .8.3.9.5s-.2 0-.3 0q-.3.1-.5-.2t-.6-.3q-.2.2-.2 0l.1-.1q0-.2-.3-.3-.4 0-.7-.5h-.1l-.3.1c-.3 0 .3.4.4.4l.4.3h-.6l-.2.1H42l.3.2.2.2q.1.3.4.2h.3q0-.2-.2-.2s-.4 0-.3-.2.4 0 .5 0 0 .2.1 0q.3-.1.6.2l.5.2q.5 0 .6.4c.1.4 0 0-.2 0l-.3-.1-.3-.2-.9.2H43c-.2 0 .2.3.4.4l.7.3.8.4q.4 0 .8.3l1 .5q.7 0 1 .6c0 .3-.3 0-.5 0l-.6-.3-.6-.2-.5-.1q-.2 0 0-.1 0-.3-.2-.2h-.5q-.3 0 0 .3l.5.3.5.1 1 .6q.4 0 .2.2t-.4-.1h-.3v.1l.2.1q.3.3.7.3h.1l.1.1.2.2.1.1-.1.1.5.2v-.1h.4l.2.1h-.2l-.1.2h.2l1 .6h.2l.2.2h.2q.2 0 .3.2.2.3.6.3l.6.3q.3.3 0 .2h-.5l-.4-.3-.4-.3H50l-.7-.3-.3-.1-.3-.1-.3-.2-.4-.1v.4h.2q-.2.3-.5.1t-.4 0l-.7-.2h-.3q-.5 0-.6-.5V33l.3.2.3.2V33q-.4-.3-.8-.3-.6 0-.3-.6 0-.3-.1-.2h-.2l-.3-.3s-.3 0-.1-.2l-.1-.1H44l-.4-.1H43q-.2-.1 0-.4c.1-.3-.2 0-.2 0v.5l.4.2h.2q0-.3.3-.2l.4.1.1.1v.3l.4.2q.5 0 .3.3-.4.2-.7-.1-.6-.4-.6-.1l.6.5q0 .2-.2 0h-.1l.2.4q.3.2-.2 0l-.5-.2H43q0-.2-.2-.1l-.5-.2-.5-.2-.5-.2H41l.2-.2v-.2l-.5-.2q-.2-.2-.4 0h-.4v-.2l-.4-.2q-.2 0 0 .1v.1l-.5-.2q-.4 0-.5-.3v-.3l-.1-.2q-.3 0-.1-.2.1-.1-.2 0-.4 0-.4-.2-.2-.2-.5-.1-.3 0 .2.1l.4.3.1.2-.2.1q0 .2.2.2t0-.1h.2q.3 0 0 .1-.1.2.2.3l.1.1q.1.3.4.2l.5.2.3.1.2.1.2.1.5.3q.3.4.9.2h.1v.1l.1.2q.5.1 1 .5 0 .3.3.2.5 0 .6.3l1.3.7q.3 0 .2.2h.2l.2.1.2.4h.3l-.1-.1q0-.2.2-.1.4.1.5.4l.1.2q.1.1.1 0h.4l-.1.1q0 .3.4.3l.4.4q0 .2.1 0h.4q.3 0 .4.2v.4q0 .2.1 0 .2-.4.2-.2v.2l.2.2v-.2h.1l.3.1.3.2.1.1-.2.1.1.2c.1 0 .5.1 0 0q-.7-.1-1.4-.7-.2 0-.1-.1v-.2H48q-.4 0-.7-.2l-1-.4-.4-.4-.1-.2q-.2 0-.1.1h-.2v-.2h-.4l-.4-.2-1.5-.8-1.9-.9-3.2-1.5-1.4-.7q-1.6-.7-3.1-1.6l-1.6-.9q-.3 0-.3-.3v-.2h-.1s-.4-.4-.6-.3h-.3v-.2l-.3-.2q-.3.1-.3-.4H30l-.5-.1q-.3 0 .1.1l.1.1h-.3l-.4-.2v-.2q0-.2-.2-.1-.2 0-.2-.2l-.3-.1-.2-.2v-.2l-.1-.1v.2q-.1.1-.2-.2 0-.4-.3 0l-.5-.3c-.1-.1-.5-.3-.3-.5s0-.2-.1-.3q-.2 0 0-.3.1-.4-.2-.3H26l.2.2q.1 0 0 .1v.2l-.3.2-.5-.2c-.3-.2.1 0 .2 0h.1q0-.2-.2-.2h-.4v-.1l-.2-.2V24l.2-.2-.2-.2q-.2 0-.2-.2h-.3q-.5-.1-.8-.4l-.2.1.1.1q.4 0 .5.3t.2.1c.1 0 .5.1.3.4l-.2-.1-.4-.2h-.4v-.2q-.4 0-.5-.4 0-.2-.3 0-.3 0-.3-.3t-.2-.3h-.4q-.1-.4-.4-.4h-.2q-.1-.3-.2 0h-.4l-.3-.3q-.2 0-.2-.2t-.3-.1l-.3-.1-.1-.1v-.2q-.1-.4-.7-.5l-.4-.3-.2-.2-.3-.2v-.2q.2 0 0-.2h-.2q-.7 0-1.2-.5l-.4-.4h-.2l-.3-.3-.3-.1q0-.2-.2-.3t-.2-.3c0-.3 0 0-.2-.1l-.2-.1h-.1q-.2 0-.3-.3-.2-.3-.4-.3l-.2-.2h-.3l-.4-.4-.3-.3-.2-.1-.2-.1q-.5-.2-.7-.6c-.2-.4 0-.1.1-.2q.1 0 0-.2l-.3.1h-.3l-.2-.2-.3-.1v-.2l.4.2.4.1q.1 0 0-.2l-.4-.5q0-.2-.2 0-.3 0-.3-.2l.1-.4v.1l.1.1h.2q.4.5 1 .7h.1l.4.5.4.4.4.1.4.1.1.2h.3l.3.2.3.3.5.4q.3 0 .4.3l.1.1.5.4.5.4.3.3q.3.3.5.2h.3l.1.1v.2q0 .2.2.2h.3q0 .2.3.3t.2.2v.3h-.1q0 .2.2.2t.3.2l.3.1-.2-.2s-.6-.4-.1-.2c.5 0 1.2.6 1.6.9l2.7 1.3.3.1.2.2q.3 0 .4.2l1.8 1q.6.1.7.4 0 .2-.1 0l.2.2q.5 0 .9.3c.4.3.2 0 .3.1l.2.1q.1.3.4.3l.4.3.2.2 1.2.7c.3.4 1 1.2 1.6.8.5-.3-.6-.6-.7-.7l-.3-.1q.1-.2-.1 0-.5-.1-.8-.5h-.2V25h-.2q-.4 0-.7-.4 0-.2-.2-.3t-.5-.3l-.7-.5c-.3-.2-.3 0-.7-.4L25 22l-.5-.3-.4-.2-.2-.2q0-.1 0 0h-.2l-.2-.1q-.3 0 0-.2l.6.2q.1.3.5.2.3 0 .5.2h-.3q.2.3.5 0t-.2-.3q-.2 0-.3-.4t-.4-.2-.3 0-.3-.2l-2-1-.5-.4-.6-.2q-.4-.4-.8-.4h-.2v-.3l-.2.2q-.1.2.3.4t.5.2.1 0q.2.3.5.3t.4.2l.1.1.3.2.4.2.2.1q.3.3.8.3t.3.4l-.3.1v-.1l.2-.2q-.2-.1-.3.1-.2.3-.3 0l-.5-.2-.3-.1q0-.2-.2-.2h-.3q0-.2-.2-.2-.4 0-.6-.3l-.6-.3-.4-.2-.6-.5-.6-.4-.2-.1q-.2 0-.4-.3l-.5-.4q-.2 0-.3-.2l-.5-.4-1.6-1.4c-.4-.4 0 0 0 0h.3q0-.2-.2-.2V15l.1-.3q-.2.2-.3 0-.1-.4.1-.3l.3.2.4.1h.3q.2.1.2 0l-.2-.3q-.3 0-.2-.2l-.2-.3H15l-.4.3-.1.2-.4-.2-.3-.2q-.2 0-.3-.2h-.1l-.1-.2.1-.2v-.1h-.3l-.2.1h-.3v-.3l-.2-.1-.3-.2-.3-.3h-.1l-.1-.2h-.1c0-.3.2 0 .3 0q.5.2.9.7c.4.5 0 0 .2.1s0 0 .1-.1q0-.2.2-.1s.7.3.7 0-.7-.2-1-.2h-.1v-.1c0-.1.3-.3 0-.3l-.1-.2q-.2 0 0-.1t.5.1m.7.9-.2.3q.3 0 .3.3t.2.3h.2q-.2 0-.1-.2l.1-.2q.3.3.4 0 0-.2-.3-.2l-.3-.3zm-.2.5v.2l.1-.1zm2.8 1.2-.1.1v.2l.2-.1h.2l.2.1-.2-.2zm-1 .3-.1.2q-.2.2-.1.3 0 .2.2.3.1-.2.2 0l.3.1q.2.5.6.5t.4.3.3.4l.4.3.3.2.3.2.3.1.2.2h.3v-.3l-.2-.2-.2-.1-.3-.2-.3-.2-.1-.1q-.2 0-.2-.2h-.3q-.4 0-.3-.3-.1-.3-.4-.3t-.2-.1l-.2-.1-.2-.1v-.6h-.1q.1.3 0 .4-.2 0-.3-.4 0-.3-.3 0m1.3.2v.2l.1.1h.3v-.1l-.2-.1zm.8.3v.3q.3-.2.4 0h.3l-.2-.2-.2-.1zm10.7 1.8h-.2zm-14.8-2-.1.1v.1h.1zm4.6.8q0 .3.2.3c.2 0 .5.3.2 0v-.2l-.1-.1q0-.2-.3 0m-.6 0-.1.1.1.2.1-.1zm-3.7-.4q-.1 0 0 0v.2q.2 0 0-.1zm17.3 3.5H31l-.2-.2q-.2 0-.1.1l.2.3q.3 0 .4.2 0 .1.1 0v-.3h-.2m-.8-.3h-.2v.2h.2zm-10-2-.1.1h.2zm-.7 0h-.4l.1.4h.5l.2-.3zM13 16l-.1.1h.1m13.4 2.4.3.2v-.1zm-1.7-.2q0 .3.4.2.2 0 0-.2t-.4 0m-4.5-.6.2.2v-.1zm6.8 1.2q.1.3.2.2.2 0 .3.3h-.3l-.5-.2-.2-.3q-.3-.3-.7 0h.2q.2 0 .3.2l.2.1.3.3.1.3q.3 0 .1-.2 0-.1.2 0h.8l-.2-.3-.2-.1-.1-.2q-.2-.3-.5 0Zm-6.3-.9h-.3c-.2 0 .3.4.5.5q.2.2.7.2.2-.1-.1-.3-.4-.3-.4 0H21v-.3q0-.2-.2 0Zm-5.2-.8v.2h.1zm14.7 2.9h-.3v.2l.1.1.2.2.4.2.2.2h.3s.3.3.2 0q-.2-.3-.7-.3v-.1h.2c.3 0-.1-.3-.2-.4zM22 18.3v.3l.2.2.3.2v-.3l-.3-.3zm15.4 5.3H37l-.3-.2v.1l.4.2q-.2.3 0 .3l.6.1q.4.2.4.8l.1.2.2-.3h.3l.4.2-.1-.2c-.4-.1-1.1-.5-1.2-1s-.2-.1-.4-.2m-5.8-2.8v.2h.2zm2.4 1h-.1l.1.2m-5.7-2s-.2-.1-.2 0h.3zm-12-2h-.1v.1zM36 23v.1h.2zm-15.5-4.6v.2l.1-.1zm20.2 7.1-.4.2c-.3.2.2.1.2.2s.2 0 .2 0zm-8.6-4.1h-.2v.2q.3 0 .3.2h.4v.1q0 .2.2 0l-.2-.3zm-.6-.3h.3zM23 18.9v.3q0 .2.2.2t0-.3zm13.7 4.8v.1h.3zm-.4-.3v.2zm-2.2-1c-.3 0 0 .1 0 .2h.2zm1.4.7s-.4-.4-.4-.1q.2.4.7.3c.2 0-.3-.2-.3-.2m-2-1-.2.1q0 .2-.2 0l-.1.2.2.1.2.2q.1.3.6.3t0-.2h-.3l-.2-.1zm-2.8-.8q-.3.4 0 .6l.6.3h.2V22q.4 0 .2-.4h-.2l-.2-.1q-.2-.4-.6 0m.2.3q.3 0 .2.2t-.2-.1zm9.2 4q-.2.3.1.3.2 0 .1-.1 0-.2-.2-.1Zm-16.5-6.2-.1.1q0 .2 0 0h.2zm-7.3-1H16zM39 25.2v.3h.2v-.2q0-.1-.2 0M31.8 22h.2zm9.5 4.6q0 .2 0 0M38.7 25h-.2l.1.2h.2zm-.9-.5h-.2l-.2.2-.1.3h.5s.3.2.1 0v-.4m-1.3-.6h-.1zm-2.1-1h.3q-.1-.2-.3 0m-11.8-3.5-.2.1q0 .2.2 0h.1zm13.7 5h.4q-.4-.5-.4 0M36 24q0 .2 0 0m-.4-.3h-.1v.2q.1 0 0-.2m-3.1-1.3h-.5l-.1.1q-.2 0-.1.1l.1.2q0 .1.1 0l.3.3h.2l-.1-.2q-.3-.2-.1-.2l.3-.1zm-7.6-2.3h-.2q.2.2.5.2c.3 0-.2-.2-.3-.2m8 2.7h-.1l.2.2h.2zm-7.5-2.3c-.1.2.3.2.4.1h.1zm14.3 5.7h-.1q0 .2.1 0m-1.9-.9q.3 0 .1.2-.3.1-.4 0l-.1.3v.1q-.2 0 0 .2h.3l.4.2q0 .2.4.3s.3 0 0-.2v-.2L38 26v-.2q.1-.2.2-.1.2.2.1 0l-.1-.2q-.2-.2-.5-.2m.5.9-.1.1zm-.6-.1h-.1m3.4 1q0 .2.2 0m-16-6.4q-.1.2.1.2.4 0 .1-.2zm-6.8-1q0 .3.1.2.2 0 0-.1Zm23.3 8v.3l.1-.3zM33 23.2v.1h.3zM26.1 21l.1.1.1-.2zM42 28v.1h.3zm-6-3.3h-.1zm-1-.4q0 .3.2.4.2 0 0-.3 0-.4-.1 0m-1.4-.6q-.2 0 0 .1l.5.2q.3 0 .1-.1-.2-.3-.6-.2m5.3 2.6h.2m-2.2-.8h-.2s-.2-.3-.2-.1q.1.3.6.2.3 0 0-.2t-.2 0m-17-5.2v.2c.1 0 .5.2.3 0q0-.2-.3-.2m24.7 9.6h-.1l.1.1m-10-5.6h-.2v.1h.2zm-2.6-1H32zq.2 0 0 0m8.3 4.2.1.2h.2zm-5.1-2.8q-.1 0 0 .2v.3q.2 0 .1-.3 0-.3-.1-.2m-9.5-3.4v.2zm-6.3-.9-.1.1v.1h.1zM39.4 27l-.4-.1.2.1.1.1q.2.3.4.1zM36 25v.2zm-5.8-2.5H30l.3.1zm-2-.6q-.2.1 0 .2l.3.1v-.1q0-.2-.3-.2m14 6.5q-.4 0-.3.2h.3zm2.3 1.7h-.2v.1zM26.9 22l.1.2q.2 0 0 0zm16.8 7.9-.5-.2q0 .3.4.3l.4.3zm-5-2.9s-.2-.2-.2 0q.1.3.5.2zm-3.6-2H35v.1h.2zm-1.4-.3c-.1.3.6.5.8.6.3.2 1 .8 1.4.8.3-.1-.3-.3-.4-.4l-.3-.2-.2-.2-.3-.1q0-.2-.2-.2l-.1-.2s-.5-.5-.7-.1m-8.2-2.9q-.2.2.1.1l.3.1.2.1v.1l.1.1.3.1V22h-.1v-.2q-.5-.2-.9 0m-4.1-.7.3.2.2.3q.3.4.5 0h-.1l-.3-.2-.4-.2zm21.5 8.4h-.1v.2h.2zm-3.6-2.2h-.1v.2h.2zM42 29h-.1v.1-.1Zm-.7-.4h-.1v.1h.2m-13.2-6-.2.1h.3zm-1-.2q-.3.2-.1.5.3.3.5 0 0-.2-.2-.2l-.2-.1zm-6.1-1 .1.1zM47.4 33h-.3.1l-.1-.3h-.3l-.2-.2h-.4l-.4-.1-.2.1q.1.2.5.3l.7.3q.2.3.5.2h.5q0-.3-.4-.2m-1.7-1.6h-.2zm-5-3h.1zm-4.2-2.1v.2zm-6-2.6h-.3l.3.2s.6.2.3 0q0-.3-.2-.2m10.2 5-.5-.2v-.2h-.4q-.2-.2-.2 0c0 .3.6.5.9.5zm-3-1.6-.2-.1c0-.1-.5-.5-.6-.3s.5.4.6.5q.3 0 .3.3h.3q.5.7 1.2.7c.3 0-.4-.4-.5-.4s-.3-.1-.4-.4q-.2-.3-.7-.3m-15.9-5.4.2.3.2.2-.1-.2zM42 29.5h-.2v.2h.1v-.2Zm-9-4.4h.1q0-.2 0 0Zm-1-.7h-.3l.5.2c.2 0-.3-.2-.3-.2Zm-3.7-1q.2.4.5.4l-.2-.3q0-.4-.3-.1m-4.6-1.2H23h.5q.2 0 0 0m23.7 11.3H47v.2h.2zM40.8 29s-.2-.1-.2 0zm-16.9-6.6.2.1zm22.9 11q-.2 0-.2.3h.2zh.2q0-.2-.2-.1m-16.2-9 .4.2h.3q-.2-.2-.7-.2m-6-1.6-.2.1v.1s.4 0 .4-.2zm18.5 8H43v.2h.1zm-19.6-8.2h-.2zm12.8 4.7.2.3c.2.3.1-.1 0-.2s-.1-.5-.2-.1m-.3-.4q-.2 0 0 .2h.1zm-12-4.2h-.2v.2h.2zm1.6.5v.2zM41.1 30l-.2.3h-.4s-.2-.3-.1 0l.5.2h.4l-.1-.2q-.1 0 0 0zm-6.7-3.7h-.2l.2.1M30 24.6h-.2v.1zm-4-1.3h-.3l.2.2h.2zm4.7 1.6s-.4-.2-.4 0 .5.4.7.3-.2-.2-.3-.3m9.3 4.7h-.2q0 .2.3.2c.3 0-.1-.2-.2-.2m-5-2.5.2.2v-.1q0-.1-.1 0Zm-1.7-.7h-.3q.1.3.4.3.2 0 .1-.1zm-.5-.3.2.1m-7.3-2.4h-.2l.1.1zM37 28.2l.1.1zm-.7-.4h-.1zm-2.4-1 .3.1.4.3q0 .3.2.3t.2.2l.3.3q.4.3.6.1t-.3-.3l-.3-.2-.4-.3-.4-.3q-.1-.2-.6-.2m-8.4-2.9-.1.1v.1h.1zm18 8.6v.2h.1q0-.4-.1-.2m-1-.7v.2h-.1s-.4-.3-.3 0 .8.5 1 .5q.3 0-.1-.2s-.3 0-.1-.1l-.1-.2zm-15.7-7.4.1.2zm22.9 12.9h-.2v.1h.2q.2 0 0-.1m-7.5-5.6c0-.1-.4-.3-.4-.1l.2.1zm-.7-.3q-.2.2-.3 0H41s.2.4.3.3q.2 0 .2-.2t-.1-.1Zm-5.2-3.1v.1q.2.1.2 0zm1 .6v.2q0 .1 0 0zm-9.8-4.1s-.3 0-.1.2h.3zm12.8 5.8H40l.1.2h.2zm-8-3.5c0 .2.5.4.6.4q.8.1 1.3.8c.2.3 0 0 0 0l-.1.1v.3h.4v-.1q0-.2 0 0l.3.1q0 .2.2.1h.2q.4.4.9.3H36l-.2-.3h.7l-.6-.2-.5-.2-.3-.2h-.3q-.2-.4-.6-.4-.2 0-.3-.2l-.5-.3-.4-.2c-.3-.2-.7-.6-.7 0m3 1.4H35zm4.4 1.9h-.3v.1h.3zm-1-.6h-.2v.1h.2zm-10.3-4.4.2.1s0-.3-.2-.1m9.8 4.3s-.2-.2-.3 0 .2.1.3 0m-9-4v.1zm18.4 10.5h-.2q0 .1.2 0 .1 0 0 0m-6.8-4.9v.1zm-10.6-5.2q0 .3.3.2c.3-.1-.1-.2-.2-.2M47 35.9h-.1v.1q.1 0 0-.1m-10.1-6.5q-.3.1 0 .3l.1-.3zm9.4 6.2q-.1 0 0 .2h.2q0-.2-.2-.2m-7.3-5v.2h.1zm-2.5-1.4h-.2v.1h.2m-8-3.3h-.2zh.2zm16 8.5q0 .2.3.2 0-.3-.3-.2m-12.2-7-.1.1v.1h.1zM45 35l-.3-.2zm-6.1-4c-.3-.1 0 0 0 0q0 .2.1 0h.1Zm-1.6-.7-.5-.2h-.5l.5.1.2.3.4.2h.2-.2q-.1-.2 0-.2h.2q0-.2-.3-.2m-2.4-1h-.3l-.1-.2q-.4-.3-1-.4l-.7-.2c-.7-.2-.1.2.2.3l.6.4q.2.3.3.1h.5c.2 0 .5.5.8.3s0 0 0-.1zm3.3 2H38zm-.8-.3.1.1h.2zm-3.2-1.5q-.2 0 0 .2.5.5 1.1.5c.3 0 0 0 0 0L35 30q-.3-.5-.8-.5m1.6 1v.2h.1zm33 12.4-.3.2v-.2zm-44-29.2v.2q0 .1.1 0h.2q.3 0 .1.3h-.1l-.2-.2-.3-.3q0-.2.2 0m-6-.5q.4.2.6.5 0 .1 0 0l-.3-.1-.2-.2-.5-.3s-.5-.2-.4-.4.7.3.8.5M36 17.5q-.1.4-.4.1-.4 0 0-.2l-.3-.1-.4-.3h.3c.3 0 .9.1.8.5m-.3-.2h-.1zm-1.1-.7v.2q-.2 0-.1-.2 0-.1 0 0m31.2 23.2v.1h-.2v-.1zM38 18.5l.3.2.4.3s.4 0 .2.1q-.6.2-1-.3 0-.2.1 0h.2-.1zm-1.4-.8.3.3q.3 0 .3.4-.2.2-.3-.2l-.8-.3v-.1q0-.2.2-.2zM20 13.1h.1v.2zm-3.3-.4h.2l.1.2h-.2zm-.6 0 .2.2v.2s-.5-.1-.5-.3zm-.7-.1v.3zm-6-.2.4.4-.1.3h-.1q-.2 0-.3.2h-.1l-.1-.2V13l.2-.1-.1-.1-.2-.1-.2-.2h-.2l.1-.2q.5-.1.7.2M66.5 41h-.2zm3 3.5s.1.1 0 .2zM40.5 20s.4.2.3.4l-.3-.2q-.1 0 0-.2m-3-1.6v.1h-.1zM69.8 45v.2h-.2V45zm-1.1-1.4v.2h-.1l-.1-.2q0-.1.2 0m-5-5.3h.1zq-.1 0 0 0M41.5 20.6l-.2.1v-.1zm-16-6.4h.2v.2h-.1zm18 7.6.7.6-.4-.2-.5-.4q0-.2.2 0m-1-.6q.5.1.5.4c-.4.4-.8 0-1.2-.3l-.7-.2q-.2 0-.5-.3c-.3-.3-1.2-.8-1.8-.8l-.2-.2-.3-.2q-.7-.2-1.1-.6l-.6-.5q-.2 0 0-.2l.4.2.5.3.9.3.6.3c0 .2-.6-.1-.2.2l.7.4.7.3.5.1.7.5.7.2zM40 20h-.2s-.4-.1-.3-.2q.3-.2.5.2m-19.3-6.4.2.1v.1l-.3-.1zm-12.2-1h-.2q.1-.2.2 0m60.9 32.1.1.2q0 .1-.2 0l-.2-.1v-.1zM47.2 24.4l-.7-.3-.5-.2h-.2l-.3-.2-.3-.2s-.4-.2-.2-.2l1 .4zM59 33.5v.1h-.2q0-.2.2 0M27.4 15l.4.3.1.3c.1.1.4.1 0 .2s-.6-.1-.8-.4l-.4-.1-.2-.1v-.4l.4.2.6.2zm-7.7-1.2h.1q0 .2.2.1l.2.2-.1.1v-.1h-.2l-.2-.1zm-2-.1s.2.1.1.2l-.3-.2c0-.3.2 0 .2 0m44.5 23.5H62zM52.3 28v.1l-.1-.1zM10.1 13v.2zm33.7 9.7s.3 0 0 0-.5 0-.6-.2q-.1-.2.2 0zM30 16l.4.2h-.2l-.4-.2q-.3-.2.2 0m31.8 21h-.2zm-6.7-6.4v.1l-.1-.1zM47.4 25v.1h-.1zm-5-2.9q.2 0 .2.2-.1.1-.2 0l-.2-.2zm-20.1-7.6v.1h-.1q0-.2 0 0m-1.4-.2s.2 0 .2.2l-.4-.1h.2m-2-.1h-.1q0-.2.1 0m-.8-.2.3.3c-.2.3-.4 0-.4 0zm28.4 10.7.3.2c-.2 0-1-.2-.9-.5s.5.2.6.3m-4.9-3q.3 0 .2.2h-.3q-.2 0-.2-.2zM34 18.1l.1.1h-.2q-.2 0-.1-.1zm-3-1.5v.1l-.2-.1zm-1.6-.5h.1Zm-.6-.2.2.1v.2q.2 0 0 .2-.1.3.2.3l.2-.1q0-.3.3-.1l.2.1q0 .2-.2 0-.1 0 0 .2l.2.1.1.2.2.2h.2l.2.2h.2v-.2l.2.2h.5v.2q.4.4 1 .5t.6.4c.1.3-.7-.2-.7-.3s-1-.5-.7-.2.7.4 1 .6l1.3.8q.6.4 1.4.6 0-.2-.2-.3t-.2-.1l.4.1q.4 0 .4.3h-.1v.1h.5l.2.2.2.1.5.4q.5.1.9.5l.5.3q.2.2.5.2.4.1.4.4c0 .3 0 0 .2.1l.7.5c.1 0 .9.6 1.2.6s1 .4 1 .6l.1.3h.3v.1q.1.3.4.2h.2v.3l.2-.1.1.1q.2.3.6.4h.4l.7.5c.2.1.6.4.2.3l-.4-.1-.9-.4h-.1l-.1.3h.2l.1.3.2.1q.2 0 0 .1h-.1l-.3-.1-.2-.2-.4-.1q-.4 0-.5-.3t.2-.3l.3.1q0 .2 0 0h.2q.3.1 0-.1c-.1-.3-.8-.6-1.1-.7l-.5-.1h-.4l-.4-.1q-.1-.2.1 0l.2-.1q-.2-.2-.5 0 0 .2.3.3h.5l.6.3q.4.1.4.4-.1.2-.4 0l-.5-.1-.4-.4-1.1-.4q-.3 0-.5-.3l-.2-.2h-.4q-.3 0-.3-.2l-.5-.2q-.1-.1-.2 0h-.1q-.2 0-.1-.2v-.3l.1-.1v-.3h-1l-.3-.3-.1-.2-.1.1-.1-.1q0-.2-.2-.3.2 0 0 .3c-.3.3-.2 0-.3-.1l-.2-.3-.1-.2q0-.1 0 0l-.4-.1h-.1q-.1.2-.2.1v-.1h-.2l-.5-.3c0-.1-.4-.2-.2-.3h.2l-.2-.1-.3-.3h.3l.3.3q.1.3.3 0c.2-.3-.4-.5-.7-.6l-.3-.3H34v.2q.2.1 0 .3-.3-.1-.3-.5 0-.3-.2-.4l-.4-.2-.6-.4-2-1-.2-.2-.4-.2q-.3 0-.4-.3 0-.2-.3-.2L29 17l-.4-.2h-.3l-.2-.1v-.2l.4.1q.1.2.2 0l-.2-.1-.3-.2q.2-.1.4 0h.2l-.2-.2-.2-.1zm7.7 4.7h-.1v.2zm-2.8-1.3h-.2l.2.2h.2zm1 .7h-.1v.1q.1 0 0-.1m6 3.2v.2c0 .2.4.5.3 0zm-1-.6h-.2v.1zq.2 0 0-.1m-2-1h-.2zm-1.2-.6H36l-.2.1h-.1q-.2-.1-.2 0 0 .3.5.3l.9.3h.2v-.2q0-.2-.3-.3zm-1.5-.8h-.2q0 .2.3.3h.1zm7.2 3.9s-.2-.2-.2 0 .2.2.3.1zm-3.5-1.9s-.3-.2-.3 0q.2.4.5.1zm2.5 1.9H41q0-.1-.2 0l.1.2h.3zm-1.4-.5h-.1q0 .2.3.1zm3 1.6h-.2v.2h.2zm25.6 19.2v.2h-.2v-.2zm-18-17.1h-.2q-.2-.1 0-.2.2 0 .2.2m-14.9-8.6c.2.2-.2 0-.2 0q-.3 0-.4-.3.3 0 .6.3m-12.9-4v.2zm-1 0H21v-.2q.4-.2.5 0m-.8 0q-.2 0-.3-.2c-.1-.2.3 0 .3.1m29 12.2q-.1 0 0-.1zm-4.7-3-.2.1v-.1zM36 19q-.2 0-.2-.2zm-5.5-2.4.2.1-.1.1q-.2 0-.2-.2zM23 14.7l.1.1-.2.1q0-.2.2-.2m-3-.3h.1v.2zm-1.4-.2.5.3.3.3q-.5-.1-.8-.5m44 24.5q0 .1 0 0 .2 0 0 0m-13.2-12h-.3v-.1zM37.8 20q.3.4.1.3h-.3l-.4-.1-.2-.3-.2-.2c0-.1-.4-.2-.2-.2.3-.1 1 .4 1.2.5m-6.6-3H31zm14.3 7.3v.2l-.1-.1ZM43.2 23v.2q-.2 0-.1-.2Zm-11.5-5.6.1.1h-.3zm-6-1.8-.1.2-.2.2v-.4q0-.2.3 0m-5.6-.7v.2l-.2-.2c-.2-.2.1 0 .1 0m-4.7-.6q.2.1.1.4c-.1.3-.1-.2-.2-.2zm47 24.5q0 .1 0 0M49 26.7q0 .2-.2 0-.1 0 0-.1zM41.1 22v.2zm-.6-.4h-.1zm-8.3-4 .4.2.6.3.4.2-.4-.1-.6-.3zm-7.4-2.2.1.1zm37.4 23v.2H62v-.2M56.8 33l.1.4-.1-.2zm-8.9-6.8.2.1h-.3zm-9-5.3c.3.1.7.3.2.3q-.3 0-.5-.3t-.2-.1h-.2v-.1s.7 0 .8.2m-16.5-5.7v.3H22q-.3-.2-.2-.3.4-.2.5 0m-1 .1H21v.2q.4 0 .2.2t-.7 0l-.2-.2.8.2-.3-.3-.2-.2.2-.1q.3 0 .5.2m-2.7-.6.2.1-.2.1zm45.7 26.6q.2 0 .1.1H64l.1-.2zm-3-3.4.2.1zM46.9 25.5v.2zm-.5-.2.2.2q.2 0 0 .1h-.3l-.5-.2h-.2l-.1-.2-.4-.1-.4-.2q-.2-.2-.2-.5t.3-.2l.2.2-.2.2q0 .3.2.1l.2-.1q.2 0 .3.2t.5.4h.4M40 21.5q.1.2-.1.3v-.3zM10.1 14h.2l-.1.2zm46.3 19h-.2v-.1zm-6.7-5.3-.4-.1q-.2 0 0-.1t.4.2m-6-4q.4.1.4.4c0 .3-.2 0 0 .1v.3h-.3l-.3-.3h-.1l-.1-.2-.3-.2-.4-.1v-.2h-.3q-.1-.2.3-.2l.4.2zm-3.4-1.9h-.1zm-15.5-6.1v.2zm-5.1-.2q.2.4.5.5t.4 0v.3h-.2q0-.3-.3 0c-.3.3 0 .1 0 0q-.1-.3-.4-.4-.2 0-.3-.3 0-.4-.3-.4-.4 0 0-.1t.6.4m48.4 30q-.2.1-.5-.2h.2q.4 0 .3.2m-.7-.9H67h.2q.2 0 0 0Zm-25.7-22v.2h-.2v-.1zm-1-.4q.2 0 .2.2h-.2q-.2 0-.2-.2zm-22-7-.2-.1zm-4.6-.6v.2H14zM56 32.8l-.2.1q-.3 0 0-.1zm-.6-.5.1.2-.1.2v-.1zM53.7 31h-.1zm-4.6-3.7h-.2zM34.2 19q.3 0 .1.1-.2.2.1.2h-.2l-.3-.3c-.2-.3.2 0 .3 0m-21.7-4.5.1.2h-.1q-.1-.1 0-.2m-3.3-.2H9q.1-.1.2 0m58.1 30.5v.1h-.1q0-.2.1 0M48.5 27q.2.2 0 .3l-.1-.1V27h-.3zm-.8-.4q0 .2-.2.2h-.3q-.1-.2.2-.2zM42 23v.2l-.1-.2q0-.2.1 0m-8.2-4.1h-.1zm33 25.5h.2zm-3-3.3h-.3l-.2-.2q-.1 0 0-.1l.3.1zM46.4 25.9v.1h-.1zm-17.2-8.6H29zm-7.1-1.4v.2c0 .2-.7.3-.8 0h.6q0-.2.2-.2m-.5-.2.1.2h-.1q-.2 0-.1-.1zM63 40.4q0 .5-.2.3l-.5-.2s-.6-.3-.3-.4h.3q0 .2.2.2l.2.1.2.1m-8-8-.2-.1h.1m-25.3-15 .1.2q0 .1-.1 0zq0-.1.1 0m-3.5-1v.2zq0-.1.1 0m-1.5-.3.1.1.3.3c.1 0 .6.3.3.4H25l-.3-.2q0-.3-.3-.4-.4 0-.1-.1zm37.2 23h-.2zm-9.3-8.8-.2-.1zM49.3 28v.1q0 .1 0 0-.1 0 0 0zM26.6 16.7v.1h-.1zM59.4 37v.1h-.1l-.1-.2zm-5.9-5.5.1.2h-.2q0 .1-.2 0-.2 0 0-.2zM52 30.1v.1h-.2zm-.3-.2v.1h-.1v-.1Zm-21.5-12 .3.3.2.2-.2-.1-.3-.2V18ZM53 31.3q.1 0 0 0l-.2.2q-.2.2-.4 0c-.2-.2.2-.3.3-.3zm-2-1.5h.1zh.1m-3-2.3-.1.2q-.2 0-.1-.2zm-16.6-8.6q.1.1-.1 0l-.3-.2-.2-.1c.2-.2.5.2.6.3M26 17l.4.3.2.2h-.3l-.1-.1q-.2 0-.2-.2l-.1-.2zm-4.8-.7.1.1.2.2.1.2h-.1q0 .2.3.1.3 0 .2.2t-.2.1l-.4-.2q-.2 0-.1-.2l-.1-.1-.2-.4zm35.3 18.1q0 .2 0 0h-.1zm-5.8-4.8.2.1zl-.4-.2zM48.5 28l.1.1h-.2l-.1-.2q0-.2.2 0m-16-8.9v.1h-.1m.3.3v.1l-.1-.1zm32 24h-.2.1M61.5 40q0 .1-.1 0H61l-.3-.3v-.1l-.2-.1q0-.2.1-.1.2 0 .3.2l.4.3q.3 0 .3.2m-2.8-3-.3-.1-.3-.2h.2c.1 0 .6.3.4.4M9.4 15.4q.2 0 .3.2zm57 30q-.3.2-.8 0L65 45l-1.3-.4c-1.8-.6-4-1.8-5.6-2.7q-1-.3-1-.7c0-.4.8.4 1 .6l.7.3 1 .5.5.3.2-.1h.3v.3q.1.3.6.4l.7.4.8.3.6.2 1.8.6.6.2s.7 0 .5.2m-.6-.5-.1-.2zm-.8-1h-.2q-.1 0 0 0t.2 0M55.7 34h-.2zM46 26.7h.1m-.7-.4.1.1h-.2l-.2-.1q0-.2 0 0zm-12.7-6.7-.3-.2zM28.5 18l.2.2.3.2h-1.1q-.1-.3 0-.4 0-.2.1 0zm36.8 26.3q.1.2 0 .2-.2 0-.2-.3.1-.2.2.1M57.5 36h-.2zm-6.7-5.6h-.4L50 30h.5l.2.1q.3 0 0 .2Zm-2.1-1.7q0 .2-.2.2v-.2q.1-.2.2 0M23.3 17h-.1zM10 15.6s.1.2 0 .2l-.2-.2zm48 21h-.2v-.2q.2-.1.2.2m-4.2-3.9v.1zm-21-12.9.2.1q.5 0 .7.5c.1.5-.1 0-.2 0L33 20zm-3.6-1.3v.1q0 .2 0 0h-.1zm32.3 21.9q0 .1-.1 0zM55 33.7h-.2zm-.6-.4h-.1zM46 27h-.2zm1.5 1 .4.3-.4-.1c-.1 0-.6-.1-.4-.3zm-2-1.2v.1l-.1-.1zm-.4-.2v.1q-.2 0-.1-.1zM67 46.5h-.2q-.6 0-1.1-.3c-.5-.3 0 0 .1 0h.3l.3.1.3.1zM56.1 35.2v.2H56v-.2zM53.5 33q-.3.3-.5 0-.4 0 0-.3v.2h.2q.4 0 .3.1m-4-3.2q.2.1 0 0h-.1zh-.3l-.1-.1h-.2l-.7-.4q-.4 0-.3-.2t.6.2c.5.4.2.1.5.1s.6.3.7.5M33 20.2q.3 0 .4.4c.1.4.2.1.4.2l.7.5 1.4.8.2-.1.2.1-.2.2h-.3.2l.3.3q.1.2-.1 0-.7 0-1.2-.6-.4-.4-.9-.5l-.8-.4-.5-.3q-.3-.1-.3-.4.1-.1.2 0 .2.3.3 0 0-.1 0 0l-.2-.1zM64.5 44l-.2.2H64V44zm-5.1-5.4q-.5 0-.7-.3.2-.2.5 0 .5.4.2.3M56 35s.1 0 0 .2l-.2-.2zm-3.7-3.2H52v-.1zm-5.5-4.1v.1h-.1v-.1zm-1-.5c.2 0 .8.2.6.4s-.6-.2-.8-.3l-.2-.1s-.5 0-.5-.2h.3zm-10-5.5h-.1q.1-.2.2 0m25 18.2h-.2zm-.4-.3v.2H60v-.2zM44.6 26.8h-.3l-.1-.2s.4 0 .4.2m12.2 9.6v.1h-.1zm-10-8.2v.1h-.1v-.1m-3.1-1.9.3.2h-.4q-.3-.2-.1 0h-.2q-.3 0-.1-.1t0-.2V26zM41.5 25q0 .2-.1 0h-.2l.2.2 1 .6q.3 0 0 .1-.7-.1-1.3-.7-.3-.1 0-.3zm17 13.2v.1h-.1zm-1-1h-.2l.2-.1m-6.7-6s.1.2 0 .2l-.1-.2zm-.4-.2v.1h-.1M40 24.5q0 .2-.2 0l-.4-.2q-.3-.2 0-.2.4 0 .6.4m23.4 19.4h-.2q-.5 0-.6-.3t.2-.1v.1h.3q.2 0 .3.3m-1-1.2h-.1zm-4.6-5v.2l-.1-.2zm-1.7-1.6H56zm-3.3-3v.2q-.1 0 0 0zM51 31.8v.1l-.2-.1zm-1.2-.9.1.1q0 .1-.1 0h-.1zm-.5-.2v.1l-.3-.2q-.2-.1-.1-.2.4 0 .4.3M42.9 26v.1q0 .2 0 0zm17.6 14.6v.1h-.1.1m-3.4-3.4q.2 0 .2.3-.3 0-.3-.2t.1-.1m-1-.9q.1 0 0 .2l-.2.2v-.2zm-2.4-2.3q-.3 0-.2-.1zm-.6-.4q.3 0 0 .2-.3 0-.7-.4-.4-.2-.4-.4l.5.3.4.2zm-5.5-4.4v.1zm-1.3-.8H46v-.2zm19.2 17.9v.1h-.1q0-.1.1 0M56.8 37v.1h-.1q0-.2.1 0m-1.6-1.4q-.2.2-.5 0 0-.2.2-.2.4 0 .3.2m-4.9-4.2h-.1zm-2-1.5-.1.1h-.3v.2h.2l.3.1q.5 0 .7.5 0 .2-.2 0l-.2.1h-.1l-.3-.1-.4-.2-.2-.4.1-.3v-.1q.3-.1.5.1m-2.5-1.7h-.4v-.1zM11.5 17.1v.2zl.1.2q0 .1-.2 0h-.2zM65.8 47l.1.1-.3-.1zm-6.3-7-.1.2-.2-.2zM50 31.5h-.2l-.4-.3q-.3 0 0-.1.4-.2.6.4M46.6 29l-.3-.1h.4M62.4 43l-.1.2v.2h-.1l-.4-.2V43q-.3 0-.2-.2t.3.1l.3.1zm-1.7-1.8v.1q-.4 0-.4-.2h.1l.2.1zm-4.9-5q-.1.2-.2 0h-.2v.2l.1.1H55l.1-.2.1-.2h.3s.4 0 .3.1M51 32v.1h-.3zm-3.4-2.4v.2l-.1.1q.1.1 0 .2v.1h-.1l-.2-.1-.2-.1q-.4-.3-.8-.2h-.3v-.1l-.2-.3h-.3l-.2-.1H45l.3.2.2.2-.2-.1q-.5 0-.5-.4h-.2q-.4 0-.4-.2H44l-.3-.1q0-.2-.2 0v-.1q0-.3.4-.1h.3l.4.1q.5.3 1 .2h.4v.4h.6l.5.2q.3 0 .2-.2t.2.1M43.7 27v.2l-.2-.2zm20.6 18.5H64zm-11-11.1-.2-.1zM47 29.2l.1.2zm11.5 10v.2l-.1-.2zm-4-4v.2h-.2v-.1h.1m-3.2-2.5q.3 0 .2.2t-.1 0-.3-.1q-.5 0-.7-.4c-.2-.4.3 0 .4 0zm7 6.4H58q0-.2.1 0Zm-2.5-2.5v.2h-.1v-.1Zm-.8-.5q-.4.2-.7 0c-.3-.2 0 0 0-.1l-.1-.2v-.2l.3.2v.1h.2l.3.1ZM52.6 34h-.3q-.5 0-.6-.4.1-.2.4 0zm4.2 4v.2q0 .1 0 0zM54 35.3h-.3v-.1zm-.5-.3h-.2q-.2 0 0-.2zm11.2 11.7.2.1zl-.2-.1h.2m-1.2-1.5v.1h-.2.2ZM58 39.4h-.1zm-.8-.7H57l-.1-.2s.5.1.4.2m-6-5.4q0 .1 0 0m-1.3-1-.2-.1v-.1l.2.1m-1.3-1h-.2q-.2 0-.2-.3c0-.3.5 0 .4.3M63.1 45v.1H63zm-6.5-7v.2h-.1v-.1h.1Zm-2-1.6h-.3l-.3-.1-.2-.2h.6q.3 0 .3.3m-.8-1-.2.1v-.1zm-.3 0 .2.3q.3.1 0 .2h-.2v-.2q-.1-.3-.5-.3h-.3.1l.3-.2.2-.1q.2 0 .2.2M52 33.8v.1h-.2.2m-1-.9-.1.3h-.1V33l-.1-.2zm-1.4-1h-.2zm14.8 14.6h-.2zm-4-4.3v.2l-.5-.1q-.3 0-.3-.3V42h-.4s-.3-.2 0-.4h.2l.2.2q.2 0 .2.2 0 .1.2 0 .2 0 .3.2 0 .1 0 0M53 34.9l-.1.1h-.1.2m-1.4-1.1v.3zm-2.4-2-.1.1zm8 7.2q0 .2-.1 0zm-6-5.4v.1H51q0-.3.2-.1m11.6 11.6h-.2zM55 37l.1.3q0 .4-.2.3-.1 0 0-.2v-.2q-.2 0-.2-.2zm-6.7-5.6s.4.3 0 .3H48q0 .2-.2.1-.2 0 0-.2v-.3zm-1.6-1.2q-.1.1-.4 0-.2-.2.1-.2t.3.2m17 16.3c-.1 0-.7 0-.8-.2h.3zm-5.5-6.1H58q0-.2.1-.1zm-2.4-2.5h-.2zM44 28.6l-.1.1v-.1m-29-9.5.2.2.2.2q.2.2-.1 0c-.3-.2-.9-.4-.8-.7s.4.3.5.4m39.2 17.7.1.2q0 .2 0 0h-.3l.5.3q.2 0 .1.2l-.2-.1h-.4q-.4 0-.6-.4 0-.2.1 0h.2v-.5h.2q0 .2.3.3M48.8 32h-.1zm6.9 6q0 .2-.1.1h-.1.2m-3.5-3h-.1zm-3.9-3.2v.1l-.1-.2zm6.9 6v.1H55q0-.2.2 0m-6.4-5.5h-.3zM14.3 19H14zm48 26.5q-.3.1-.7-.2-.4 0-1-.4l-1-.5c-.3-.2-1.5-.8-.4-.4l1.3.6 1 .5.5.2q.3 0 .3.2m-3.6-4h-.1zm2.2 2.6q.2 0 0 .1-.7.2-1.2-.4h.3l.6.3zm-4.1-4.5h-.1m1 1.4s.4 0 .3.1-.5 0-.6-.1q.1-.2.3 0M52 35.3v.1q-.1 0 0 0M46.5 31v.1zm9.3 8h-.1zm-2.4-2.2h-.2v-.1zm-.4-.4v.4q-.4 0-.2-.3 0-.2.2-.1m-1-.6v.1l.1.2s.3.1.1.2L52 36zm-.7-.6h-.1zm10.5 10.6v.2h-.1zm-7-7.3h-.2q.2-.2.2 0m4.3 4.8c.4.3 0 .2-.3.2l-.5-.3v-.3h.2q-.1.1 0 .2h.2zm-8.5-8.4h-.1zM16.4 20.2l.2.1.1.2-.2-.2q-.1 0 0-.1m36 16.4q.2 0 0 0h-.2l-.2-.2h.2zm-2.6-2.4.2.3v.2q-.3 0-.4-.4 0-.2.1 0m11.4 11.4h-.6s-.5-.1-.3-.3q.4-.2.6.2h.2l.1.2M53.9 38v.1zm-2.6-2.3v.1zm-.3-.1q-.1 0 0-.1m2 1.8q.3 0 .1.3l-.2-.2-.4-.2-.1-.1h.4zm-1-1h-.2zm-34-15c.2 0 1.3.5 1.1.9s-.7-.3-1-.5l-.3-.3-.6-.5c-.3-.4.6.3.8.4M55.8 40v.1h-.1V40zm-.4-.2q.1 0 0 .2c0 .2.6.4.7.5l-.6-.1c-.3 0-1.1-.5-1.2-.8q-.2-.4 0-.1t.3 0c.1-.3.1 0 .2 0v.1l.1.2zm2.6 2.8q-.1.2-.2 0 0-.1.1 0 0-.2.1-.1M50 35q.3 0 .4.2zh-.4l-.3-.2q-.3-.2-.5-.1.1 0 0 .1h-.6q-.2-.1 0-.2.3 0 .2-.3c0-.2.8.3 1 .3zm-1-.9h.1zm-.5-.3h-.2v-.2q.2 0 .2.2m2.4 2h-.1zM60 45v.1h-.1V45zm-2.3-2.5-.2.1-.3-.1zm-2.6-2.7H55m-5-4.4.1.1q0 .1 0 0zm2.4 2.1h-.3zm7.2 7.5h-.3v-.3zm-9.9-9.7v.1l-.1-.1zm8.5 8.4-.3-.1-.3-.2s-.6-.1-.4-.3q.5 0 .7.4 0 .2.2 0 .2 0 0 .2M54 39.3h-.1zm-2.1-2h-.3l.1-.1s.4.1.2.2m-.8-.7H51M21.3 22.2l.2.1-.3.2-.1-.2q0-.2.2-.1M59 44.6l.3.2zl-.4-.3q-.1-.2 0 0zm-2.6-2.8q-.2.2-.2 0zm-3-2.8.2.1q-.1.1-.2 0zm.6.5v.2zq0-.1 0 0m-4-3.4q-.1.2-.2-.1-.2-.3-.3-.2.3-.1.5.3m5.8 5.5q.1 0 0 .1l-.5-.4c.2-.3.5.2.5.3m-2.9-2.9v.2l.1.2h-.1l-.2-.2.1-.2q0-.2.1 0m-5-4.4v.4q0 .2 0 0l-.2-.3zM58 44.1l-.1.1v-.1zm-9.3-8.8v.2h-.1v-.2M22 22.7q0 .2-.1.1zM55 41v.2h-.2V41zm-3-2.6s.2 0 0 .1.3 0 0 .2l-1-.4c-.2 0-.8-.1-.6-.5h.2q-.1-.3-.2-.2-.2 0-.2-.2.1-.2.4.2l.1.3q.3.4.7.4c.4 0 0 0 0-.1s-.3-.1-.2-.2h.4l.1.3.1.2q.1-.3.2-.1M46.9 34v.1l-.2-.1zM20.2 22.7l.3.2q.6.1.9.5c.3.4-.3 0-.4-.1q-.5 0-1-.6 0-.3.2 0m-.5-.2q0-.2 0 0m37.4 21 .2.1zs-.5-.2-.3-.3zm-1-1.1h-.2q.1-.2.2 0m-6.4-6h-.1v-.2M48 35v.1zm-.4-.2c0 .3-.2 0-.3 0l-.5-.3q-.3 0-.1-.2c.2 0 .8.2.9.5m-2.3-2v.2l-.1.2H45v-.4zm9.6 8.4h-.2zm-.5 0L54 41q0-.3-.3-.3-.5 0-.1-.2l.4.3.4.2q.2 0 0 .2m-9.7-8.6q.1 0 0 .1v.2h-.2v-.2l-.5-.2q-.2 0 0-.1h.3zM49 36v.2l-.1-.2zm-.5-.5v.2h-.1v-.1q0-.2 0 0m8 7.6s.2.2 0 .2-.3-.1-.2-.2q.1-.2.2 0m-10-8.9v.1M56 43v.1q-.2 0-.1-.2zm-2.6-2.6v.2zm-5.6-5v.2l-.2-.1h.2M44.4 33h-.1zm11 9.7.1.1zh.1M53 40.3l-.2-.1V40q.4 0 .3.2M48.5 36q.2.2-.1 0l-.1-.1zm-2-1.6.1.2q0 .3-.2.1.2 0 .1-.2m-.5-.3-.1.1zm-.3-.2-.1.2V34l-.2-.2s-.3 0-.1-.2.4.3.4.4m7.9 6.7-.1-.1m-5.8-5 .2.2h-.2q-.2 0-.2-.2.1-.2.2 0M31.2 26v.1zm24 16.5H55s-.3-.1-.1-.1zm-1.3-1.1v-.1m-9.5-8h.1q0 .3-.2.1zm7.6 6.2v.1h-.2v-.1zM31.6 26.4l.1.1zm13.9 7.9h-.2zm7.1 6.3q.3 0 .2.2-.2.2-.3 0l-.6-.2-.6-.3-.4-.2.3.1h.2c0-.2.5 0 .6.1q0 .2.3.2zm-.8-.7v-.2zM51 39l.1.2h-.2q-.2 0 0-.2 0-.2.1 0m-7.1-5.8v.1q0 .1 0 0h-.1zm-20.3-8.9.2.2q.2 0 0 0h-.2zm27 14.5h-.2zm-1.6-1q.5.2.2.2t-.4-.2l-1.2-.5-.4-.1q-.4-.4-.7-.4t-.2.2.1.1-.2-.2l-.1-.2q-.2 0-.1.3c0 .3-.1 0-.2 0q0-.2-.2 0c-.2.1 0 0-.2-.1q-.1-.3-.5-.4-.4 0-.2-.2t0-.1l-.1-.1v.2h-.3q-.1-.1 0-.2c0-.2.5-.2.5-.1l.5.5q.2.1 0-.2c-.2-.3 0 0 0-.1q0-.3-.2-.3l-.5-.1-.3-.1q-.1 0 0 0-.2.2-.4 0l-.4-.3q0-.1-.1 0 0 .3-.2 0v-.2H43l-.4-.1h-.4q0 .2-.2 0-.2 0 0 0 .4 0 .6-.2t-.2 0l-.2-.1h-.5l-.1.2v-.4h-.3v-.4h-.2q-.5-.1-.8-.5l-.3-.3h-.2l.2.1c.2.3-.4 0-.5 0q-.2-.1-.3-.4T39 33l-.3-.2-.3-.1q-.7-.2-1-.8c-.3-.6 0-.2 0-.2q.2 0 .1.1v.2h.3l.2.2q.4.4 1.4.6l.9.5 1 .6 1.3.6 5 2.5zm-3.3-1.6h-.1v.1h.2m-5-2.5h-.2v.2h.3zm1.4-1q0-.2 0 0M41 32h-.1zm8.6 6.6v.1q-.2 0-.2-.2l.2.2m-.3-.2q0 .2-.2.1-.2 0 0-.2zm-.6-.3-.1.1q-.2 0 0-.1zm2 2h-.3l-.1-.2h.1zm-2.8-2.5v.1q-.2 0-.1-.1zm1.5 1.5v.1H49v.2-.5q0-.2.2 0M47 37v.2h-.3v-.1zm1.8 2v.1m-17.3-11v.2h-.1v-.1m-2.2-.7v.1h-.1zm18 10.6h-.1m-1-.5-.1.2h-.1v-.2q.1-.2.2 0m-.5-.3.1.2q0 .2-.1.1l-.5-.2q-.4 0-.5-.3c0-.4.3-.1.5 0zm-8.5-5.5h-.2q.1-.2.2 0m5.4 3.7h-.2zM33 29.8h.1zm-.5-.3.1.2q0 .2.2.2l-.1.2v.1l-.2-.1v-.2l-.2-.3q0-.3.2 0m-1.6-.6h-.1zm4.3 2.3q.2.1.2.3v.4q-.2 0-.2-.3-.1-.4-.4-.4c-.3-.1-1.6-.4-1.3-.9s1.5.6 1.7.9m4.5 2.6c-1 .2-2.4-1-3-1.5s0-.1.2-.1l.2.1q0 .2 0 0 .2 0 .3.2l.3.3c.3-.2 2.3.9 2 1m-4.8-2.2.1.2-.3-.2zM3.6.6l.2.2q.2-.1 0-.2zM3 .9Q2.8.9 3 1l.7.7.3.3q.1.2.1 0h.3L4 1.7l-.6-.5zM75.9 35v.1q0 .2.2 0h-.2M2.2 1.5q-.2.2.2.4.2-.1 0-.2 0-.3-.2-.2M2 2l.3.3q0 .2.2.2v-.2L2.3 2zm1.2 0q0 .2.2.3h.2v-.1h-.2zM77 37.8h-.2q-.2 0 0 0 0 .2.2.1zM1.7 2.7l.1.4c.1 0 .2.4.3.3q.2-.3-.1-.6h-.2zm1 0v.1l.1.1.1-.1zM1 3v.2q.5.1.3-.2zm77.3 37.5H78l-.4.2q0 .3.2.2.3.1.5-.2zm.2 1.8V42q0 .5 0 0Zm-2.2-4.4v.1zm2 3.2v.1zM1.1 3.4v.2zm-.5.2v.2q.2 0 0-.2m77 37.4-.5.1h-.4q-.3-.2-.5 0h.3q.2.1.3.4t.2 0 .1 0l.2.2v-.2h.2l.2-.4zm.4.4h-.2l.1.3.1.1zm-1.2-1q-.1 0 0 .2 0 .2.3 0 0-.2-.3-.1m-.8-1.1q0 .1 0 0m-.8 0 .1.2h.2q0-.3-.3-.3M2 5l.2.1V5q0-.1-.2 0m75.7 38h-.9v-.4h-.1v.3l-.2.1h-.2l.2.3.1.2q0 .3.2.2 0 .1.1 0l-.1-.2q.1-.1.2 0l.2-.1.3-.2zM.2 5q-.1.3.1.5h.1l-.1-.3zM77 42.4h-.2.1M75.8 41l-.2-.1v.1l.2.1zm-1-1.3h-.3zm1.6 2.6s-.3-.1-.2 0q0 .2.3.1zm1.2 1.2-.2.1h.3zm-1.9-2.1h-.1zm.4 1.4s-.3.2 0 .3l.2-.3zm-.8-1.5H75l.2.1zm2.4 2.6v.2h.1zm-1.8-1.7h-.2zm.2.4-.2-.1zv-.1m1 1.5-.3-.1h-.2l-.4-.1-.7-.2H75q0 .5.7.3l.6.1.2.1.2.1-.1.2q-.2 0 0 .1l.4.1.1-.1-.1-.2h.2l.2-.1h.2V44zm-1.9-2.3v.2h.2zM.1 6.3v.2q.2 0 0 0zm76 37 .1.3h.2q0-.4-.3-.3m-.5-.2q-.3 0-.5.2-.1.2.2 0zm-.6-.9-.1.2q0 .1.1 0zm-.5-.2q-.2 0 0 .2l.2-.2zM0 6.8l.1.2h.3l.1-.2zm76 37.7q-.2 0 0 .2.2.1.1 0 0-.2-.2-.2M74.6 43l-.1.2zm-1-.4q-.2 0-.3-.2l-.2-.2q-.3 0-.2.2.2.5.7.4h.2l.1.3q.3 0 .2-.2v-.2zm2.5 2.4-.2.1zq.1-.1 0-.1m-.8-.6s-.4 0-.3.2h.6zm.4.9q0 .1.1 0m-.2.3h-.3l.1.1zM3.5 8.6h-.1v.2zm72.5 38h-.8l-.1-.1q-.1 0 0 .2c.1.2.7.2.9 0q.2 0 0 0Zm-1.7-1.1-.2-.1q-.1 0 0 0l.2.2zm.1.8h-.3l.2.1zM5.4 9.6l.2.3.8.4q.5.1.8.4.2.3.4.2l-.3-.3-.4-.2-.2-.1-.2-.1L6 10l-.4-.3q-.2-.2-.3-.1M73 45l-.2-.1q0-.2-.2-.1l.1.2.3.1zm-1.4-1.6v.1l.1.1q.1-.2-.1-.2m1.5 2.1h-.3l-.2-.1q-.1-.2-.2 0c0 .1.5.3.6.2m-1.8-2.4H71q.1.3.2.1zM1.3 10.3l-.2.1H.9q.2.5.7.7l.2.2.4.4c.1 0 1 .6.7.7s-1-.8-1.2-1c-.3-.2-1-.7-.8-.4l.3.4.3.3s.3.1 0 .2 0 .2 0 .4l.4.3H2v.4l.4.2.3.3.3.3.2.1.2.1q.2 0 .3.2l.2.2.1.2.3.2h.2v.2l1 .9q.8.3 1 .7l.2.2h.1q.2 0 .3.2l.5.2.3.2.2.1h-.4l.2.1h.4v.3q0 .3.3.4.3 0 .5.4.2.3.5.4c.3 0 0-.2 0-.3l-.2-.2-.2-.2.4.1q.3 0 .3.3t.2.2.5.3l.7.2.4.2h-.3l.4.2.6.2 1 .6c.4.1.2 0 .3.2q.1.2.4.3l1 .3 2.4 1.4h.3-.2q-.2-.2-.1-.3v-.2h-.1q-.5.2-.8-.2c-.5-.4 0-.1.3 0l.1-.1-.1-.3q-.3 0-.5-.3-.3-.4-.6-.3l-.5-.2q-.3-.4-.7-.3c-.4 0 0 .3-.3.2v-.2q.3-.2 0-.3v-.1q.2 0 0-.1-.5 0-.9-.4v-.2q.1-.1 0-.1-.5 0-.9-.3l-.2-.1q-1-.5-1.9-1.3 0-.1-.1 0l-.1-.2-.2-.1-.2-.1-.3-.2-.1-.1-.1-.3H9l-.1-.2v-.2h.3l.2.1q.1.2.2 0-.1-.3-.5-.4c-.4-.1-.2-.2-.3-.3v-.1l-.1.1h-.1q0-.2-.2-.2v-.3l-.2-.3-.4-.1L6 13.5 5 13c-.4-.1-.1 0-.2 0l-.1.2V13l-.2-.1c-.2 0 0 .2-.2-.1-.1-.3-.7-.6-1-.8h-.1v.1l-.2-.2q0-.2-.4-.3t-.4-.3q0-.3-.1-.2H2q-.4 0-.6-.3c-.2-.3.1 0 .2 0h.1l-.2-.1-.2-.2m.6 1.7q.3 0 .4.4 0 .1-.1 0H2v-.2q-.2-.1 0-.2M8.5 16l.2.2h-.2zm.2 2 .1.1v.1h-.2zm3.7 1.5v.1l.2.3q.2 0 0 0t-.3-.3Zm1 .6q.2 0 .1.2v.1h.4v.1q.1.2.2 0 .2 0 0 .2-.4 0-.6-.2-.3-.1-.4-.4c0-.3.3 0 .4 0m1.5.9v.1h-.1zm.3.2H15l-.2.1.3-.1m.5.4v.2zm56.7 24.5v.1m-.7-.3q-.2.1 0 .2h.3zm-68-34.3v.1h.1zh-.2m68.7 35.1q.2 0 0 0M8 11.2q0 .2.2.1.2 0 0-.1-.3-.2-.2 0m62.4 34.2-.2.1q.2.2.4 0c.2-.1-.2 0-.2 0m-1 .2H69c.4.1 0 .2 0 .2h-.5q0 .2.2 0 .2-.1.2.2.3 0 .4-.2t-.1-.2Zm-.6 1h-.5c-.1-.2-.6-.3-.6 0q.2.2.6.1l.3.1.2.1h.3q.2.2.3 0c0-.2-.5-.3-.6-.3m-63-30.3.1.1v.2H6q.2.1.3-.1 0-.1 0 0l-.2-.1zm4.2.7h-.2l.1.2h.2q.3-.1.5.2l.3.2h.2v-.1H11l-.2-.2-.4-.3q-.3-.4-.4 0m-3.7-.2v.1zm5.4 1.3v.1l.3.1zm.8.3-.1.2zm2 1.2h-.2q0 .3.2.1.1-.1 0-.1m-4 0q.2.5.5.5c.2 0-.2-.2-.2-.3s-.4-.3-.4-.1m.9.8s.7.5.9.4-.4-.3-.5-.3-.7-.5-.5-.1m5.4.9.2.2v-.1zm1.6 1.3q0 .2.2.2h.1q0-.3-.3-.2m-.6-.1h-.2l.1.1zm-3.5-.3q.2 0 0 0m5.4 1v.2h.1q.2 0 0 0zm-4.4-.4q.1.4.5.3.1-.2-.2-.2s-.4-.3-.3 0m4.9.7v.2s.4.2.3 0zm.8.4.3.3q.1.1.2 0l-.2-.2zm-4.9-.5q.1.3.5.2l-.2-.2q-.2-.2-.3 0m4.3.8H20zm1.7.5q-.2.2-.4 0-.2 0 0 0-.2.2.1.3.5.1.6-.2 0-.2-.3 0m-1.4-.3h-.2zl.4.2.3.2-.3-.2zm2 .4v.2zm-5-.7-.2.1v.1h.1zm5.8 1.1H23zq.2 0 .3.3.1.4.6.4c.2.1 1 .8 1.3.4s-.8-.5-1-.5l-.1-.1-.2-.1H24l-.2-.3zm-.5.2.3.1q.1 0 0 0zm3.5.9v.2l.2-.2zm.6.2h.1l.1.2zm.3.4q-.3.3-.5 0c-.1 0-.7-.4-.3 0s1.2.7 1.7.9q.5 0 1 .4h.1q.2 0 0-.2l-.8-.4-.1-.1-.1-.2-.3.1q-.2 0-.2-.2l-.1-.2q-.2-.3-.5 0M26 27l-.2.1q0 .1.2 0 .1 0 0 0Zm23.3 13.6s-.3-.3-.3 0q.1.3.4.2zm-28.5-15-.3-.1.2.2q.4.2.7.1.3 0-.2-.1zm27.8 14v.2q.1.2.2 0zm-.3-.3h-.2l-.2-.2h-.3c-.1 0-.4-.4-.6-.4s-.2 0-.3-.2-.3-.2-.5-.2q-.2 0-.3-.2 0-.1-.1 0l-.5-.1c-.3 0 .2.2.4.3a6 6 0 0 0 2.4 1.2h.3q.1-.2-.1-.2m-24-12.7-.4.1h-.3v.4h.5q.4.2.4-.1v-.3q0-.2-.3 0Zm-.7-.3s-.4-.1-.4 0q.3.3.7.2c.1-.1-.3-.2-.3-.2m-1.3-.3h-.1v.2h.1zm.3.3c-.2.1.2.1.2.2h.3q-.2-.4-.5-.2m2.4 1h-.2zm15.8 7.4-.6-.3c-.3 0 0 0 0 0l-.1.2-.1.1q.2.3.5.1l.5.1q.3.3.4.2c.1-.1-.4-.3-.6-.4m-11-5.8h-.2zh.2zm-4.3-1.4q0 .2.2.1zm18.7 9.7-.4-.1s-.2-.4-.3-.1.7.5.8.5l.5.2c0-.3-.5-.5-.6-.5m-18.3-9.4.2.1 1.5.8c.6.3 1.7.9 2.4.9s-.3-.2-.5-.3L27 28.2q-.4-.4-1-.3m17 8.8v.1l.3.1h.1q0-.3-.3-.2M34 31v.2h.1zm-10.3-3.7h-.3l.2.2h.3zm-1 0q0 .3.3.2l.5.2h.1q0-.2-.2-.2t-.3-.2s-.4-.1-.4 0m20 9-.1.2h.1zm-1.3-.9-.1.2H41h.2zm-1.5-1h-.2v.1h.2m-2-1.1v.2zm-6-3-.1.2h.3zm-6.3-2.3q0 .3.2 0zm11.8 5 .1.1M37 33h-.3l-.1.3c0 .3.1 0 .2 0zv-.1m-5.6-2.7h-.1zm-5.6-2-.1.1h.2m.4.3h-.1v.1h.2zm-2-.5v.1h.2zm16 7.1v.2q.1-.1 0-.2m-2.9-1.7q0 .2.1 0M34.4 32l.3.3s.4.3.4 0-.5-.3-.7-.3m-.7-.3-.3-.1q-.1.2.2.2.3.2.3 0zm2 1q-.3-.2-.4 0h.2q.2 0 .2.2h.1zm-4.5-2v.2h.2zm-.3-.2h-.1v.1q.2 0 0-.1Zm-.7-.3H30v.2h.2zm-1-.3q-.2.1 0 .2h.3q0-.3-.3-.2m-3-1H26q0 .2.1 0m8.2 3.6c-.2.1.3.3.4.3 0 0 .4.2.3 0s-.5-.3-.7-.3m-.6-.4h-.1q0 .2.1 0m-2.8-1h-.1" style="fill:#5778fa"/></svg>