<svg xmlns="http://www.w3.org/2000/svg" viewBox="0 0 75.7 101.6"><path d="M63.6 89h.1l-.2-.2h.2v-.2h-.2l-.1-.1v.1h-.1l-.1-.1h.4l-.3-.2H63l-.3-.2-.2-.1-.5-.3-.3-.1h-.2s-.8-.2-.4-.2c.3 0 1.2.2 1.5.4q.4.3.8.2l-.2-.1-.2-.1-.2-.2-.2-.1q0-.2 0 0h.3l.3.2h.1l.2.1h.1v-.1l.4.1.2.1-.3-.2-1-.5q0-.2.2 0l.7.3h.2l-.2-.1-.2-.2-.7-.3-.2-.1h-.1l-.2-.2h-.2l-.3-.1-.4-.1q-.3 0-.1-.1h.3l.9.2.3.2.8.4.4.2h.2s-.4-.5-.6-.5q-.3 0-.4-.3h.3l.1-.1-.3-.2-.1-.1H63v.1q-.2 0-.2-.3t.3.1h.2-.1l-.1-.1h.3l.3.3h-.2.1q.1 0 0 .2h.1v.2q-.1.1-.2 0l.3.2.1.1.3.2v-.3h.1l.2.1-.1-.2h-.3q-.1.1-.2 0h-.1.1v-.4l.4.2.4.3h.1v-.1h-.2v-.1l-.2-.2-.5-.2-1.3-.7q-.2 0-.3-.2.2.1.2 0s-.6-.2-.7-.1h-.2V85h-.3l-.3-.1-.2-.1-.5-.1h-.1l-.1-.2h-.3q-.2 0-.1-.1 0-.2.2 0h.2l.4.2.3.1h.2l.3.2h.5l.3.1q.5 0 .8.3h.3l.2.2h.2l.6.4c.1 0 .7.5.6.3l-.7-.5-.8-.5-.8-.3-.7-.3h-.3l-.1-.1h-.3l-.2-.1h-.2l-.3-.2q-.1 0 0 0V84H60h.1-.2l-.2-.1h.6q0-.3.3-.2l.1.2h-.2l.2.1h.7v.1l.1.1h.2q-.1 0 0 0h.3l.2.1h-.6l.2.1h.3l.2.1.1.1q.2 0 0 0h.2v-.1h.5l.3.2.3.2h.2l.2.2h.1l.5.1q.2 0-.2-.2h-.2q-.7-.6-1.5-.8l-.2-.1-.5-.2h-.5l-.6-.3-.6-.2q0-.2.2 0t.3 0l.5.2.4.1h.2l.2.2h.1l.2-.2-.1.2.3.1h.2q.2 0 0 .1l.4.2h.3l.2.2h.1q0 .1.1 0l.2.1q.2.3.5.4h.1l-.3-.2-.2-.2.3.1.2.1v-.1l-.4-.2-.5-.3q-.4 0-.7-.4c-.3-.4 0 0 0-.1h-.3l-.2-.1-.1-.2h-.1l-.2-.2h-.9l.1-.2H61h.1q.2 0 0 0h-.2l-.1-.1h-.4l-.1-.1.2-.1H60l.1-.1q0-.1 0 0H60l-.2-.1h-.2l-.3-.2-.7-.3h-.2q0 .1-.1 0l-1.5-.4.3.1c.2 0 .8.2.7 0s-.8-.2-1-.2h-.3q-.1 0 0-.1l-.1-.1-.6-.2-1-.1-1.6-.3.6.2h.7q.3 0 .1.1c-.2.1-1 0-1.3-.2l-1.2-.3.8.1h.1l-.6-.2-.3-.1h-1.5q-.4 0-.2-.1l.2-.1h-.7c-.2 0 0-.1-.3-.2h-1.4l-.7-.2c-.3 0 0 0 0 0h.2l-.7-.2q-.7 0-1.3-.2h-.5q-.7 0-1.3-.3c-.6-.3.1 0-.3 0l-1.5-.2-2.6-.5-7-1.4-.5-.1-1.6-.5.2.2.3.1.6.2h-.6c-.2-.1-1.2-.4-.9-.4h.1q-.3 0-.1-.2t-.2 0l-.5-.2-.6-.2-.6-.2-.6-.3-2.2-1-1.4-.6-.5-.3 1 .7.9.4.3.2 2 .8c.2.2-.2 0-.4 0l-.7-.3c-.5-.2-1.5-.6-2.1-1l-.7-.4a19 19 0 0 1-4.1-3l-.6-.5-.7-.6-.4-.4-.4-.5-.7-1.2-.3-.5c0-.2-.5-.9-.7-1.2l-.4-.7q-.1-.2 0 .2l.3.6c0 .2-.1-.2-.2-.2l-.1-.2q0 .3 0 0l-.2-.3-.2-.3v-.6l-.2-.6-.4-.7-.2-.5q0-.1 0 0 .1.4.2.2l-.2-.6.2.4.4.8.2.2v-.2q0-.2-.2-.3l-.3-.6q-.2-.9-.5-1-.1.1-.2-.4v-.9l-.2-1.3V58q0-.4-.2-.3l-.1.4v-1.4s0 .6.2.2q.2-.7.2-1.5a13 13 0 0 1 1-3.1l.2-.2.1-.5.7-1.4.8-1.6.9-1.6 1-1.3.1-.3.3-.4.1-.4.3-.3c.2-.3.9-1.3 1.1-1.9l.3-.5.1-.3.5-.7-1 2-.2.4-.3.3-.6 1q0 .4-.3.5v.2l-.3.4q-.4.3-.4.7l.2-.1q.1 0 0 0l-.1.3.2-.4.9-1.3c0-.4-.3.3-.4.3l.3-.4 1.4-2.6.7-1.4a28 28 0 0 0 2-4.8 35 35 0 0 0 1.6-5.7l.2-.7.1-1.3q.8-5-.6-10.3l-.3-1.2-.4-1c-.2-.6-.1-.3 0-.2q0 .3.2.4l.1.4.2.7.3 1 .4 1.5.3 1.6v.5l.1.4v1l.1 1.5v1.6c0 .5-.1 2 0-.2a19 19 0 0 0-.3-6.2l-.8-2.8-.6-1.6-.9-2c-.8-1.6-2.7-4.4-4.9-6.4A30 30 0 0 0 7.7.4h-.4L7 .2h-.1L6.7 0H5.5q-.2 0 0 0t.1.2H6v.3h.2q0 .2.2.2l.5.2.2.1h.3l2 1 1.2.6.4.2.7.4.6.3-.4-.3-.3-.2-.6-.4.7.3 1 .6.4.3-.3-.1q-.5-.3 0 .2c.5.5 1.7 1.1 2.1 1.5l.8.5 1.1 1L19 9.2l.7.9.8 1 .3.4.4.6.3.5.3.6.5.8.1.3.2.5.4.8.5 1.2.4 1.2.2.8.2.9.2.7v.5l.1.3v.2l.1.7v.7q0 .3.2.2v2.5l-.3 2.6-.1 1c-.1.1-.2.6 0-.4l.3-3.6-.2-2.8a23 23 0 0 0-2.6-8.6 27 27 0 0 0-8.7-9.4 36 36 0 0 0-4.7-2.6l-1.2-.5L7 1 6.4.8Q6 .8 5.9.6V.5h-.1l-.2.2.6.2-.4.1H5q0 .2.2.3h.2v.1H5q-.1 0 0-.1L4.5 1v.2q-.2.1 0 .2h-.2v-.2q-.2 0 0 0V1h-.1V.8H4v.4l.2.1h-.4Q3.7 1 3.5 1h.2-.1l-.1.2h.2q0 .2.3.1v.2h-.6.3l.1.2h.3l.1.2q-.1.3-.4.1h-.1l-.2-.1-.2-.1v-.1h-.1v.1l.2.1h-.5.1-.3l-.2-.2q-.2 0 0 .1l.3.2q.3 0 .5.3c.2.3 0 0 0 0l.1.3.2.2V3h-.3v-.2h-.4.1v-.2l-.4.1v.1h-.2v.1l.2.1H3v.2l.3.2h-.1L3 3.2l-.3-.1h-.1v.1h-.3v.1l.2.2q.2 0 .2.2l.1.2H3l.3.2q.3 0 .5.3h-.3v-.1Q3.1 4 2.8 4h-.3l-.1-.1h-.1L2 4l-.2.2h-.1q-.2 0 0 0 0 .2.4.3h-.3.1v.3h-.5.1l.2.2h-.3l-.1-.1h-.1L1 4.6h.1v-.3h.6-.2l-.1-.1H1q-.2 0 0 0V4l-.2-.2q-.2-.1 0-.2H1q0-.1.1 0h.5-.2v-.2l-.2-.1H1l-.1-.1H.8v.2H.6l-.2-.3H.3v.2h.2v.2L.3 4l.2.1q-.2.1 0 .2l.3.2.1.2-.2-.1v-.1.2H.4l.1.1.1.1q.3 0 .2.2h.1l.2.2.3.3.5.3q.3 0 .3.2 0 .1-.1 0s-.3-.2-.1 0l.2.1 1.4.8.5.2.7.3a32 32 0 0 1 7.6 5q1.6 1.4 2.7 3 2.4 3.5 2.7 7.8c.3 4.3-.2 6-1.2 9L15 36.8q-1 2-2.3 4l-3.2 5.5a28 28 0 0 0-2.7 6.4 20 20 0 0 0 .8 12.6c.8 2 .4 1.3.9 1.9l-.3-.8-.6-1.3-.4-1.2-.6-2q-.2-1.6 0-.2l.5 1.3q0 .3.2.5v.3q0 .7.4 1.5l.6 1.3q.5.6.5.8l.2.6q.1.4.2.3l.3.4.4.7-.2-.2c-.2-.3 0 .1 0 .2l-.1-.3-.4-.6c-.2-.2-.5-.9-.1 0 .4.7.6 1.2 1.4 2.2 1.2 1.8 3.2 4 5 5.5a41 41 0 0 0 17.5 8c6.1 1.3 12 1.8 17.6 2.7l5.8 1.1 1 .2 2 .5.4.1h.3q0 .1 0 0h1l.2.1.4.1H63l-.2-.2-.3-.3h.5l.2.1.2.1h.1l.1.2v-.1zm-1.3-.5h-.5v-.1h-.4l-.4-.1-.3-.1h.8l.4.1h.2v.2zM.4 4l.2.1q0 .1 0 0zM2 5.2V5m0 0h.1m61.1 82.5H63v-.1zM1.9 4.2v.1m61 83.1h-.2zm-3.1.7h-.4zm2.9-1h-.2zm-1 .3q-.1 0 0-.1h.1zm-4.9.7s-.4-.1-.2-.2h.3v.1m5.4-1H62zm.1 0v-.2zm-.9.1h-.3zm-7.4.2q-.2 0 0 0h.5zm9-.8v-.1zm-1.7.4-.3-.1q.1-.1.4 0h.3zm-.7 0h-.4zq.2 0 0 .1m-8.5 0-.5-.1-1.1-.2c-.2 0-1.4-.2-.9-.2l2.5.4q.8.2 0 0Zm10.6-.7h-.1l-.1-.1zM2.9 3.7H3zm57.7 83h.2zM2.8 3.3l.2.1q.2 0 0 0zm59.5 82.8L62 86zm.7-.3-.2-.1zm-3.4.9h.1zM2.6 2.9h.2zm56.6 83.7v.1h-.1Zm1.4-.5h-.2zh.3zM48 85.9h-.5l-.2-.1h.5zm5.9.3-.6-.1-.3-.1h.6zm-8-.6h-.6l-.3-.1h.6zm6.5.3-.5-.1zm-10.2-.5-.3-.1zm2.2 0h.2zM3.7 3h.2zm2.5 2.4h.2l.1.1zm44.4 80h-.1.4zm6.9.5q0-.1.1 0zM3 2.2V2m.4.3.3.2c.2.2-.2 0-.3 0s-.2-.2 0-.2m4 3.7q-.2 0 0 0l.2.1zm40.7 79-2.3-.3-3.8-.5-1.8-.3-2-.4-.6-.2H37c.1 0 .8.1 0 0l-2.8-.4-.7-.2-.7-.2q.6-.2 1.9.3l1.8.3 1.5.2 1 .2h.5l.6.2 1.4.2c0 .2-.6 0-.7 0l-.7-.1 1.5.3h1l.3.1c.3.2 1.3.3 1.8.3l2 .2.6.1c.4 0 2.2.2 2.3.4s-1 0-1.6-.2m-9-1.3-.2-.2h-.2zm-2.6-.5-.7-.2h-.4.5zM35 83l-.9-.2.4.1c.1 0 .6.2.5 0m-1.5-.3q.2 0 0 0h-.3zm26 3h-.2zm-22.7-1.2-.3-.1h.6c.3.2-.2.1-.3 0M8.5 6.7q.3 0 .5.3c.2.3 0 0-.1 0zm48.2 79-1-.2c-.2-.2.3 0 .5 0l.6.2zM9.6 7.3l.4.3c-.1 0-.6-.4-.3-.3m45.7 78.1-.5-.1h.2zm2.4.1h.1q0 .2-.1 0M34.2 84c-.9-.1-3.1-.7-3.8-.9l1.6.4 1.6.3.5.1zm25.5 1.3h-.1l-.1-.1zl.1.1M4.3 2.8v-.1m58.2 81.7h-.2.1zM9.7 45.9l.2-.2-.3.4zM13 9.8q-.2-.2 0-.1l.5.4q.2.2 0 .1zM9 47.5l.1-.2-.2.5zm-.8 1.8q.1-.5 0 0l-.2.4zm-1.5 4.5.3-1.3.4-1.3.4-1-.2.8-.7 2.4-.1.8c-.1.5-.2.6-.2 1.3a24 24 0 0 0 .2 6c0 .5-.2-.6-.2-.7l-.2-.7.1.3v-.7l-.1-1.3v-.8.7-1.5c0-.6.1-2.2.3-3m22.1 28.8h-.1.4zm30.4 2.5q0-.1 0 0m-31.3-2.8h-.2.4zm2.1.5h.3s.5.1.4.2zm33.2 1.3H63m-34.7-1.7-.3-.2.8.3zm-13.7-71 .2.2zm1.4 24-.1.3zm-2.5 4.8-.1.2v-.2M55 84.8l-.9-.2.5.1zm-40-73 .3.3.2.3c-.2 0-.5-.5-.5-.6m-.4 26.6c.2-.1-.3.7-.6 1.3l-1.8 3.1-1.3 2.4-.6 1-.5 1q-.1-.2.2-.7l1.4-2.5c.2-.5 0-.4.3-.6s.1 0 .3-.4l.8-1.3 1.1-2zM7.2 52l.1-.3zl-.1.3zm27.4 31.5-1.3-.3c-1-.3.4 0 .6 0 .1.1 1 .3.7.3M17.5 32.4l.1-.4v.4l-.2.4zm6.4 48.4c-.3-.2-1-.4-1.1-.6l.6.3.8.3q.7.1 1.3.5c.3.1 1.5.4 1.2.5s-2.2-.7-2.8-1m-7.3-46.3-.1.3zm-1.4 3.2v.1q0 .1 0 0zm-6.5 11c0-.2.3-.7.3-.5l-.6 1.2zm40.7 35.6h.7zm3.6.2-1-.1-.4-.1-.6-.1q-.3 0-.1-.1h.4l.3.1h.5l.6.2zm5 .4h-.2zM17.2 33.4l-.1.2zm-1 2.1.2-.1-.2.4zm-.5 1.5.3-.7c0 .2-.4 1.3-.6 1.4zM4 1.7h.2v.2zm.2.3h.3zh.3l-.1.2zM15 38.5l-.1.4q-.1.2-.1 0zm16.6 44.3h.4s.5.1.4.2zM48 84q-.5 0-.4-.1l1.1.1c0 .2-.6 0-.7 0m14.6-.2h-.1zm-10 .4h-.1.4zM14 40l-.2.5-.2.3zM7 61.8v-.2l.3.6v.5-.4q0-.2-.2-.2zM8.2 66v-.2zv.2zM47 84l-.5-.1-.2-.1h-.8l-.6-.1h-.4l-1-.2-9.2-1.6q-.2 0 0 0l.6.1-.3-.1-.3-.1-.2-.1-.1-.2h.9l.6.2h.4-.5l-.7-.3 1 .1 1.3.4h-.6c0 .1.4.2.2.2l.1.1.3.1h.3l.9.2q1.3 0 2.2.4c.5.1.2 0 .4 0l1.8.3h.6l.2.1h.4l.6.1.6.1 2.2.3c.5.2 0 0 0 0q-.2 0 0 .1zm-5.1-.8h.2zh-.3zM36 82l-.4-.2h-.3q0-.2-.3-.2l.3.3zM15.9 37c-.2.8-1 2.2-1.6 3.1l-.9 1.6c-.2.4-.7 1.3-.2.2l2.2-4c.2-.4.7-1.8.5-1M7.3 53q0-.5.2-.5zl-.2.4zm.3 11v-.1zm1.9-16.3.2-.1-.2.3-.1.2zM9 67.2c0-.2.2.2.3.3l.2.5zm10.7 11.1q-.3-.1 0 0l1.6.9c-.2-.1-1.3-.6-1.6-.9m8.6 3.5-2.4-.9-2.5-1L22 79l-1.9-1c-.4-.4-1.3-.9-1.5-1-.3-.3-1.4-1-.9-.8l1.2.8 1.4 1 1.2.7 1.4.7c1.8 1 4.4 1.8 6 2.4 1.4.6 0 .1-.7 0Zm31.3 2.6h-.2v-.1h-.1v-.1zc.2.2-.1 0-.1 0m-48-39.8-.2.3-.2.5q0 .3-.4.6l.1-.4zm-3.6 7 .3-.9c.1-.3 0 .2 0 .4l-.4.9v.1zM51 84h-.1zh.3zm5.8.5h-.1.3zM12.4 43l.1-.1zh-.2zm-5 10 .1-.2-.1.6zm9.8 23.6q-.3-.1-.5-.4-.4-.2-.1-.2l.5.5q.1.1 0 .1m36.6 7.5h-.1.3zM12 44l.1-.2q0 .4-.3.4zm-2 3.1.3-.5zs-.3.6-.4.5zm7.4 29.6-1-.7 1.1.7 1.2.9c.1.2-1-.7-1.3-.9M50 83.9h-.3zh.2zm8.4.4s-.3 0-.2-.1l.4.1zm-47-39.5-.2.3zM57 84.3h-.4l-.3-.1h.5zm1.3 0h-.1m-26.1-1.8-2.5-.7-1-.3-.8-.2h.3L28 81l-.4-.1h-.3.2q.3 0 .1.1l-.9-.3-1.5-.6-1-.5q-.3-.2 0 0l1.5.6h.3l.5.2.4.1c1 .5 3.3 1.2 4 1.3.9.2.7 0 .9.2s-.3 0-.6 0c-.5-.1.3.2.4.2zm-1.8-.5h.2zh-.2zm-.7-.3q.2 0 0 0l-.5-.2q-.6 0 0 0zM57 84.2l-2.2-.5-1-.2-.6-.1H53l-.5-.1H52q-.1-.1.1 0 .1 0 0-.1H52l-.2-.1h-.4l-.7-.2-.7-.1-2-.3-.7-.2q-.7 0-.3-.1.3 0 0-.1t-.4 0h.1-.3l-2-.3H43l-.4-.2h-.5l-1.4-.2-.7-.2-1-.2-.7-.1-.9-.1-.8-.2h-.3l-.4-.1-.8-.2h-.7l-.4-.1h-.3q0-.2-.2-.2-.6 0-1-.2-.7-.3-1.3-.3L30 79l-1.6-.6-.8-.3-1.4-.6-1.2-.4-.8-.4c-.6-.2-1.5-.8-1.9-1l-.2-.3h-.3L21 75a27 27 0 0 1-4.4-3.8l-1.2-1.5-1-1c-.6-.6.8 1.2 1 1.3l.4.5q0 .2.2.3l.4.5.4.4 2 1.7.4.5.2.2.7.5.7.5h.3q.1.1 0 .2l.2.2q0 .1 0 0l-.4-.1-.4-.2-.5-.4-.3-.2q0 .2.2.3l1 .6 1 .6c.7.5-.1 0-.5 0l-.5-.4.5.3 1 .5q.2 0 .3.2l.5.2.7.3 1 .5-.8-.5-1.7-.9-.5-.3-.3-.3.3.1.2.1-.1-.1.6.2.8.5q.1.2.5.3l.9.5.2.2c.2.2 0 0 .3 0l1.3.6 1.5.6 2.4.7 1.5.4 1.4.4.6.1.6.1h.3l.2.1h.3l.5.2.6.1.4.1q.2 0 0 0t0 .2h-.2l-.4-.2h-.8.2q.3 0 0-.1h-.4l-.5-.1-.2-.2H34c-.2-.2-1.2-.4-1.5-.5q-.5 0-.2.1t-.2 0h-.5l1.3.3-.7-.1-1-.3c-.5-.2-1.7-.6-2-.5l1 .3 1.4.4 1.3.4 1 .3.7.2-.2-.1.7.1h.7l1 .1q.3 0 0 .1l-.1.1.4.1h.2c-.5.1-.7.1-1.6 0-1.2-.4-3.5-1-4.7-1.2q-1.4-.3-2.4-.8l-2.2-.8c-.7-.2 0 0 0 .1l.6.2h-.4l-.3-.2h-.2c-.2 0 0 0-.3-.2l-2.1-1-1-.4h-.4q-.5-.2 0 0 .3.2.2 0l.1.2-.9-.3-.4-.2c.1.2.8.5 1.1.6l1.4.7.4.2.2.1.6.3.9.4q.4 0 .7.3l.8.3 3.1 1c.6.2 0 .1 0 0H30l.7.2q.3 0 .3.2t-.6-.2l-.9-.3-1.1-.4h-.5l-.6-.3-1.8-.7-4-2-1.5-1-1.4-1-1-.7c-.2-.3 0 0 .1 0h.2l-.5-.3-.7-.6-.4-.4.5.3.7.6.6.4 1 .6 1.7 1q.8.7 1.2.6h.3q.4.2.6.5c.3 0 0-.1 0-.2l.4.2.8.4.2.2q.3.1 0-.1l-.7-.5-1.2-.5-.6-.3c-.2 0 .1.2-.2.1q-.5-.1-.9-.5l-1.1-.7-.6-.4-.7-.6-.6-.3h-.2q-.2 0-.2-.3v-.1l-.2-.2q-.3 0-.6-.4l-.6-.7q-.2-.3-.3-.2l.4.3q.5.3.1 0l-.6-.6-.6-.7-.4-.4-1.2-1.5-1.1-1.8-1.2-2-.4-.8-.1-.6q0-.4 0 0l-.2-.2v-.5l-.3-.5-.2-.8v-.6l-.3-1.2-.2-2q0-1.1.2-2l.1-.3v-.2q0-.2 0 0v-.4l.1-.6c0-.7.4-2.2.7-2.7s0 .4.3 0L11 51l.5-1.3.3-.6v-.3l.4-.2.3-.5.1-.4v-.1l.1-.2.5-.7.2-.3c-.2 0 .3-.8.4-1l.3-.4-.2.3q0 .2 0 0 .2 0 .1.1l-.2.3q-.3 0-.3.4h.1l-.1.4.2-.3 1.1-1.8-.1.3-.6 1-.7 1.2-.2.4v-.1q-.1-.1-.5.7c-.1.3-.5 1.2-.8 1.4l-.3.3v.5l.5-.8.5-1-.2.6-.2.5v.3l-.2.4-.2.5.3-.5.4-.6.3-.7.2-.5-.3.4-.3.7c-.1-.1.2-.7.3-.9l.2-.3c-.2 0 .3-.8.5-1l.5-1 .8-1.3c.3-.3 0 .2-.2.4l-.3.6q0 .3-.4.6l-.4 1.3-.3.6c0 .3.4-.6.7-1l.8-1.3.8-1.5 1-1.5c.2-.5 1-1.7 1-2l1.1-2c.3-.3 0 .4-.2.7l-.6 1.2-.7 1.2-.4.8-.1.3q-.2 0-.3.3l-.2.2v.2l-.1.4q-.2.5.2-.2l.5-.8.6-1 1.2-2.2.2-.4-.3.7-.2.6.2-.3.2-.3.6-1.2v-.4l.2-.2.3-.5.1-.3s-.1.4 0 .2l.4-1-.1.1.1-.4.2-.4V36v.4c0-.3.1 0 .3-.5l1-3v-.4l.2-.8.4-1.4.2-1.3.1-.3v1l-.3 1-.3 1v.7q-.4.8-.5 1.5l-.1.6-.2.6-.3.7-.2.7-.1.4v.1l.1-.3q.1-.2.1 0l.2-.4q.2.1-.2.9c-.4.8-.2.4-.2.7q-.1.6-.5 1.4l-.3.6q-.2.8-.6 1.2l-.3.2.3-.5.4-.7-.2.2-.9 1.6c-.4.8-.5.8-.7.9l-.3.3v.2l-.5.7-.3.4q0-.2-.2.2l-.2.6-.4.7-.3.7q0 .2-.2.3l-.4.4v.1h.2q0-.2.2-.2l.4-.7.1-.3q-.2 0 .1-.5l.4-.7.2-.3q0 .2.2 0l.5-.9c.1-.3.4-.8.5-.6s-.5 1-.7 1.3l-.5 1c.2-.2.7-1.1 1-1.3l-.2.2v.3l.4-.6-.2.3-.5 1-.3.5-.2.4v.2l-.5.7-.5 1-.5.8-.2.6v-.2q0-.2-.2.1l-.5.8-.2.8-.1.5q-.2.3-.2.1v.2l-.4.7q0 .2.2-.1.3-.5 0-.1l-.3.8-.3 1.1-.2.1-.1.4q0 .3-.2.3-.1 0 0 .4l-.1.7q-.2.5 0 1v-.5l.1-.9.1-.3q0 .3.1.2l.1-.4v.1-.5c.1.3.2-.3.3-.5v-.2l.3-.8.3-.9.2-.6q0-.2.2-.3l.1-.3.5-1q.5-.7.7-1.5v-.3h.2l.2-.4 1.1-1.7.5-.7 2.2-3.8.3-.5q.3-.2.2-.5l.2-.3.4-.7.3-.6-.3.4.1-.4.6-1.2.2-.3q.2-.4 0-.2c-.2.2 0-.3.1-.4l.2-.3q-.2.2 0 .1l.4-.9q.1-.6.4-1v-.3l.2-.6.3-1q0-.4.1-.2 0 .3 0 0 .2-.3.1-.4v-.2l.1-.2.2-.6v.1l-.2.4.1-.5.1-.6.2-.6.1-.5v.3l.1-.4-.7 3.4-.1.3q-.1-.2-.2.3v.4q-.1.6-.5 1.4l-1.2 3.2-.3.5q0 .3 0 0v.3l-.2.2v.1l-.1.3-.2.5-.4.7-1.8 3.2L16 48a28 28 0 0 0-2.8 6l-.5 2.5q-.2 3.2.8 6l.6 1.5.6 1.3.4.7c0 .3-.1 0 0 .2l.1.1.1.3.6.8q.2 0 .4.3l.1.2.3.5q.4.4.4.7l.5.5.7.6-.2-.2s-.3-.3-.1-.2l.4.4.5.4.2.3.3.3.3.3q.1.2.4.3t.4.3l.1.3.3.1-.1-.1-.2-.1q.2 0 .4.3.1.3.6.3l.8.6c.2.1 1 .5.6.5s.3.2.5.3l.3.3.3.3.4.1-.4-.2-.1-.1q0-.2.3 0l1 .3h-.5l.4.2h.7q.3 0 .2.3c0 .3.2 0 .3.1l.2.2h-.2q-.2 0 0 0l.3.2.5.2.6.2 1.6.5h.2l-.3-.1q-.6-.1-1-.4l-.4-.1c-.2 0-.9-.3-.7-.4l.4.2.7.2.7.2.3.1 1 .4.6.2.7.2.4.2h.5l.4.1q.4.3 1 .3h.4l.4.1h.5l.7.2.6.1.6.1.6.1.3.1c.2.1-.1 0 .2 0l1.7.4.8.2.7.1.7.1q.3.1 0 .1l.2.2h.5q1.2 0 2.5.3l1 .1.6.1.5.1h.8q.3.3.6.2l.7.2h.4l.4.1h.3l.8.2 1 .2.5.1.6.1 1 .2.8.2.6.2q.3.2.5 0l1.7.5v.1q-.2 0 0 .1h.7v.1h-.5q.3 0 .3.2t.2 0l.2.1v.2q0-.1-.1 0h-.1l-.6-.3h-.4l-.2-.2-.6-.1-1-.3-.9-.2h-.8l-.4-.2h-.6l-.5-.1-1-.2-2.2-.4-.4-.1-2.5-.5-.7-.1-1.2-.2H44l-.1-.1-.5-.1H43l-.7-.2h-.6q-.4-.1-.3-.3.3-.2.2 0-.2.2-.6 0l-.7-.2h-.6.5l-3.3-.5-5.7-1.1-.6-.2-.5-.1-.7-.3-5.2-2.1c-.4-.3.4.1.2 0l-.5-.3q-.9-.3-1.5-.7l-.7-.4-.3-.2-.7-.6-.7-.5-.5-.5-1.8-1.7-1.2-1.4-1-1.2c-.5-.2.8 1.4 1 1.5l.3.4.2.3 1.2 1.1.4.3v.2l.1.1.2.1 1.1 1 .6.4.8.6 1.4 1 1.3.7 3.7 1.6q.6.1 1.1.4t.9.3l.4.2h.4l.5.2q.5 0 .2.1-.5 0-1.3-.3h-.2q-.2-.3-.8-.3l-1-.3h.2s.4.2.3 0c-.2 0-.9-.2-1-.1l.8.3.7.4.8.2.7.2.5.2 4.5 1 1.2.2 1.1.2 1.9.3h.5c.2.1 0 .2.2.2s.3 0 .1-.1l-.9-.3h-1L38 80l-1-.2-.8-.2H36l-.7-.2-.8-.2H34l-1.6-.4q-.7 0-.8-.3h.3v.1h.4l.6.1.9.2.7.1.5.1.6.2h.4l1.4.3 1.3.2.9.1 2.9.6h.5l1 .2 1.2.2.7.1 1.2.3 3.7.8h.5l.2.2.1.2h.7q.5.1 0 .2l-.7-.2h-1.4q-.6-.1-.2 0l.5.1.6.1.6.2h.7l.4-.1.1-.2.8.2.9.2h.6l.3.1q.2 0 .3.2l.2.1h1l.5.2.4.2h.3l.2.1.1.1h-.1l-1-.3h-.5q-.4 0 0 0h-.3c-.3 0-1.5-.3-1.2 0s1.4.1 1.6.1h.4q.2 0 0 .2h.2l.3.2v.1h-.1zm-2-.7q.2 0 0-.1l-.9-.3-.5-.1h-.5.5v.2h-.2c-.1 0-.7-.2-.6 0s.5 0 .7 0l.9.3zm-.2-.2-.2-.1h-.1zm-6.1-.9h.2q.2-.1-.3-.2h-1.1l.6.1zm1.5-.2q.2 0-.1-.3h-1l-.1-.1h-.5l-1.7-.4h-.7l-1.1-.3-1-.2h-.6l-.7-.2H42l-.6-.2h-.5q-.2 0 .3.2h.6l.4.2h.6l.8.2h.4l.2.1.4.1h.5l1 .2.9.2h.9l.4.2.6.3h.1c-.1 0-.6-.2-.3-.2q.5 0 .9.2t.6 0m-2.5 0q.3 0 0-.1h-.2l-.3-.2H47l.2.1h.4zm-1.8-.3s0-.2-.2-.1h-1.2.4l.6.1zm-20.7-2.8.3.1-.7-.2zm28.3 3h.2zh-.1zm-9-.4v-.1l-.6-.2h-.5l.5.1.2.1h.4m1.1 0q.2 0 0-.2 0-.2-.3 0 .2-.1.3.1Zm7.1.3q.1 0 0 0l-.3-.2q-.1 0 0 0zm-33.8-6.5.4.3.5.3q.3 0 0 0l-.6-.5-.7-.5-.2-.1.2.3zm1.5 1h.3l-.2-.1-.2-.1zM40.1 81q.2 0 0 0H40zm1.3 0h.5l-.4-.1h-1q.5.3.9.2Zm12.8.7h.2zm-26.1-2.6H28l-.6-.3.2.1zm3.2.7q-.2-.2-.8-.3-.5 0 0 .2.8.3.8 0m8.7 1q-.2-.3-.5-.2zm-13.3-2.2-.5-.3-.6-.3.5.2.9.3q.3 0 .6.3l1.4.3-.5-.2q-.4 0-.7-.2l-.5-.2-.7-.3-.5-.3c-.3-.1 0 0 0 .1h-.2l-.6-.2-.4-.1h-.3l.5.2q.2 0 .3.2l.4.2c.2.2.8.3.9.3m12 1.9h.6l-1.3-.3-1.4-.2c-.3 0 .2.1.4.2h.7l.4.1h.1q-.1 0 0 .1.4.1.4 0m10 .5h.2zh-.2zm-28.2-5.3q.2.2.3.1l-.2-.2zq0-.2-.4-.4t-.7-.5l-.6-.4-.4-.3-.3-.2 1.3 1 .1.1-.4-.2c-.4-.2.3.3.5.5zM36.1 80l-.4-.2-.4-.1-.6-.1.2.1.8.2zm-26-17.5.2.8.2.5q.2.2 0 0l-.2-.9c0-.3.1 0 0-.4l-.4-1.1q-.3-1 0-1.5v-.5q-.1-.3-.2.2c0 .2-.2-.5-.1-.8l-.1-.8v.4l.3 3.2c0 .6 0 .5.2 1Zm7.5 11q0 .1.1 0l-.3-.2q-.1-.2-.1 0zM13.7 70l.2.2zM24 77.4h.2l-.5-.2zm23 3.4q.2 0 0 0h-.2zM11.2 65.5l.1.2zl-.2-.3zm27.2 14.8q.2 0 0 0h-.3zM10 54.4v.7l.2-.6v-.3q0 .2-.1 0zm6.6 18.2.4.3zL16 72q0-.2-.2-.2l-.3-.2-.2-.3-.1-.2c-.3-.1.2.4.4.6zm1 .9.2.2zl-.3-.2zM34 79.8l-.1-.1-.6-.2q-.5 0 .2.2zM10.7 64v-.2l-.1-.3zm.4 1q0 .2.1.1zq0-.1-.1 0m2.6 4.4c.3.3 0-.1 0-.2q-.2-.3-.3-.2zM12 66.7l.4.7zl-.4-.7c-.2-.2.3.7.3.8m2.6 3.8.2.1.2.2q.3.2.2 0l-.3-.3q-.2-.1-.3-.4-.4-.8-1-1.2-.2-.3 0 .1l.2.2.4.3.2.4v.2l.1.2zm4.4 3.8q.2 0-.4-.7l-.9-.6-.4-.4.2.3q-.5-.2-.2.2l.3.1.5.5q.4.5.9.6m-.5-.4q-.4-.3-.4-.5l.5.4q0 .2 0 0ZM9.7 56c.1.2.1-.3.1-.4v-.1zm22.7 23.5h.1zm13.9 1h.2zM9.7 58.2l.1-.3v-.3.2q-.1.3 0 .4M17 72.5q-.2-.2-.2 0zm-6.3-19.7v.2zv-.2zm-.8 6v.4zv-.3zM10 61l.1.2.1.4.2.2v-.5q0-.2-.1 0l-.1-.5c-.1-.2-.1-.7-.1-.2zm.9 3v.2-.4zm2.2 4.2L13 68l-.2-.3zM34 79.5h.2zh-.2zM11 63.8l-.1-.6s-.2-.3-.2 0c.2.4.3 1 .4.6m.3 1v-.2zm.4.9.1.1v-.1zm4 5.5.4.5.3.1h.2q0 .3 0 0l-.2-.3-.2-.2-.4-.4-.3-.3.2.3q.4.5.2.4-.3-.4-.5-.4zm13.8 7.4h.3l-1-.2zM15 70.2l.3.2-.3-.5-.3-.2zM28.3 78l-.7-.2h-.3q.6.3 1 .2M10 56.1v.1zV56zm-.1 1.3v.3q0 .2.1.1zq0-.2-.1-.1m.2 2.9v-.5l.2.7q0 .2.2 0 .1-.4 0-.1v-.9l-.1-.8v-.9c0-.2-.1-.6-.1-.1v.4q-.2.4-.1 1c.1.6 0 .2 0 .2L10 59v-.2.6zm.1-1.7v-.1zq0 .2 0 0m.2 1v.3zm.4-7v.3zl.1-.2zm-.6 2.3v.2-.4zM28.7 78l-.4-.2q-.3 0 0 .1.3.2.4 0m12.6 1.6-.4-.1h.1q.2.2.3 0m-29.8-28q0 .1.1 0l.1-.1.1-.1q0-.3-.1 0zm3 18.2.3.2-.2-.3-.2-.2.2.3m12 7.8-.4-.2v.1zM12 50.6l.1-.2.2-.4zm-.6 13.6.1.2zm.9 1.7-.2-.5v.2q0 .2.2.3m1.7 2.8q.1.2 0-.2l-.6-.7-.1-.2q.3.7.7 1m-3.8-11.2v.3-.5zm.8 4.7v.4s.2.6.2.3-.2-1-.4-1.2v.1q0 .5.2.4m26.7 17.1h-.3c-.1-.1-1-.3-.3 0zM15.6 44.6l-.1.2zm.2 26.2.2.1-.3-.2zm-1.2-24.5-.1.2zM11 53.4c0 .3.2-.3.2-.4q.1-.2 0-.2zM12 65q0 .2 0 0v-.5q-.1-.2-.2.1zm14.9 12.4h-.1zm11.7 2h-.2zM10.6 56c0 .1-.1.7 0 .8zl.2-.8c-.1-.1-.2.5-.2.7m.9 7.7v.2zv-.2zm7.8 10 .2.1-.4-.3c-.2 0 .2.2.2.2m3.5 2-.2-.1-.6-.4.1.1c.1.1.6.5.7.4M12.5 50.1c-.1.1-.2.5 0 .2l.1-.5zm3-5-.1.3zl.2-.3zm9.3 31.3-.4-.2q-.2 0 0 0zM14.6 46.5l-.5 1 .5-.8.6-.9q.2-.3 0 0zm-4 10.6v.5-1.1zm1.5 8 .2.2zl-.1-.2zm1.5 2.3c.1-.2-.7-1.3-.8-1.7-.5-.8-1-2.4-1.2-2.9-.3-.5.1.7.2.8l.3.8q0 .3.2.5t.2.6l.2.4.1.4c.1.2.6 1.2.8 1ZM27 77l-.3-.1-.5-.2-.4-.2h-.1l-.2-.2-.5-.2.2.2.2.1.3.2q.7.4 1.4.4m7.7 1.6q.2 0 0 0l-.7-.2-.7-.2-1-.2.4.2.7.1.8.2zm-21-30.8v.2l.2-.1v-.2zm-3 7.7v.4zv-.3zm1.9-5.6v.2zm-.7 1.5v.2zl.1-.3zm10.5 23.8h.2zh-.2zm1.9.8-.2-.4-.9-.3.4.2.5.3q0 .2.2.2m11 2.5h-.3.4M20 38.1l-.2.6v-.1l-.3.3-.2.6-.2.4-.2.4-.1.4q-.3.3-.3.7l-.1.4.6-1.2.7-1.4zl.2-.6v-.3zm-2.5 4.2v.2l.1-.4zm-5.8 10v.2zv-.2zm3.4-6.2v.2zM10.8 60v-.2q0-.1 0 0zm.4 1.6v-.1q0-.2 0 0zM17.9 72l.5.4zc-.1 0-1-.8-.5-.3zM17 43.3v.2zm-5 8.9-.4 1-.2.3v.6s-.2.7 0 .3l.5-1.9.2-.6zm-1.2 6.5v.5l.2 1.2V59q-.2-.5 0-.8V58l-.1-.4.1-1.3.2-1.2c0-.6-.3.9-.3 1.1l-.1 1zm22.7 19.5h.2l-.5-.1-.5-.2.3.1zM13.2 49.5v.2zM14.4 68l-.2-.3q.1.3.2.2Zm1.4 2 .4.3-.7-.9zm5.7 4.3-1-.8q-.4 0 0 0l.6.5zm8.5 3.2.5.1h.4-.4zq-.2 0 0 0M20.3 38v.2l.1-.4zm-8.1 14-.1.3.2-.4zm17.2 25.4-.3-.1q-.2 0 0 0zm-9.5-38.2q-.1.5.1 0v-.5zm-2 3.1v.1l.2-.2zm-.3 29.2-.6-.6-.4-.4c.1.3.8 1 1 1M28 76.8h.2v-.1h-.5zm-13-30v.2zm15 30.5h.1-.4zM11.5 61v-.6q0-.2 0 0zm.1.8q.1.3 0 0v-.3zm17.6 15.4h.1zH29zM26 76l-.2-.2q-.1 0 0 0zM13 50.6v.8l-.2.3c.2-.1.4-.7.4-1l.2-.4.1-.3-.2.3-.1.2h-.1q-.1 0 0 .1m-.3 14.2.2.3-.2-.5zm5.5 7h.2zm6.9 4h.3zl-.3-.1zm-8-5 .5.4c0-.3-.8-1-1-1zm-2.9-22.3v.2l.1-.3zm-2 4.2v.1q.2-.2.2-.5c0-.3-.1.3-.2.4m0 10.1-.1-.3zm1.4 3.2.3.4q0 .3 0 0l-.4-.8q0-.2 0 0zm.6 1 .1.2q0-.2-.2-.3zm11.4 8.7h.2zh-.2zM11.5 58.9c0 .3 0 0 0 0v-.3zm.2 1.5v.2zm1.5 4.6-.2-.5-.3-.9-.2-.7v-.3l-.3-.8c0-.4-.1-1-.3-1l.1.6.2.8.2.8.3.8c0 .3.3 1 .5 1.2m12.5 10.5-.1-.1zm-9-30.2.3-.2zm-1.2 1.9s-.5.8-.2.5 1-1.5 1.1-2-.2.3-.2.4c0 0-.3.5-.3.3s0 0-.2.2zm7.9 27.3-.2-.2q-.2 0 0 0zm.3-43.8v.3-.1l.1-.3m-8.5 17.1-.4.8.3-.5q.2-.3 0-.3m-.8 1.4-.2.5v.1q.3-.2.5-.7 0-.2-.1-.1-.2 0-.2.2M11.8 60v-.6zm-.1-3v.1-.3zm0 .7v.2zv-.1zm10.2 16q.5.2.2 0l-.5-.3zm-8.7-22.1v.3zq.2 0 .1-.3zm1.6 15.2c0-.2-.4-1-.6-1.1l-.7-1.3-.4-1.2c-.1-.7 0-.1 0 0q.2 0 0 0v-.3q.1 0 0-.1v-.2l-.2-.2q0-.1 0 0 0 .2 0 0l-.2-.6v-.3l-.2-.5-.3-1.5q-.1-.3 0 .2v.5l-.3-.6.2.7.2.9.1.6.2.5.4 1.2.3.7.4 1 .4.7c.3.6.8 1.5.7.8Zm-2.4-5.4v-.1.3zm.3-8.6v.4-.2l.2-.4zm-.6 2v.2zm8.2 17.7-.3-.3q-.1 0 0 0zM12 55.7v.4-.5zm7 15.9h.1zh-.2zm3.3-36-.1.2zM14 50.3q-.2.1 0 0l.1-.2zm3.6 19.8q.1.2.1 0s-.3-.4-.4-.3zM21.8 37v.2l.1-.1v-.2zM12 58.1l.1-.2v-.2H12zm9.4-19.8c-.1.3 0 0 0 0l.2-.5zm-8.7 15.5.1-.3zm-.7 5 .1.3zm8.2 13.3.2.1zL20 72zm-1.1-29.4.1-.2.3-.5zm.8-1.5-.2.5v.2l.3-.5zm-7 12.6v-.4zm-.6 2.8v1.8-1l.2-.5v-1 .6l-.1-.4zm.5 4.6v.2l.2.2v.3q0 .8.6 1.7l.3.6.2.2-.5-1.3q0-.5-.2-.5l-.3-.8q0-.7-.4-1.3v.7m0-6.6v.2h.1zm0 1.3v-.4q-.2.2 0 .4m.4 6q.2.6 0-.1l-.2-1-.2-1c-.1-.4 0 0 0 .1l.1.6c0 .4.2 1.2.4 1.5m-.5-3v-.4zM5.1 2.2q0-.2.2-.1 0 .2-.2 0m30.2 80.5-.4-.1h-.5q-.4 0-.4-.3c0-.3 0 0 .2 0l.5.2.8.2zm11.3.5-1.6-.2q-.2-.2.1 0h.6l.5.1 1.1.2c.3 0 1.3 0 1.1.2-.1.1-1.4-.2-1.8-.3M12.6 72c-.1-.3.3.2.6.5q.6.6.1.3l.4.4.8 1-.5-.5a6 6 0 0 1-1.5-1.7m.5.7.2.2-.4-.4zm2 2.1h.1l.2.3zM8 4.5h.2zm1.4 63-.3-.8-.4-1c-.1-.1-.5-.8-.2-.5l1 2.1-.1-.2-.2-.4.1.4c0 .1.3.5.1.4m2 3.2L11 70c-.2-.3-.6-1-.4-1l.4.8 1 1.5.3.2-.4-.3zm33 12.7h-.2v-.1zm6.3.2h-.4l-.4-.1h.4zm1.1 0h-.6q-.1-.1 0-.2l1 .2zm1.4.2-.3-.1zm6.5 0-.3-.1v-.2l.2-.1h.1v.2h.2l.1.1h.1v.1q-.3.2-.4 0M6.1 3.3h.1M7.5 61l-.2-1.2.1.8c0 .1.1.6 0 .4m2.6 7.5v-.2l.2.4zM5.2 2v-.1M12 7.3V7l.2.2.2.1zM7.2 58.4v-.2zv.2zm26.4 24-.4-.1-.3-.1h.4zM8 52.7l.8-2q-.1.6-.4 1L8 53q-.2.4 0-.3m-.6 2.6.3-1.3v1.2l-.2 1.6v1.8l.1 1.4c0 1 .5 3.4 1 4.4l.3.6.3 1 1.3 2.5 1 1.6c0 .1.3.5 0 .3l-.6-1-.7-1.2-1-1.8c-.2-.5-.7-1.3-.6-1.5s.6 1.3.1 0l-.6-1.7-.4-1.6-.2-1.3-.1-2.1zm.2-.2v.3-.4zm.2 7.1.1.4.2.8zM43 83.1h-.5q-.3-.1 0-.1zq.2 0 0 .1m17.2.6v-.1M4.9 1.4v.1zm7.8 42.3-1.4 2.4q0 .3-.2.4t-.3.6l-.4.8-.3.4a30 30 0 0 1 2.6-4.6m6.6-26.4q0-.2 0 0m10 64-1-.3-.6-.3c-.1 0-.7-.2-.3-.2l2 .6.8.3.6.1.2.2q.1 0 0 0l-1-.2-1-.3zm15 1.7h-.6l-.4-.2h.6zq.1 0 0 0m3.7 0h-.2.6c.4.2-.2 0-.4 0M15 9.8q0-.1 0 0l.2.1zM18.4 33l.1-.1zl-.1.1zm40.9 50.6h-.1M8.8 51.2c.1-.3.3-.7.2-.3l-.6 1.7zm14.6 28.1-.7-.4 1 .5zm-8-69.1h.3v.1zm4.9 15.7q0-.1 0 0v.3zm-7 17.2.2-.2-.3.4zM8 54.6c0-.2 0-.7.2-.6zl-.2.6zm31.3 28H39zh.2zm2.6.1h-.4.7zm3.8.1h-.2.5zm1.6.1-.8-.1q.2-.2.7 0 .3 0 .1.1m-35-38c.1-.1.6-.9.5-.6l-1 1.7c-.3.1.5-1 .6-1.1M7.7 56.6q0-.5.2-.6v.8c0 .1 0 .6-.1.5zm7.7 17.5-.3-.3zl.3.3zm6 4.2-.2-.2h.2l.3.3zm3.3 1.4h-.2.4zm1.3.5c-.1 0-.6-.2-.5-.3h-.2l-.1-.2-.5-.4H24q-.5-.1-.6-.4l.4.2q.3 0 0 0l-.6-.3-.4-.3-.6-.3q-.2 0-.3-.2l-.4-.2-.3-.1-.4-.2-.4-.2-.5-.2-.2-.2-2-1.5-1.2-1s1.2 1 1.4 1c0 .2 1.8 1.4 1.4 1l-1-.8q-.8-.4-1.3-1l-2.3-2.1-1-1.3-1.1-1.3q-.1-.1-.1 0l.4.5.3.5-.6-.7-.6-.9q0-.2.2 0t0 .1l-.4-.5q-.3 0-.3-.4L11 68l-.2-.4-.7-1.3-.8-2.1L9 63l-.4-1.2-.1-1.2-.1-.6-.1-2v-1.3l.5-3.1.5-1.3.2-.3v-.5l.2-.2.4-1v-.2q.2-.1.3-.4v-.1l.2-.3.6-1.2.4-.8.9-1.5c.3-.5.8-1.3.5-.7l-.5.9-1 1.8c-.2.5 0 .2 0 .2h.1l.2-.4.3-.4.2-.4.2-.2-.2.4-.3.5q0 .3-.3.5l-.3.7-.6 1.2c-.2.2 0-.2 0-.3l.2-.5v-.2l.1-.1c.1-.1.3-.5 0 0-.4.5-1.1 2-1.3 2.6l-.3 1-.2 1-.1.7c-.1.3 0-.1 0-.2v-.3c-.1.3-.2 1 0 .9l.1-.8.3-1q.1-.7.4-1.3l.5-1-.1.6-.4 1-.4 1a9 9 0 0 0-.5 2.7V59l.1 1.2q0 .5.2.5.1 0 0 .1v.8q0 .2 0 0-.1-.3-.2-.2v.6l.2.1v.4q0 .3.3.5l.3.7.2.6.1.6q0 .2.1 0v.4l.2.5q0 .2 0 0t.1-.1l.2.4.3.6.1.4.1.3.6.7h.1l.1.3.2.3.7 1 .4.6-.3-.3.3.4.5.6c0 .2-.3-.2-.4-.3l-.6-.8c0-.2-.4-.7-.3-.3q.3.7 1 1.5l.6.7q0 .3.2.2v-.3l-.2-.2.6.8.5.7.7.7 1.2 1 4 2.7.4.3 1 .5.8.5.7.3.6.3.8.3.6.2-.1-.1.5.2q.2 0 0 0l-.7-.2q-.4-.1-.4 0l.6.2.6.3-.6-.2-.6-.1zl.6.2zM11 67.7l.2.1zm4.1 5.3.3.2-.3-.4q0-.2-.3-.2zM8.5 57l.1-.4c0-.2.3-1 0-.6zm0 2.8v.2zv-.2zm1.2 4.7.1.3zm1.3 2.8.3.3.2.3.2.2.2.2.1.3q0-.4-.5-1l-1-1.8-.3-.5.1.2v.2l.3.7zm2 3 .2.2-.5-.6-.1-.2zM9.2 53.1s-.2.5 0 .4l.2-.8zM9 61.9c0 .1.1.8.2.5s-.2-.9-.3-1zm-.4-3.6v.2-.4zM9 55v.9-1m-.2 3.3q0 .4.1.3v-.8zm1.5-7.2v.2zm-.3.7v.2zl.1-.2zm6.3-40.6.2.2zm.8 25.7v.4q-.3.3-.2.1zm-4.4 34.4.4.4.6.8zm25.7 11.2H38v-.1zm1.7 0q-.4 0 0 0h.8l.2.1zm1.5.1q-.1 0 0 0l.7.1zM16.6 38v.3l-.2.1zm-6 9.8.1-.1v.2l-.2.2zM12 70l.3.4zm10 8.5-.4-.3h.2q.2 0 .4.3c0 .3 0 0-.2 0m15.3 3.8H37zh.3zm5.9.3h-.4v-.1zq.2 0 0 .1m2.5 0h-1l-1-.2c.4 0 1.6.1 2.1.3q.2 0 0 0m-32.3-75 .3.1q0 .1 0 0zm3 31.1-.1.1-.2.4v-.1zm-7 27.3c-.1-.5-.3-1.1-.1-.7q0 .5.3.7l.4.7q0 .4.3.7l.2.5.3.6-.8-1.2zm11.1 11.6-.2-.2q.3 0 .5.3zm12.7 4h-.1.4zm-22.1-35 .1-.2v.1zm-2.5 5.3V52zv.2zm10.7 25-.2-.2.5.3zM32 81.5h-.3l.1-.2h.3q0 .2.4.3zm10.7 1s-.5-.2-.3-.2q.4 0 .7.2zm9 .3-.6-.2.5.2q.2 0 0 0M13.8 8.1l.2.1zm2 31.5v.3q-.2.1-.2 0zm-8 17.9V57v.2zm0 1.6v-.2.5zm10.5 17.1-.7-.5q-.6-.3-1.2-1l-.7-.5.7.5 1.2 1zm15.2 5.5h-.3l.1-.1zm-19-73-.1-.2zq.2.1 0 .1m6.1 12.6v-.6.5q0 .2 0 0Zm-6 20.2q.1-.3.3-.3l-.3.5zM8.7 63c-.2-.6-.4-1.5 0-.5l.3 1.3q0 .3.2.5l.1.3q0 .4 0 0c-.2-.3-.6-1.2-.6-1.6m29.6 19.2q-.3 0-.1-.1h.5q.4 0 .5.2zm1.8 0h.6-.4c-.2-.1-.7-.1-.4-.2H41l.6.2L40 82l.7.2.5.1H40m5.3.4H45v-.1h.4zM9.3 4.2 9.2 4h.3l.3.3.5.2H10zm6.5 5.6q-.3-.1-.2-.2zm-2.4 33.9.1-.2v.1zv-.1m-.6 1 .3-.4q.1-.3.2-.2l-.4.7-.5.9q0 .4-.2.4t-.2.3q0 .4-.4.6l-.5 1-.5.7v-.5l.3-.4.1.1.2-.4v-.2l.5-.7.7-1.1q0-.5.4-.8M8.1 60.2c0-.2 0-.5 0 0q.2 0 0 0v.4zm51 23H59V83zM20.9 22v.5zm-3.8 15.7v.2l-.3.5-.1.2q0-.5.4-1M9.7 50.4c0-.3.4-1 .5-1s-.2.5 0 0q.2-.4.3-.3l-.2.6-.4.7-.1.3-.2.4-.3.7-.2.7-.1.2v.4l-.1.3c-.2.5-.2 0 0-.4l.2-1zM8 59.2l.1.1v.2zm25.4 22.3H33v-.1zm9.4.6q-.7-.3-1.3-.3h-.8l-.2-.2h1l1 .2q.4 0 .7.2l1 .2h.3q-.8.2-1.6-.1M5.5 1q.1-.1.2 0zm.3.3H6m2.4 54v-.1.4zm-.1 2.5v-.5zv.5zm36.8 24.4q-.2 0 0-.1h.5zm8.8.4h-.3v-.1zM21 22.9v.1q.2.3 0 .2zm0 1.4v-.4l.1.1v.3zm-.5 4v.3zm-4 10.7v.2q-.1.2-.2 0zm-2 33.7q-.4-.4-.2-.3c.2.1-.2-.3-.3-.4l.3.3.7.7zm42.2 10.2-.5-.1h.3zm2.8 0h.2zM5.8 1.3H6Zm10 38.9q.3-.5.2-.2zl-.2.2v.4q-.2.2-.2 0zm-.8 1.4v.3l-.3.5v-.2q0-.4.3-.6m-6.6 13 .1-.3v.6zm7 18.9-.1-.2zM11 5l-.2-.2.5.3.6.4q.3.2 0 .2l-.6-.5zm6.8 31.7q.2 0 0 .1v.2zm-4.3 7.4.1-.1-.1.2M24 78.9l-.1-.1.3.2zm14 3q-.3 0 0-.2h1.3-1.1q0 .2-.1.1m1 0h-.2zh.3zM12.5 6.2q-.5-.5.1-.1l.8.6c.3.1 1.3.9.9.7q-.3 0-.6-.4l-.4-.3q-.3 0-.4-.3zm8.7 19v.3zm2 53.3-.3-.2zl.3.2zm7.2 2.3h-.2zh.2zm3 .5H33l-.8-.3c-.2 0-1.3-.3-.9-.3h.4l.8.3zl.3.1h-.4M14.7 8.3l.3.2zM20 31c.2-.4 0 0 0 .2v.4zm-2.8 7.2.1-.1v.2q-.2 0 0-.1m12.2 42.2H29h.4zM18.8 13.5l-.1-.3zl.1.3zm2 14.9V28zv.4zM19.6 32v.2zm-.3.7.2-.2zl-.1.2zm2.3 44.8-.7-.4q-.2 0-.4-.3l.4.2zm-1.2-48v-.3l.1.5v.5q-.2.3-.2-.1zM19.1 34v-.1.3zm-3.3 6.8q.1-.3.1 0 0 .4-.3.3-.3 0 .2-.3M19 75.9l.2.1.7.5.4.2q-.7-.2-1.3-.8m11.2 4.6-1-.3q-.4 0-.4-.3c0-.3.3.1.4.1q.3 0 .2.1h.3l.3.2.4.2zm9.4 1.1h-.3l-.6-.2h-.3q.4 0 .1-.1H38l-.5-.2h1.2l.4.2.3.1.6.2zm-18.4-61v.3zM18.8 35l.2-.5zl-.2.7q-.2.2 0 0zm-2.2 4.6.2-.3zl-.2.4zm.6 35-.2-.2.2.1.2.2zm-.7-.6-.1-.2h.2q.2 0 0 .3zM7.8 2.4q-.2 0 0 0H8zm7 5.3.2.2.7.6.7.7.1.2.3.3q0 .2-.2-.1l-.5-.6-.7-.7zm4.7 6.4.4.7.2.6-.2-.4c0-.1-.6-1-.4-.9m39.7 68.4-.2-.1zM6.3 1h.4l.3.2h.2l.6.3 1.2.6a33 33 0 0 1 10.7 8.3 9 9 0 0 1 1.5 2.4l-.6-.9-1-1.4c0-.2-.7-.9-1-1.3L17 7.6l-2-1.5-.2-.3-1-.8-3-2-1.2-.5-1.3-.7-1.1-.4H7l-.3-.2h-.2s-.4-.1-.3-.2m.8.8q.2 0 0 .1m14.4 20.4.1.2v.1zm-7.8 22.1.2-.1-.3.3zm-.9 1.5.2-.3v.3l-.4.5v-.1zm4 28q-.2 0 0 0l.5.5zm8 4.7-.6-.2-.6-.3.7.2q.7 0 1.2.4l.4.3h-.3l-.4-.2zm-18-77H7zm14 15.9.2.3zM19.4 34l-.1.7-.4.8.1-.4.1-.4.2-.4zm-2.1 4.7v.2q0 .3-.2.2-.2-.2.1-.4M34.9 81h-.1.4zm24 1.3h-.1zM20.2 15.8l.2.4q.2.2 0 .1zm1.1 11v-.2.4zm-5 46.7q-.4-.1-.5-.4l-1-1.1q-.1-.3.2.2l.8.8zm6.7 4.3-.2-.1zl.2.1zM14.7 7.5h.3v.1zm7 16.5v.3zm0 1.4v-.2zv.3zm-7.8 19 .2-.2zl-.2.1zm2.2-3.3.4-.8zl-.5.9zm-2.6 4-.2.3v-.2m-.6 1 .2-.3v.3l-.3.2zm1.4 25.3.2.3zm-8-71q.4 0 .6.2h-.2L6.3.6zm15.5 19.7V20l.1.2v.2zm0 7v.8q-.1.6-.2.3l.1-.3zm-3 9.4c.2-.4 0 0 0 .1l-.1.2-.2.3v.3l-.2.3v.2l-.8 1.5-.3.7c-.2 0 .3-.8.5-1.1l.4-1zM16 73l-.8-1-.6-.7-1.1-1.4-2-3-.1-.1-.2-.4q0-.3.2.1l.2.4-.1-.4-.4-.8q-.1-.3.2.2.6 1.4 1.4 2.6.5 1 1.2 1.6l1.3 1.6.8.8.6.7c.1.2-.3-.1-.4-.3q-.1-.3-.4-.3l.2.2.2.2zM7.8 2q-.1-.2.2 0l.6.2q.4.1 0 .1l-.3-.1h-.2zm10.7 9.6c.2.3 1 1 .9 1.3 0 .2-.5-.6-.6-.7s-.6-.8-.3-.6m3.3 9.3v-.3.6zm-1 9.4v.5q0 .3 0 0zm-5.6 12.3.2-.1-.2.2v.1zm-1.1 1.9c.2-.3.7-1.4.7-1.2 0 .3-.6 1.2-.9 1.6l-.2.3-.5 1h-.1l.1-.3zm-2.4 23q0-.2 0 0l.2.3zm4.6-58.7.1.2zm.7.8q-.2-.2 0-.2l.2.3zm-4.2 37.2-.2.4s-.2.5-.3.4.3-.7.4-.8M21.4 18q0-.2 0 0h.1m-5.8 24.1v.2q-.1.2-.2 0zm-3.9 6.4.4-.6zl-.1.3v.2l-.2.4-.2.1q-.2.1 0-.1zm-2 5v.3l-.1.3zl.9-2.5-1 3.2q-.2.5-.2.3c-.1 0 0-1 .2-1m10-40.1v-.2l.1.2q.2.2 0 .1zm1.2 2.7q0-.2 0 0l.1.1zm-.8 17q0-.1 0 0v.4zm-.3 1v.3zM9.2 57.2c.1-.3 0 .2 0 .4v1.3zM9.8 3h.2l.2.1 1.2.7q.2.2-.3 0c-.4-.2 0-.1-.2-.2l-.5-.3zm2.3 1.7h.3v.1zM20.5 15v-.3l.1.3q.2.1 0 .2zm1.4 4.5v.3zm-.2 8.7v-.1zm-1.2 4.3q0-.2 0 0v.3zm-1 2.7V35zv.2zm-.4 1.1q.1 0 0 0l-.2.6c-.1.2-.3.7-.3.4s.4-.8.5-1m-8 14V50zm5.1-42h.2v.1zm5 8.3c0-.2-.3-.7-.1-.6s.2.6.2.7zm.7 2.5V19l.2.3q0 .1-.2 0m.2 6.7v.6zm-.2 1.4c0-.2 0-.6.2-.3l-.3 1.9-.2 1 .2-1.1.1-1zm-4.8 13v.1M15.5 43l-.3.5q0 .2 0 0zM9.3 56.2V56v.4zm12.2-38.8q0-.2 0 0l.1.1q0 .2 0 0zm.8 4.2.1 1-.1-.2c-.1-.1-.1-.8 0-.8M20 34.2V34zm-2 4.5q.1-.1 0 .1v.4q0 .1 0 0l.2-.4.2-.5.7-1.6v.3l-.1.4-.1.3-.2.4-.3.8-.5.7h-.2q-.2.4-.1 0zM15 44v.2l-.3.4q0 .3-.1.1 0-.4.4-.7m41 37.4h-.5q-.1 0 0 0l-.3-.2h.3zq.2 0 0 .1ZM18 10.2l.4.4h-.1l-.2-.2zm1.9 24.5-.1.4-.4.9q-.1.5 0 .1.1-.7.5-1.4M16 42.1l-.3.6v-.1zM12.2 4.4 12 4l.4.2.7.5.3.2.3.3L13 5l-.6-.5zm3.6 3.3v-.1l.7.6-.1-.1-.3-.3zM22.2 20l.1.4.1.4v-.5l.3.9q0 .2-.1 0 0-.2-.1 0c-.1.2-.1-.3-.2-.4zm-1.5 12.6v.3q0 .1 0 0zm-3.4 7.6q.1-.2.2 0 0 .2 0 0 .2-.4.2-.2v.2l-.2.4-.3.5-.6 1.3-.2.5q-.1.3-.2 0l-.3.6-.4.6-.1.3-.2.3.4-.6.4-.5-.3.5-.7 1q0-.2 0 0t-.2.3q0 .4-.4.7l-.1.3-.3.5-.2.3v.2q-.2-.1.1-.7l.3-.6.4-.7 1-1.8.2-.6q.2-.3.2-.1l.2-.1v-.3l.4-.7.5-1q.2-.4 0-.2zm-5 8 .1-.1-.2.3zM7.3 1l.4.2-.2-.1zm15 25.2q0-.1 0 0v.5zm-5.8 15.4q0-.3.3-.4zq-.1.1-.1 0m-1 1.6-.2.2zm4.2-30.6-.1-.3zl.1.2zm2.8 11v-.3zv.2zm-1.3 8q0-.5.2-.7t-.1.4l-.1.6c0 .2-.3 1.4-.5 1.4l.2-.7zM20 13l.2.2zm2.3 6.7v-.2zv.2zm.2 2c.2 0 .3.9.4 1.2q0 .3-.1.2v.3l-.1.3v-.9q0-.3 0 0v-.1l-.1-.4c0-.1-.2-.7 0-.7m-.4 6.2q0-.4 0 0l-.3 2c-.2.1 0-.6 0-.9zm-.6-11.5V16zv.2zm1 7.7q.2.1.1.5v.1zm0 1.2q.2-.1 0 .4v.2zM8.9 1.8l.3.1zm11 11q.2 0 .3.2v.2zm1.1 2 .3.5.1.4zm.5 16 .1-.2v.4zm-1 3.3-.1.4-.1.1s.1-.6.2-.5m-1.2 3-.2.4-.2.4zm2.4-20.7q0 .1.1 0v.4zm1 5.3.2.2v.5l.1.7v.5-.5l-.2-.8zm0 2.6v.4zm0 .5.1-.7c0-.2 0-.8.1-.3v.4q.2.1 0 .2v1.8q0 .3 0 0 0-.4-.2-.3zM22 29v.3q0 .2 0 0zm-.7 2.9h.1v.2l-.1.2q-.1.3-.2.2zM20 35.2l.1-.2v.2q0 .2-.2.2zM7.3.5h.1zM16 7q-.2 0-.1-.1 0-.2 0 0l.8.5.6.7.2.2q.1.2.1 0l.4.4q.5.5.2.5l-.4-.3-.4-.5L17 8l-.4-.4q-.3 0-.5-.4zm6.6 19.4v.1q0 .2 0 0zm-.7 3.5.2-.4zc-.1 0-.1.3-.1.1m-2 5.8v-.1.2zM21 14.7l.1.2zm.6 16.2.1-.3-.1.5zm-2 5.6-.2.3zM10.1 2.3l.3.1zm12.6 18.4V20l.1.1v.2zv.5zM19 37.8c.1-.2.5-1 .3-.4l-.1.6v.3l-.2.1h-.2s-.1.3 0 .1zm-1.8 3.4-.4.7q0 .2 0 0c0-.2.3-.8.4-.7M7.7.6c.3 0 1.3.5 1.6.7L8.8 1zm12 11 .2.2.3.5-.2-.2zm2.7 6.7.1.3zm-8.5 28.2v.2zm33.8 33.6-.5-.1-.7-.1q-.4-.1.2 0c.6 0 2 .2 2.2.4s-1-.2-1.2-.3M20.3 35l-.1.3zM23 22.4v-.5.2s0 .4.2.3L23 21v-.3.6l.2.6q.2.9.1 1.5v-.5l-.2.2v.2l-.1-.5zm-3 14-.2.2zm2.5-18c0-.4 0-.1.1 0v.3zm.2 9.4v-.1.3q0 .2 0 0zm-3.2 9.6.2-.2-.3.5zm3.3-18v-.2zv.2zm-2.7 16.8v.2l-.1.4v-.2zm29 44q-.2 0 0 0h.4zM11 2.4l1.4.7L14 4.2l2 1.6L17.5 7l-.5-.4-2.4-2-2-1.3-1.2-.6c-.2-.2-.7-.4-.5-.4m7.8 7.4.2.2zm-4.6-5q-.4-.3 0 0c.5.1 1.8 1 2.2 1.5.2.3-.4-.3-.6-.4l-1-.8zm7.5 9.9v.3zm-3.2 25.2-.1.3zm1.8-28.3-.4-.4c.2 0 .7.7.8 1 0 .2-.4-.5-.4-.6M22.8 28v.3zm-5 13 .1-.1-.2.3zm4.7-23.8.2.2zm.8 6.7v.5q0 .1 0 0zm0 1.2v-.2l.1-.1q0-.2 0 0v.5zm-.2 2.4v-.1l.1-.5s0-.5.1-.3zq0 .2-.1 0m-.4 1.9v.2zm-11-26.9v-.1l.3.1v.1zm11.7 17q0-.3 0 0l.1.4zm-5.7-12c-.7-.7 0-.1.4.3l1 1v.1q-.1-.2-.3-.2.1 0 0 0l-.3-.4zM22.4 31v.2zm22 48.6h-.6l-.3-.2.5.1zm-21-53.7q0-.2 0 0V27zM21.8 33l.2-.6.1-.2-.3 1q-.2.1 0-.2m-9-29.8 1 .6.7.5-1.1-.7-.4-.2zm10.8 18.4v.2zm-.6 7.2v-.2.4zm-.1.7v.3zm.8-5.6v-.3 1.8V24m-.3 3.2v.4zM40.5 79c-.4-.1-2.8-.4-2.8-.6s1.6.2 2 .3l1.1.2 1.5.3zm-18-63 .2.2v.2zm.4 1c-.1-.4 0 .1 0-.2l-.2-.9.2.2c.3.7 1 2.6.9 3.2v.1l-.2-.7-.2-.2v-.7q0-.3-.3-.5zm-.2 13.8v-.1.3zm-3.3-21-.2-.3.4.4v-.1q-.1-.2-.1 0 0 .1-.1 0m3 22 .2-.6zl-.2.8-.2.8c-.1.2-.4 1-.2.8v-.1.5l-.2.7-.1.2c0-.5 0-.2-.2 0l.6-2.2zm-.9 2.6v-.1.3zm-.4 1.2v.4c-.1 0-.2.4-.2.2zm2-6v.2zM15.2 4.9h.2q.1.1 0 .2zm4.7 5.3.2.2.5.6q0 .2-.2-.2l-.3-.3zm3.3 7.4v.3zm-.6 13.7.1-.1zm1.3-6.5v.6zM16 5.4l.4.4q.3.1.1.2zm6.6 26.8v-.3zv.2zm-3.9-24 .4.5.5.6.8 1L19 8.8l-.3-.3-.1-.3m5.2 12V20zv.3zm0 6v.7zm-.4 2.4v-.1.3zM34 78h-.4l.3-.1h.4zM17.3 6.6l-.5-.5zl.8.8q.2.4 0 0zm4.6 6.7q0-.2 0 0 .4.2.3.3zm2.2 8.4v-.3zm-.1-1.6v-.3zv.3zm-1 11.2-.1.4-.2.7v.2zm-.4-16.8v-.1l.5 1.3zm1.7 8.6v-.6c0-.5 0 .1.1.3v.5zM21 36.6l.1-.2h.1v.2l-.2.3zM18.8 8.1l.1.1.1.2zm3.4 26 .1-.3zl-.1.2zm10.1 43.5.2-.1m-8.9-61.1v-.2l.2.3v.1zm1 8.6v-.3c0 .1 0-.5 0 0V27c0 .5 0 1.8-.3 1.8v-.3.5l-.2.5.1-.8.2-.6.2-1.6c0-.4 0-.1 0 0q0 .5-.2.5v-.7l.1-.5q.2 0 .1-.4zm-4 13.3.2-.2v.2l-.2.3zm15.2 39.5-.9-.2-1.8-.4h.7l2.1.6c.5.2 0 0-.1 0m.9.1h-.2zh.2zm-16-67.8-.2-.4zs.7.9.4.7zm1.6 2.8v-.2l.2.5zm1 18.5.1-.2zl-.1.2zm-1.3 4v-.3zv.2zm-.4.8-.6 1.7-.1.3c0-.4.5-1.7.8-2m-2.8 5.5.1-.1v.5l-.2.1-.1.1q-.2 0 0-.1zm4.8-25.6V16l.2.2q0 .2 0 0-.2 0-.2-.2m.4.8.3 1 .2 1c.1.3.3 1 0 .5l-.2-1.2-.3-1zM18 43q0-.4.2-.3v.2l-.1.2-.2.1-.6 1-.1.2.3-.6zm4.7-9.9.1-.2v.3l-.1.2zm-.5 1.5v-.1q.2 0 0 .2 0 .2 0 0zm-.7-23v-.3l.4.7zM20.3 39h.1v.2h-.1zm2-26.2-.1-.4zv.3zm2.2 7.7v-.3l.1.2v.3zM21.8 36q0-.2.1-.1l-.2.4zm-4 7.5v.2q0 .2-.1 0zm5-29.7v-.2l.2.4zm1.9 7.2v.7zm-2.1 13c.2-.4 0 .1 0 .3l-.1.3zm-2 5 .2-.4v.2q-.1.5-.1 0c0-.4 0 0 0 0q-.2.4-.2.2m-.6 1v.2zm-.4.7q.2-.1 0 .1v.2l-.3.4-.3.4c0-.2.5-1 .7-1Zm5-21v.3zm-2.5 16 .2-.5zl-.2.5zm-5.8 33.5-.1-.2zl.1.2zm7-54.6q0-.2 0 0l.2.5zm1 3.5s0-.2 0 0l.1.3zm-6.1 25.2q0-.3.2-.3v.3q-.2.1-.2 0m6.7-19.4q0-.2 0 0v.3q0 .1 0 0zm-9.1 44.5-.2-.3.1.1zm4-27.5-.2.3zM25 21.6v-.7l.1.7.1 1.4.1 1.6v.9-1.1c-.2.2-.2-1-.2-1.2v-.9zm0 2.3v-.2.6zm-.2 2.6.1-.4v.8-.4m-7.2 17.9.2-.2q0 .2-.2.3zm11 31.6-.5-.2q-.1 0 0 0zq.2.1 0 .1Zm-3.9-48.2v.3zm-.8 3.5c.2-.9.2-.7.2-.4l-.2.9-.7 2.5-.3 1-.5 1.7q-.2.5 0 0l.1-.2-.2.7q-.2 0-.2.2t.1 0v.3q-.3.3-.2.5l-.1.3-.6 1.3-.3.4-.1.1-.2.4h.1q0-.1 0 0l-.2.5q0 .2-.1.1c-.2 0 .1-.8.3-1l.7-1.3c0-.3 0 .1-.2.2v.1l-.4.7-.4.8-.3.7q-.2.2 0 .1l-.3.5-.5 1-.2.2q.3 0 0 .3l-.2.2-.2.1v.2q-.1.4-.5.8l-.1.5-.2.3-.1.2.3-.8q-.2 0-.2.2l-.2.5-.3.6v.2l-.1.1-.2.2-.2.2v.2h-.2l-.1.2-.2.3c0 .3-.7 1.3-1 1.6l-.3.6-.2.4.2-.4-.3.7-.4.8-.2.3q0 .3-.2.5l-.2.6-.8 2.1c-.2.5 0 .1 0 0V55l.1-.2v-.3l.2-.5 1.8-4.2 1.2-2 1.5-2.4 1.8-3.1a37 37 0 0 0 3.3-7.9zm-2.4 7.5v.3zl.1-.2zM16 49l-.2.3zl.2-.3zm9-23.4v.3zm-9 21.6-.1.2zm-1.6 2.6v.1l-.1.2zm10-19.8s0-.2 0 0l-.1.3zm-.2.7v.3l-.1.2zm-.4 1.4v.4zm1.4-5.6v-.1 1H25v-.9m-2 7.6.1-.2v.3l-.1.2zm1.4-4.2q0-.3 0 0v.3l.2-.3q0-.2 0 0 0 .4-.2.5zm-2 6.1q0-.2.1 0v.3l-.2.1zm2-5.2v.3zm-9 36q-.2 0-.1-.1l.1.3zm2.7 3.1-.1-.1zl.1.2zm5.1-35.2.1-.2zl-.1.2zm-.8 2.2.1-.1v.4l-.1.1zm-.4 1.3q0-.5.2-.5t0 .2l-.4 1-.5 1.3c-.4.3 0-.5.2-.9zm-9 17.4v.4q-.2-.1 0-.4M21 41v-.1l-.2.3zm-2.5 4 .2-.3q0 .3-.3.5zM14 63.3v-.1l.1.3zm.5 1-.2-.3v-.4q-.2-.2 0-.2 0 .1 0 0h.1v.4l.1.2.1.4zm1.5 2.5.2.2zm-3-7.6.1-.7.1-.1v-.1 1.4c0 .5.8 2.5.5 2.5q-.2-.1-.5-1.3-.3-1.6-.1-1.7m2.1-8.5q-.3 1.1-1 2.7t-.8 2.8c-.2 1.3 0 0 0-.3v-.5l.1-.4.3-.7c0-.1.2-1.1.6-2zm-1.8 8.6v-.4zm50.8 29.2-.4-.2-.2-.2h-.2l.2.2.3.2zM1.7 6h-.2zm62.8 82.2q0-.2-.2-.2v.1q.1.2.2 0m0-.4h-.2v-.1.2zm-.6.1h-.2zh.1M1.1 4.7q.2 0 0 0m63.5 82.9-.1-.2-.2-.1.1.2zm.4-.2q-.2 0 0 0 0 .1 0 0M.3 3.3h.5L.7 3H.3zM0 2.9h.1q0-.2 0 0zm.3.1v-.1Zm.5 0h.5l.2.1h-.2l-.1-.2h-.1l-.2-.2v.1H.7V3m-.3-.2h.2l-.1-.1v-.1q-.1 0 0 0t-.1 0zm.7.6H1zM2 4v-.1h-.2.2M.8 2.1h.4v.2q.2 0 0 0l.1-.1h.2V2h-.3v-.1.1H.7ZM65 86.2V86h-.1zM1 2.4h.1m.7.8h.1L1.7 3m.5.6h.1zm-.8-1.3h.1zm.3.7h.1zm-.1-.7s.1-.1 0-.2l-.1.2ZM1 1.6h.3l.3.1.3.1h.2l-.3-.1-.3-.1h-.1l-.1-.1v-.2h-.1q-.2 0 0 0v.1H1q-.1 0 0 .1m1 1.2v-.1q-.2 0 0 0M1.6 2h-.2zm.3.1H2q0-.2-.1 0h-.2m.4.6v-.1m.2-.4V2m.4.2H3v.2l.2-.1q-.1-.2-.4-.2L2.7 2h-.1v.1h.2M2 1.5h.2zM2 1h.2zM1.8.5h.3v.1q.2 0 0 0 0-.2-.3-.1m60.3 84.2H62l-.5-.1-.4-.1h-.2.2l.2.1h.2l.2.1.2.1zM3.1 1.3h.1v.1-.1zm.6.8V2M3 1h.3zm61 82.8h.2q-.1-.3-.4-.3h-.1l-.2-.2s-.6-.2-.4-.3l.7.3c0 .1.5.3.4.1l-.2-.1-.2-.1V83h-.3l-.1-.2-.2-.1-.2-.2h-.2l-.2-.1h-.1l-.2-.2H62V82l-.7-.2-.6-.3h-.2l-.2-.1H60l-.2-.1h-.2l.3-.1h-.3l-.1-.2-.3-.1-.3-.1h-.1l-.4-.2-.6-.1c-.4 0 0 0 .2.1l.5.2h.3v.1l-.6-.1-.7-.2-.6-.2-1.2-.2L54 80l-.9-.2h.4s.4.1.1 0H53l-1.2-.2-2.6-.4-.6-.1-1-.2-2-.2L40 78h-.6.5l.4.2.2.1h.1l1.6.1c1.2.3 0 .1-.4 0l-.3.1.6.2 1.1.1 2.4.3 1.4.2c.3 0 0-.2.4-.1q.3 0 .1.1l.3.2h.4l1.8.3.3.1h.2q.6 0 1.7.3h.5l4.7 1 .3.1.3.1.5.1h.2l.2.1.2.2h.1l.2.2H59q-.2-.1-.2 0l.4.1.2.1h.2l.2.2v.1h.3l1.2.5.6.2q.2 0 0-.1-.2 0 0 0h.2l.1.1.6.2h.1l.3.2h.2l.1.2v-.1l.3.1h-.1.1zm-.4-.7-.3-.2q-.3-.2.1 0c.3.2 0 0 .1 0h.1zm-3.8-1-.2-.2h.3zm-.5-1L59 81m-6.4-1h-.3l-.6-.2h-.1zq.2 0 0 0m-2.6-.3q-.4 0-.3-.2 0-.2-.2 0t-.6 0h-.1q-.2-.3-.5-.1t.1 0h1.1q.7 0 1 .3zm-3.4-.5h-.1V79h.2zm-.7-.2h.5zm-1.2-.2h-.3zM3.8 1h-.2zm59 82.8h-.1zm-2.1.4h-.2.1q.2 0 0 0M4.4 1h-.1Zm.5 0L5 .8h.2-.1L5 .7h-.2zM5 .5h.5-.3V.3H5q-.1-.2-.2 0zm56 81.1h-.3zm-2.5.1v-.1h-.1l-1.2-.2-.7-.2h-.3.3l.6.2 1 .3zm1.6-.6q-.1 0 0 0m-5.6-.3h-.2l-.4-.2.2.1h.4m-1.6-.3q.2 0 0 0h-.2zm-4.6-.7H48zm7 .2-1.4-.3.6.1c.1 0 1 .3.8.1Zm-2.2-.5c-.3-.1-1.8-.4-2.1-.3l1 .2c.1 0 1.7.3 1 0m-10.5-.6h-.1l-.5-.1zm-4-.8-.5-.1h-.3zm1.2.1h-.1zm6.3.2h-.4q-.1 0 0 0zm-10.3-.8-.4-.1q-.3 0 0 0zm8 .4c-.3 0-1-.2-1.2-.1l.6.1zm-9-.6-.3-.1c-.1 0-.9-.2-.4 0zM33 77l-.6-.2-.5-.1.6.2zm8.8.7c-.1 0-.8-.2-1-.1h.3zm-8-.8h.3zm-3.3-.7h.7l.2.2c.3 0-.3-.2-.5-.3s-.9-.2-.9 0zm2.6.5.4.1zl-.8-.2-.6-.1.6.1zm-3.5-.7-.3-.1v.1zm9 1.2h-.2zM28 75.5l.6.1-.6-.2-.6-.3-1.3-.6c-.4-.1-2-1-2.2-.9-.2.2 1.5.8 1.7.8l.4.2.4.2.4.1.4.3zm.6 0-.5-.2H28zm.4.1h.2zM22.6 73h-.1q-.2 0 0 0zm-.8-.4-.2-.2zm7 2.8h.2zh-.1zM21.2 72q.3 0 .7.3c.1.2 1.2.8.4.2l-2.7-2-1.3-1.2-.3-.3q-.2.1.1.2l1.2 1.2.2.2.2.2.3.2q.3 0 .4.3l.2.3c.1.1.6.5.7.4m1.8 1q.3.2.2 0l-.3-.1zm2.5-44.6s-.2.8 0 .6c0-.2.2-1 .1-1.2zM32.2 76h.5zq-.7-.4-1.2-.3l.3.1zM25 30.8v-.2l.1-.5zm-.3.8v.5l-.3.6v.5l-.5 1.5q0 .5-.3.8t-.3 1q0 .4-.3.7v.3l-.4 1c-.1.5.3-.7.5-1.1a22 22 0 0 0 1.7-5.7c.2-1.6 0-.2 0-.4zM23.5 36l.1-.2-.1.4zM26 74.1h.5l.5.2-.2-.2-.2-.1h-.1l-.6-.3c-.3 0-.8-.3-.6 0h.1l.2.2zm1.3.5.5.2c-.2-.2-1-.4-1-.4zm-9.8-6h.1v-.1q-.1-.2-.2-.1zm12 6.6h.1zh-.2zm-.7-.3-.5-.2s-.7-.2-.5 0 .8.2 1 .2m-4.3-1.8.3.2-.6-.3zM22 39.7v.2zm-5.2 8.6-.7 1.3c0 .3 0 0 0 0s0 .3.1 0l.5-.9.4-.8c.1-.2.6-.8.4-.7zm.6 19.7.2.2zl-.2-.1zm6 4.7h.2l-.4-.3zm-2-31.5-.4.6c-.1.3-.5.8-.3.7.2 0 1-1.6 1-2l.4-.8zm1.3 31q.3 0-.3-.2l-2.3-1.8c-1-.8-2.4-2.3-3-3l2.2 2.5 1 .8 1 .7zM20 43.7q0 .2 0 0l.3-.5.1-.3zM13.8 61v-.2q0-.2 0 0zm12.7 12.8.4.1zl-.5-.1zm1.5.4-.6-.3-.8-.3h-.3l.6.2.5.2zm-8.5-29.8v.2zm-1.8 2.8v.2l.2-.4zm7.7 26.1h.1zl-.1-.1Zm-9.5-23.2v.3zm-1.7 3.6q0-.1 0 0m1 10.6.1.1zl-.2-.1zm8 8h.1q-.1-.3-.3-.2zM14 54.7v.1-.2m-.1.5v.4h.1v-.2zm1.7 9.7.1.2zm7.1 7h.2zm-.6-.5h.2zh-.2zm3 1.6h.2zh-.2zm-8.3-24v.2zm-2.6 5.5q0 .1.1 0V54zm-.3 5v-.6c0-.1 0-.8-.1-.6zm.2 1.2.2.4v.1-.5l-.2-.4zm-.3-3.4v.4zV57zm2 7.4-.1-.3-.1-.1zm.3.6q-.2 0 0 0m.8 1q0 .3.2.3t-.1-.2l-.2-.2zm1.1 1.4-.2-.3q-.1-.2-.2-.1zm4 3.4.2.1zm-8-12c.2.2 0-.6 0-.7V58zm.2 1.1v.2zm1.8 4.5q-.1 0 0 0m32.1 34 .3-.1v.1h-.1v.2h.1l.2-.2.2-.1h-.2l.1-.1.2-.1v.1l-.2.2q-.1 0 0 0l.2-.1.2-.1.3-.2.3-.2.4-.3.2-.1.2-.2.2-.2s.6-.6.4-.3L50 98q-.5.2-.6.6c-.1.4.1 0 .2 0l.2-.2.3-.1h.2l.1-.1q.1 0 0 .1l-.3.1v.1q-.3 0-.3.2t-.1 0l-.2.2q-.2 0 0 0 .1 0 0 .1l-.2.3-.3.1.4-.1.3-.3.3-.1q.2-.3.4-.2h-.1l-.7.5v.1l-.2.1q.2.1.4-.1l.2-.1.6-.4.2-.1h.2l.1-.2.2-.1.2-.2.4-.3q.1-.3.1 0l-.2.1-.7.7-.3.2-1.2.7-.1.2.8-.3.4-.2c.2 0-.2.2-.2.2v.2l.4-.1h.2v-.2h.3l-.2.2-.3.1h.4-.3l-.2.1-.4.2.2-.1h-.4v-.3l-.4.2-.4.2h.1q.2 0 .1.2l-.2.1h.3v-.1l.1-.1v-.2h.3l-.1.1h.2q0 .3-.4.4-.5 0-.3.2l-.1.1h.2v-.1h.1l.2-.2q.2-.2.5-.2l1.2-.7.3-.2q-.2 0 0 .1.2 0 .5-.4v-.1h.2l.1-.2.3-.2.2-.2.3-.2.1-.2h.2l.3-.1q0-.1.1 0h-.1l-.3.2-.3.2-.3.2-.1.1-.3.2-.3.3-.2.2-.7.6-.2.1-.2.1h-.1l-.1.1c0 .2-.5.4-.6.4s-.8.3-.6.4l.8-.4.9-.4q.4-.2.6-.5l.6-.4.2-.2q0-.2 0 0h.2l.1-.2.2-.2.2-.1.3-.2q0 .2.2.1.2 0 0 0 0-.3.2-.3h.1l.2-.2v.2h-.2l-.1.1q-.1.1 0 .2l-.1.3H54h.1q.2 0 0-.2l-.2.1-.1.1v.2l-.2.1-.1.1h-.2q-.1.1 0 .1l-.2.3q-.1.1-.2 0l.2-.2v-.2l-.1.2-.2.1v.1h-.2l-.1.1h-.1v.1h-.1l.1.1v.2l-.1.1h-.1l-.3.2-.3.2-.2.1-.2.2q-.3.1-.4.4 0 .2.3-.1h.1q.8-.3 1.4-1h.2q.3-.1.4-.4l.4-.2.5-.4q.3-.4.5-.3.2 0-.1.1l-.3.2-.4.2q-.3.1-.3.4l-.1.1h-.2v.4l-.1-.2H53l-.2.2h-.1l-.1.1-.3.2-.3.2-.1.1h-.2v.2h-.2l-.5.3q-.2 0 0 .1l.3-.2h.2l-.2.1-.2.2h.1l.4-.2.5-.2q.2-.4.6-.3h.1v-.1l.2-.2h.5l.1-.1.1-.2.2-.1.2-.2H54v-.1l.1-.1v.1q0 .2 0 0h.3l.2-.2h-.2v-.1q.2-.2.3 0v-.1l.2-.1v-.1h.1v.2l.1-.2.2-.1V99v.1h.1l.2-.2h.2l.3-.2.6-.3.2-.1h-.2l.1-.1q.2-.2.5-.2h-.1l-.1.2.3-.2h.3l.3-.2.3-.2v-.1h-.1l-.2.1.3-.2.4-.1-.2.1v.1h.3v-.1l.1-.1.1-.2.1-.1h.1v.1h.1V97h.2l.2-.2.2-.2h.4q.1-.3.3-.3h.2q.1-.3.4-.3.2-.3.5-.3l.5-.3.3-.2 2-1.3.2-.1.3-.1.2-.2v-.1H65l-.2.1.2-.1.3-.2v.1h.3l.2-.2.2-.1.2-.2.6-.3h.2q.3-.1.4-.4.3-.4.2-.1l-.5.2H67v.1q-.4.4-.7.4c-.3 0 0 0 0 0l.2-.2.8-.5h.2l.8-.5.5-.2.5-.3.5-.3 1-.4h-.3l-.2.1.3-.2.3-.1.7-.3.7-.4q.2 0 0 0l-.5.4.4-.2.4-.2.4-.2.3-.3q0-.1-.2 0l-.2.2q-.2 0 0-.1t0-.1l.2-.2h.2q0-.1.1 0l.2-.1h.1c.2 0 .6-.5.6-.6l.1-.3v.1q.2 0 .2-.2.2-.1 0 .2l-.2.4q-.1.2 0 .2h.1v-.2l.2-.4q.4-.4 0-.5l.1-.3q0-.3.3-.5c.2 0 .2-.6.2-.8s0-1-.2-.7v.2-.3l-.1-.3v-.2q0-.1 0 0s0 .3.1 0q.1-.3-.2-.9c0-.2-.3-.8-.6-1l-.4-.5-.3-.2-.8-.8-.2-.1q-.2-.3-.5-.3l-1-.6-.7-.6-.1-.2-.3-.1h-.2v-.2q-.2-.3-.6-.4l-.1-.1H69l-.2-.2.6.3h.1v.2q.1.3.4.2h.2l.1.2q0-.1 0 0l.2.1.5.3v-.2h.2l-.3-.1-.6-.5H70q-.2 0 0 .2l-.1-.1-.8-.5-.3-.3-.6-.5q-.4-.1-.7-.5l-.5-.4-.8-.7-.2-.1-.2-.2-2.2-2-.5-.4q0-.2 0 0h.2l.2.2.2.2.6.6h.1l.1.1.2.2.3.3.4.3c.1 0 .4.3 0-.1L64 73.7l-.6-.5-.3-.3-.4-.4-4-4.3q-.2 0-.3-.2l-.2-.1-.2-.2-.2-.1v-.1h-.2v-.2l-.3-.1-.2-.2q-.2 0 0 .1v.2l.2.2v.5l.4.3.1.2.2.2.5.5.6.6q0 .2.2 0v-.1h-.2q-.2 0 0-.3l.2.2.2.2v.1q-.2 0-.1.1.1.4.4.6l.2.2.3.4.4.4q0 .2.3.3.4.1.4.5l.1.1.1.2.2.1.1.1.2.2.1.2.2.2.3.2.2.3.2.1.2.2.2.1v.1h.1l.1.1.2.2.1.1h.2q0 .3.2.4l.2.1.6.5.1.2q.2.2 0 0l-.9-.7-.6-.5a26 26 0 0 1-4.4-4.6l-1-1.2-.6-.5-.4-.5q-.3 0-.3-.3v-.1h.1q0-.1-.2 0l.3.5q-.1.1-.2-.2t-.4-.2h-.2v.2l.1.1h-.1V68h-.1v-.1l-.4-.4-.1.2-.1.1h-.1v-.2h.1v-.4h-.1v.3l-.1.1q-.2 0-.3-.3t-.2-.2v.1H55v.1h.1q0 .2.2.3v.1H55l-.2-.1s-.1-.3-.2-.1l.1.1.1.1.2.2v.2q-.3.1-.4 0v-.2l-.1-.1-.2-.2h.1v-.1h-.3v.1h.1l.1.2-.2-.1q-.2 0-.2-.2t.1 0l-.2-.1v-.2q0-.2-.3 0l.3.3.3.5v.1q-.2 0-.2.3l.1.3-.1-.1h-.1v-.2l-.2-.1h-.1.1v-.2l-.3-.2v.2h-.1l-.2-.2v.2l.1.1.2.1v.2l.1.1q.2.2 0 .3v-.2l-.3-.3v-.1q-.2 0 0 0l-.1.2v-.2q0-.2-.1 0 0-.2-.2 0l.1.3q.2.1 0 .3v.3l.2.1.2.3.3.6V70l-.2-.2q-.2-.4-.5-.5v-.2l-.2-.1-.1-.2h-.7q0-.2-.1 0l.2.4h-.1l-.1-.2v.3h-.3v-.2h-.2v.3l-.1-.2-.1-.2h-.2v-.5l.1.1v-.1q0-.1.2 0h.2v.2l.2.1v-.2l-.1-.2h-.2l-.2-.2q0-.1 0 0h.1v-.4q-.2-.3 0-.1t.3 0v.1l.1.2.3.2v-.4l-.1-.1-.2-.1v-.2h-.1q0-.2-.1-.1v.1h-.1v-.1l-.1-.3H51l-.1.1.1.1v.2q-.1.1-.4 0v.6l.1.4v.1q-.2 0-.1-.2v-.1h-.1v.3h-.1q0-.2-.2-.2v.3h.1v.2l.1.2v-.2l.1.4.1.5.3.6.2.4-.1-.2-.1-.1.1.4 1 1.5.7.9 1.4 1.6a60 60 0 0 0 11.3 10v.1h.1v.1h.1q.2.1 0 0h.2v.1h.2-.1q-.2 0 0 0h-.2l.1.1h-.1l-.1-.1h-.1l-1.3.8-1.3.7-2.6 1.7-5.2 3.3-1.9 1.3-2.3 1.7-.3.2-.3.2v.1q-.2.5-.5.6l-.2.3-.2.1-.3.3q0 .2-.2.3l-.2.2-.2.3h.2l-.2.1q-.2 0-.1.4l.2-.2h.4v.1l-.2.2h-.1l-.2.2-.2.2v.1zm1.1-1.1.2-.2.2-.1v.1l.1-.2.2-.2.3-.3.4-.3-.3.3-.3.4q-.1.3-.4.4h-.1zm1.6-29.7v.2zm.6 1.9h.1M51 95.8h.1m-.9 2.8.2-.1v.1h-.1M52 69h.2zm-.6 26.5.3-.3-.1.2zm-1 3q0-.1.2 0zm.3-.4q-.1 0 0 0m0 .1h.2zq-.2 0 0 0m.4-.8.2-.3zH51Zm.3-.5q-.1 0 0 0m-.1.5h.2l.1-.2q.1.2-.2.3l-.2.2v.1zm.4-.7.3-.2h.1l-.2.1zq0 .1 0 0m3.3-4.5h.2l.4-.3s.4-.3.3-.1-.6.4-.8.5-.2 0 0-.1M51.4 99h.1zm2-30.1q0-.1.1 0h.1zM52 97l-.1.2zm1.3-28.5.1.3q-.2 0-.1-.3m-1.9 30.3.3-.2-.2.1h-.1m-.1.7s.2-.2.3 0zm1.4-3.3-.2.1h.1m.7-28V68M53 95.8v.2h-.1zm-.6 1.4h.3zl-.3.3zm-.8 2h.1m4.9-7.6h.1zM55 93.5l.2-.2h.1l-.2.1m2-2.2h.2v-.1.1zm-1.5 1.9.2-.1v.1zm2.4-2.8h.1Zm-.5.6h.1v.1m-3.4 4.3h.2l-.1.1m0-26.5.2.1v.2-.1zm2 24.1h.1q-.2 0 0 0Zm-1.5 2v.2zm-.3-26.7q.3 0 .2.3-.1.1-.2-.2-.1-.1 0-.1m2.5 24 .7-.5 1.1-.7.5-.3.7-.3h.2q.1-.1 0-.2-.2.1 0 0l.8-.5.3-.2h.2q0 .3-.5.4l-.5.3-.4.3-.3.2-.2.1h-.1q-.2.3-.5.3l.2-.1q.2 0 .2-.2c0-.2-.4.2-.5.2v.2l-.2.1h-.1q-.4 0-.6.4-.1.2-.5.3l-.2.1c-.2.1-.6.6-.7.5q-.1-.3.4-.4m2.7-1.6h.1Zm.8-.5h.2l.1-.2-.2.1zm.4-.2.3-.2H61zm-6.4-21.2v-.1zm5.2 20.5q-.1 0 0 0m-3.9-16.9q-.1-.1 0-.1M55 94.9l.4-.2-.2.2zm1-22 .2.2H56q-.2-.2 0-.2m-.5 21.8.1-.1zm-.6.8h-.1zm5.6-6.4 1-.7c.6-.2-.3.3-.4.3l-.4.3h-.2m-6.8 8.2.1-.1h.2-.2m-.9 2.6.1-.1v.2zm4-25.7.1.2zm8.9 11h.4q.1 0 0 .1H66zM54.2 96.8h-.1m7.5-8.5h-.2zm-9 12.2h.1zM62 88h.2l-.3.2q-.1-.1.1-.2m1.7-5.1h.1zm-8.1 12 .3-.1h.1zm2-20v.2zm7 8.8.6.3.5.3.2.1h.3v.1q0 .1 0 0H66q-.1 0 0 0l-.7-.5q-.4 0-.5-.3Zm-4.1 5.8.4-.2-.2.1zm2.3-7.6v-.2zl.2.1zm.5 5.3.4-.2-.2.2q-.2 0-.2.2l-.4.2s-.4.4-.4.2.6-.5.8-.6m2.7-2.4q.2 0 0 0m-9 8.7-.1.2zm-.8 1q0-.3.3-.3h.1l.2-.1-.2.1v.1zM55.1 96h.2zm-1 1.6h.1q-.2 0 0 0m10.3-14.5-.2-.2.5.3q-.2.2-.3-.1m-9.1-15.2v-.1h.2v.2zm0 .3.2.1v-.1l.1.2q0 .2-.2 0h-.1zM65 83.5l.2.1zM61.5 89l-.2.1zm-4 4.2h.2l-.3.2zm8-9.3h.2v.2zM57.8 93h.3v-.1l.2-.1.2-.2h.1l.3-.2.9-.6 1-.6.3-.2h.1l.2-.2h.2-.2.3l.2.2-.2.2-.2.1-.1.1h.1l.3-.1-.3.2s-.6.3-.5.1l.2-.2h-.4l-.2.1h-.1q-.3.4-.7.5c-.4 0 0 0 0 0l-.6.4h-.1v.1h-.2l-.2.2-.2.1q-.2.3-.6.4-.2 0 0 0 .1 0 0 0-.2 0 0-.2Zm1.6-.8h.1Zm1.8-1h.2q0-.2-.2-.2t-.1.2m3.3-8.2 1.2.8.5.4q.2 0 0 0H66q-.1-.3-.4-.3l-.7-.6c-.1 0-.6-.4-.3-.3m-10 14.4.1.1q-.2 0 0 0M65 86.7l-.5.3q.1-.2.5-.3m-2.4 1.8.7-.4.8-.4.4-.2.6-.3.6-.3s.5-.3.3-.1l-.9.5-.8.4-1.8 1c-.6.1-.1-.1 0-.2M55 96.7h.1m-.5.8h.2l.1-.1q0 .2-.4.2zm11.2-11.4q.1-.1.1 0zm0 .1.3-.1zl-.4.2zM57.2 94h.1m-2 2.9.2-.1-.3.2zm.5-.9h.2zm-.5.7h.1m6.3-7.2.8-.5.3-.1.2-.2v.1h.2v-.1l.2-.2.4-.2.4-.2-.5.3v.1l-.1.2h-.2l-1.2.7-.2.2v-.2q.2 0 0 0zm.6-.3q.1 0 0 0m.2-.1h.2q.1-.2 0 0zm-6.5 7 .6-.3.4-.2.1-.1v-.1l.2-.2h.2l.2-.2h.2l.2-.2q.2-.3.6-.3l.2-.1q.2-.2.1 0 0 .1.1 0h.1v-.2l.6-.3.2-.2h.1l.1-.1.2-.1.4-.3h.2l.3-.2.2-.2.3-.1.3-.2.1-.1.3-.2.1-.1.2-.1q0-.1 0 0h.1l.3-.3.4-.2.4-.3.5-.3h.3l.5-.3.4-.3.2-.1.7-.4h.1q0-.2.3-.2l1.9-1q.8-.2 1.2-.5c0-.3-.6.2-.7.2l-.2.1H69l-.2.1-.2.1-.8.5h-.4l-.2.2-.2.1-.1.1h-.2v-.2l.2-.1.2-.1q.1 0 0-.1l-.4.2-.4.2q-.2 0 .1-.2l.2-.1h-.2l-.3.3q-.2 0-.2.2l-.2.1-.4.3.4-.1q.2-.3.5-.4h.2q.1-.1.2 0-.2 0-.1.1l-.1.2-.3.1-.2.1-.3.1h-.1v.1l-.5.3-.5.3-.4.2-.3.2q-.2 0-.5.3l-.4.2-.2.2h-.2v.1h-.1l-.3.2H62l-.1.2-.2-.2h.2v-.1l.2-.2v.2l.1-.2h.2l.1-.1v-.1h.2l.4-.2q.2-.2 0-.1-.1 0 0-.2l.1-.1-.4.2.2-.1.3-.2q.5-.1.6-.4c.1-.3-.2 0-.3.1l-.5.3-.4.1-.3.2H62v.1l-.2.1q-.2 0 0 .3l-.3.3v-.2h-.2q-.2.2 0 0 0-.2.3-.4l1.4-.8.7-.5.7-.3c.3-.1 0-.1 0 0h-.2l.2-.2h.1l.7-.4.3-.3v-.4h.2q-.2-.1-.4.2l-.4.2-.1.1h-.1l-.2.1-.3.2H64q-.2 0-.3.2l-1 .6.1-.2-.2.1h-.1l.1-.1.3-.1.4-.2.1-.1.2-.1.5-.3 1.4-.7.5-.3.5-.2.4-.2q.2 0 0 0t0 .1h.1l.2-.2h.1l-.2.2-.2.2-.3.3q-.3.1-.5.4-.3 0-.4.3v.1l-.3.1h.1v.2l-.3.1H65v.1h.4q0-.3.3-.3l.2-.2v-.1q0-.2.3-.2l.3-.3.2-.1.3-.2.1-.1V88h.1l.1.1.2-.1.2-.1h.1q-.1.1 0 .1l.1-.1.2-.2h.2l.4-.3.6-.2.4-.4h.1l.3-.1q-.1 0 0-.1h.1v-.2l.1-.2h.3v-1.4h.1v-.1h-.2v-.2l-.6-.5.3-.1-.4-.2-.4-.1-.2-.1H69v-.2l-.2-.1h-.1l-.2-.2-.4-.1H68v-.1h.2q0 .2.1.1h.2l-.5-.5h.1l.3.3.4.2h.1q-.2.1 0 .2.4 0 .4.3v.1h.3l-.2-.2q-.2 0-.2-.2h.2l.2.1h.2l.2.1h.2-.2V83l-.2-.2h-.3l.1.1q.2 0 .2.2l-.3-.2h-.1l-.4-.2-.3-.2-.4-.2q0-.2.2 0l.2.1.2.1q.1.2.6.1l.2.1-.2-.3-.5-.3-1-.6-.7-.5-.6-.5.3.1.4.3q.2 0 .3.2t.3.1q.1 0 0 .1l.2.1q0 .1.1 0l.2.1q.2 0 0-.1l-.3-.3-.3-.1-.7-.5-.1-.2.2.1.2.1v-.1h-.1L67 80v-.2l-.2-.1v-.1l-.3-.2H66v-.1h.2l-.2-.1-.6-.5h-.1l-.1-.2h-.1l-.2-.2-.4-.3-.3-.3q-.2-.2 0-.1h.2q.2 0 0 .1l.3.3.3.2.1.1.5.3h.2l.1.2.2.1.2.2h.2V79l-.1-.1h.3l.2.1.4.2.2.1q.3 0 .3.4v.1l-.1-.1-.2-.2v.2l.5.3q.3.1.2.4v.1h.1l.2.2.2.1v.1l.3.1.3.2.4.1h.1l.1.3h.1v-.2l-.3-.2h-.4L69 81v-.2l-.4-.2-.1-.2.4.2.5.2s-.5-.3-.5-.5q.2.1.2 0l-.2-.1q-.1-.2.2 0l.4.3.3.1.2.1.4.3.5.3.5.2.3.2h-.2v.1l.3.3.4.2.3.1v.1q0 .3.2.3.1 0 0 0v-.1l.4.3.3.4h-.1v.3q.3 0 .1.1t0 .2l.2.3.2.4v-.2l-.2-.4v-.2q.2.2.2 0v-.1h-.2v-.2q.1 0 0-.2-.1-.1 0-.1l-.4-.3-.3-.3-.3-.2v-.1l-.2-.1-.4-.4-.3-.3-.4-.2H71V81q-.5-.2-.9-.6l-.4-.2-.6-.4-.7-.6-.2-.1V79H68l-.1-.3h-.2.1q0 .2-.2 0l-.3-.3v-.1H67v-.1l-.2-.3-.3-.2q0-.1 0 0l-.2-.1-.3-.2v-.2h-.2V77v.2h-.1l-.2-.2-.1-.1-.1-.2h.1c0-.1-.3-.3 0-.1l.8.7v.2h.2q.3 0 .4.3l.5.4q.3 0 .3.2l.1.2h.3l.1.2.2.1 1 .7 1.8 1.2.9.6.5.5 1.2 1.2q.5.7.6 1.3.3 1.8-.5 3.2l-1.1 1q-.2.4-.4.3h-.1v.1H72l-.5.4-.1.2h-.2l-.3.1q-.2.2-.5.2l-.4.2-.4.3.2-.1q.2-.1 0 0l-.2.2-.4.2h-.1l-.3.1-.2.1-.1.1h-.4v.1h.1-.2l-.2.2-.3.2q-.2.2-.3 0t-.2 0h-.4v.1h.1q.1.2 0 .2l-.2.2v-.1l-.2.2h-.7l-.2.2-.4.3v.1l.4-.2h.1q.2-.2.3-.1h-.1l-.2.2-.2.2h-.2l-.3.2-.2.1-.2.1h-.2l-.1.2q0 .1-.1 0l-.3.2h-.2v.2l-.2.2-.2.1h-.2l-.2.2-.1.1h-.1l-.6.3-.3.1-.2.1-.2.2V95q0-.2-.2 0-.2 0 0 0-.3.4-.8.6l-.3.2h.1l-.2.1-.2.2h-.2l-.2.1H59v.2h-.2l-.2.2-.3.1h-.1l-.2.2-.3.2h-.3v.2H57l-.5.4q-.2 0-.1-.1h-.1v.1l-.1.2H56l-.1.1.1-.1.2-.2h-.5v.1l-.2.2-.2-.1h.1l.1-.2.6-.3.4-.2.4-.2.2-.1q0-.2.2-.2t0-.1l.3-.1.1-.1.3-.2.4-.2.2-.1.2-.1.3-.2.4-.2.3-.1.3-.2V95l.2-.1h.2l.2-.2h.2l.2-.2h.1v.2l.2-.1.2-.2h.2-.2s-.4.2-.2 0l1.1-.7 1.7-1.1.2-.1.1-.1.3-.2 1.2-.7q.3-.3.5-.3c.2 0-.1.1 0 .1h.1l.5-.5.2-.1h.2l.3-.2.3-.1.2-.1 1.1-.6c.5-.2 1.5-.6 1.5-.8s-.8.2-.9.3l-.2.1h-.1l-.8.5-.2.1h-.2q-.2 0 0 0-.3.4-.6.4h-.2q-.1.3-.3.2l-.6.3-.4.2c-.3.1-1 .5-1.2.8l-.4.2-.3.1h-.2v.2h-.2q0 .2 0 0l.3-.3.3-.1q0-.2.3-.3c.3 0 0 0 0 0l-.1.2.2-.3h-.3l-.3.2h-.2l-.2.3H64l-1.3 1-.4.1-.3.3q-.3 0-.5.3l-.1.1h-.1v.2l.3-.1.3-.3h.1l.3-.2.2-.2h.2l.2-.2.2-.1.2-.1.4-.4q.1-.2.3 0h-.1q-.2 0 0 .1l-.2.2-.3.2-.2.1-.1.1-.2.1-.1.1-.4.3-.4.2-.2.2-.5.2-.4.2-.2.1-.3.2-.3.2-.2.1-.4.2-1.3.6v-.1H58l-.1-.1-.2.2q-.1 0 0-.1l.1-.1.3-.3q.3-.2 0-.2H58q0 .2-.2.1h-.2l-.1.3v.3l-.2.2-.3.1-.1.2h-.5v.3H56v.1l-.3.1-.2.1h-.1v.2q-.1-.2 0-.2l.6-.3.2-.1v-.2q.2-.1.2-.4-.4.2-.4.5c0 .3 0 0 0 0h-.4zm.7-.2q0 .3.1.2.2-.2.3-.1h.2l.1-.2H57l.2-.2h-.3zm.2.2q.2 0 0 0m1.6-1.3v.1h.2q.1 0 0 0l.1-.2h.1-.2zm-.1.6.1.1h.2l.1-.2.2-.1q.3 0 .5-.3c.2-.3.1 0 .2-.1l.4-.1.3-.2h.2l.2-.2.2-.1.2-.1V94q0-.2 0 0h-.3l-.1.1-.2.1-.2.2H60l-.1.2-.3.1-.3.2v.1h-.2l-.1.1h-.3q-.2 0 0 0t.1.1l-.3.1zm.5-.7h.3q0-.1 0 0zm.5-.3h.1l.1-.2.2-.1h-.2l-.1.1zm5-5.3.2-.1zm-4.6 5.1h.2q.3-.1.1-.2h-.2zm-.1.3h.1zm-1.7 2h.2v-.1zm8.6-8.4-.3.1v.1h.3l.2-.2.1-.1zm-.4.3q0-.1 0 0m-5.4 5.2v.2h.1l.2-.3v-.1zm3.4-3.3h.2q0-.1 0 0zm-.8.9.3-.2h-.1q-.2 0-.2.2m1.2-1.1h.2l.3-.1H65l-.3.3h-.2l-.3.4.1-.1.2-.1.2-.1h.3l.2-.1-.1-.1V90l.2-.1v-.2l.1-.1H65l-.2.1h-.1zm-2.9 3-.1.3.4-.2q.2 0 .4-.4H62zl-.1.1zm4.8-4.3q0 .1 0 0h.3l.3-.1.2-.1.1-.2q.2 0 0 0l-.4.2v-.1q0-.2-.2 0zm-4.2 3.8h.4l.1-.1q0-.1 0 0h-1Zm8.3-6.3-.1.1zh.2V86l.6-.3.1-.1h-.3V85l-.1.2q0 .5-.4.8-.4 0-.2.2Zm-.3-2.1h.3l-.1-.1zM67.8 88h.3l.1-.1h.1q0-.2-.2 0zm-5 4.2.1.1h.2L63 92zm7.6-5.6q.1 0 0-.1m-.7.4-.2.1q.4 0 .4-.2zm-1.1.7v.1q-.1 0 0 0h.2q.3 0 .4-.3H69l-.1.1-.1.1zm-1.4 1q0 .3.3.1l.3-.2h.1l-.1-.1-.1-.2v.1h-.3q-.2 0-.2.3m.1 0h.3zm3.7-4.2q.2 0 0-.2zm.1.7.2-.1zm.2.8v.2l.1.1h.2V86q0-.1-.1 0zm-8.2 6.5v.2zm8-5.7q-.4 0 0 .1m-2.6 1.3-.1.2v.2h.2l.2-.1.1-.1h-.3zm-4.2 3.4q.2 0 .2-.2zm4.6-3.5h.2v-.2zM65 91l.2-.1v-.1zm7-6.4v.2h.2zm0 1 .2-.1q.2 0 .1.2h.2l.1-.3V85q0-.2-.1 0l-.1.4h-.2v-.1zM65.1 91q-.2 0-.1.1m-3 3.2h.1zm8.5-11.1-.2-.1zm0 4.1h.3zm-1 .6h.2l.3-.2q-.3 0-.4.2m2.3-1.3q-.1.2 0 .2l.2-.4H72zM62.7 94l.1-.1zm9-10.2v-.2h-.2zM71 87h.3zm-8.8 7.1q.1.1.1 0m9.7-9.9.1.3v-.1zq0-.2-.2-.3zm-4.4 5h.2zm-1 .9.2-.1zm3.9-7.3h.2zm-1.6-1.3q0-.2-.2-.1zm-3 9.2.2-.1zm3.5-8.9.4.2-.3-.2-.3-.2zm2.9 2.8v.2-.4zm-1.1 2.5h.1zm-.7.6.7-.3c.3-.2.9-.5.9-.7s-.2.2-.3.2l-.3.2h-.1l-.2.2H71l-.2.1c-.1 0-.5.2-.3.3m-5 3.6q0 .2 0 0l.2-.2h.2l.2-.1h-.3zm-2 2 .2-.1.2-.1q.2 0 .2-.2l-.3.1-.2.2zm6.4-11.2h.2zm-3.8 8.7.2.1q.2 0 .2-.3l-.1.1-.2.1Zm-2.9 2.9h.1m3.6-14.2h.2v.2l.2.1h.1l.1.1.2.1h.2q.1.2.2 0l-.4-.2-.4-.3-.3-.1-.2-.1h-.1zm1.6 9.7-.2.2h.2c.1-.1.5-.4.2-.3zm3-6 .4.3h.1l.1.2q.1.2.2 0-.2-.3-.6-.4zm1.2 2.1v.2l-.1.5c.1 0 .2-.5.1-.6l.1-.3V85q0-.5-.4-1-.1.2.2.5zm-8.8 8h.3zm5.6-4.7v.2l.3-.3zm-2.2 1.7.4-.1q0-.1 0 0h-.2zm-2.5 2.1v.2l-.1.1zm6.7-9.3h.2zM65 92.3h.2zm2.3-12.9q.2 0 .1-.1zq-.1 0 0 0m.9 1v-.1m.7 8.9.3-.2.2-.1zM65.5 92q.2-.1 0-.2m7.4-5.8.2-.3H73q-.2.2-.1.3m-1.5-3.7h.5l.1.1-.3-.3h-.2q0-.2-.2-.1h.1zm-5 8.9q.1 0 0-.1m3-2.2c-.1 0-.5.2-.3.2.1 0 .6-.2.5-.3zm2.8-6.2v.3zm.5 4v-.2.1m-1 .9-.2.1.4-.2h-.3Zm1.6-2.5v-.2zM72 87.7l.2-.1.3-.2.2-.2.2-.2.2-.2.2-.5q-.2 0-.2.3l-.2.3-.3.2-.3.3zm-2.6-7.1q0 .2.1.1m.8.7s.4.2.3 0-.7-.5-1-.5l.2.1.2.1v.2zM65.5 77q-.1 0 0 0m5 4.6q.1.2.4.2l-.3-.2zm.6.4.3.1-.2-.3zm2.1 4.2V86q.1 0 0 0zM67.6 91s-.1.2 0 .1zm4.1-2.4.5-.4 1-.8q.2-.2 0 0 0 .1 0 0h.2v-.2l.1-.3.1-.1v-.2q.3-.4.2-.8v.1l-.2.3v-.6.6l-.2.4-.1.2-.1.3-.4.4-.2.2-.4.3-.3.2c-.3.2-.7.4-.2.4m1.7-2v.2zm-.9-3.6h.2zm-4.3 7.7h.2v-.1zm5.1-6.7.1.2zq-.2 0 0 .1m-1.5-1.9h-.1m-2.1 7.7.2-.1zM67.2 78q0-.1 0 0m6.5 7 .2-.1v-.1h-.2zm-6.1-6.8h-.2zm6.2 7.2q0 .1 0 0m-5.1-6.2-.2-.1zm-.4-.2.2.1q-.2-.1-.2 0m5 4.2q0 .2 0 0-.1-.2-.2-.1zm.6 1.3.2.5v.4q.2-.2 0-.5t0-.3v-.4l-.2-.1zm0 2.3v.2l-.2.2-.4.7-.5.5c-.4.4.1 0 .3-.2l.5-.4.2-.3v-.3q.4-.4.3-.7 0-.1-.1 0zm.2-2.7L74 84zm-.2 3.2h.2c0-.2.4-1 .3-1.1 0-.3 0 0 0 0l-.1.3zm.5-1.7v-.2zM55.8 68.8h.2zm5 21.5h.2v-.1h.3l-.2.1zq-.2 0 0 0m-2.5 3 .5-.2-.2.2zl-.3.3-.3.1zm8.2-7.4q.2 0 0 .1h-.2q0-.3.2-.1m.4-.2h.2q.2 0 0 .1-.2 0 0 0zm-.3.2h.3zq0 .1-.1 0m-8 7 .2-.1zm-1.4 1.6h.1l.2-.1h-.1zm-.2.3h.2l-.2.2zm-.3.4h.1zm-2 3h.4v.3-.2l-.2.1v.1h-.2q0-.2.3-.3m1.2-30V68Zm11.5 17.2v-.1M55.9 67.7h.1v.1Zm.1.9h.1m1.4 3.9v.1Zm10 12.6h.2zm-6 5 .1-.1h.1zm6-5.3q.5-.1.4.1l.1.2q.1 0 0 .1l-.2.5h-.2q0 .2-.3.2H67l.2-.1v-.1l.2-.1h.3q.1-.1 0-.2V85h-.1m.1.6q-.2 0 0 0m-8.3 7.1h.1zM56 68v-.2l.1.2zm10.6 15.9h.2l.1.1.1.1h.1v.1l-.3-.1zm-4 5.3.2-.2h.2q.2-.1.2 0l-.6.4-.2.1-.2.2-.1-.1.2-.2zM59 93l.1-.1.2-.1-.2.2zm-.9 1h.1zq-.2 0 0 0m.1-20.5h.1m5.5 7.6q.2 0 0 .1M55.3 98h.1m12.3-13.5.2.1zM64.3 88l.3-.2v.1zm-5.9-14.3h.1m1.2 18.7h.2zm-1.2 1.5.3-.1zm8.6-10v-.2l.2.2zm-3.4 4.9h.6v-.4h.3-.1v.1h.2l.2-.1.2-.1.2-.2V88h.2v-.2l.2-.1c.2-.1-.1 0 0 0q.5-.1.8-.4l.2-.2h.1v.2l-.3.1s-.7.3-.5.3l.8-.4.5-.3q.3 0 .5-.3h-.2.3v-.2h.2l.3-.1.4-.2.2-.2v-.1l.2-.2v-.1l.1-.4-.2-.5-.3-.3V84h-.1l-.1-.1v-.1h-.2l-.2-.2-.2-.1-.3-.2q-.2-.1 0-.2l.2.1.4.2h.1l-.1-.2v-.1l.2.1v.1l.2.1q.3 0 .3.2h-.5l.4.3.3.1.2.1h.2-.2l.3.2v-.2l-.3-.1-.3-.2q-.2 0 0-.1h.2l.2.1.2.2.5.4v.6l.1.2v.5h-.6v.4l-.1.1h-.2v.1H69h.2v.1h-.3l-.1.1h-.1q-.1.1 0 .2h-.2l-.3.2h-.4l.3-.1q.2 0 0 0h-.6q-.1 0 0 .1l.2.1H67l-.3.3-1 .5-.4.2-.1.1q-.2 0-.3.2l-.3.1-.3.1-.1.1-.3.2-.1.1-.1.1.1-.2.1-.1h-.2l-.2.2.2-.2v-.1h-.1l-.2.1zm4.8-2.2v.2q-.2 0 0 0t.2 0l.3-.2-.1-.1h-.2zm-.6.3h.2zm1.5-.9s-.1 0 0 0q.1 0 0-.1m.2-1.3v-.2zm.4.6q.2 0 0 0M56.3 68.3h.1ZM65 82h.2zm-4.8 10.1q.1 0 0 0v.3H60q0-.3.2-.3m-.3.4-.2.2zm5.1-4.7h.2zm-4 3.5h.1v.1zM59.4 93h.1m-.5.7.3-.2.3-.1zm8.7-7.8h.2l-.1.2h-.4zm-2.6 1.7h.1ZM59.6 93h.1zh.1m-2 2.3h.2zm.6-22.7h.1m7.7 10h.1zm2.5 2.4h.1zM66 87.2l.2-.2.4-.2h.1l-.5.2zm-4.9-9.9V77zq0 .1 0 0m7.2 8.4q0-.2.1 0zm-7.6 6.1-.1.2h-.2zm-.3.6-.2.1zq0 .2-.3.3l-.1.1zl-.2.1H60zM59 93.7h.1m-1.5-23h.2v.2zm1.2 2.6h.1m8.5 10.2.2.1.1.1h.2v.2q.2 0 0 .2h-.1v-.2h-.2q0-.2-.2-.2zm1.3 1.8h.2zM55.7 98h.1zm5.6-20.6h.1v.1m4 4.5.2.1q.1 0 0 0zm2.7 2.3-.1-.2h.3l.1.1.1.1h.1v.1h.2-.5zM62 90.7h.1m-2 2.7.3-.2.3-.2v.1l-.1.2zq0 .2-.2.1l-.3.1h-.1zM56.9 68q.2 0 .2.2zm.1.5h.1M59.7 94h-.1m2.3-16.2q.1 0 0 0m5.5 9.1h.2zM56.6 97h.2zm9.6-14.5q-.2-.1 0-.2zh.2v.1zm.5.4q-.1-.1.1-.1l.2.1zM57 68.6h.1m1 2.4.2.3zq0-.2 0 0M61 92q0 .3-.2.4v-.1l.2-.2zm-.3.3h.1zm-2.5-20.7q0-.3.2-.1l.2.2q.2.3.1.4l-.2-.2-.1-.2zm4.6 18.5h.1m-.7.7.3-.1q.2-.3.3-.1l-.1.1-.3.1zm-3.4-18.2h.1m5 7.2q-.1 0 0 0l.1.1zM63 89.9h.1m-.1-11h.2v.1zm2.3 9.3.2-.1.2-.1h-.1zq-.1 0 0 0m-2-9h.4q0 .3-.2.2zm3.2 3.1q.2 0 .1.1zm-.3 5.4-.3.1h-.1zM63 90.3l.3-.2h.2l-.1.2h-.5m-2.3 2.4h.1l.2-.1h.1l.1-.1.2-.1v.1l-.2.2h-.3q-.1.1-.2 0m4.1-12 .2.2zm1.4 1.3q.1 0 0 .1M59 72.2l.3.3.2.2v.2l-.2-.2-.1-.2zm1.3 2.4.2.2.1.2-.1-.1zm-2.8-6.3.3.2.2.3.6.6 2.7 3q.5.4.5.7l-.6-.6-.3-.4-.7-.8H60l-.1-.1V71l-.3-.3-.3-.5q-.1-.3-.4-.4l-.3-.2-.6-.7-.1-.2-.2-.1zm.2 1h.1m4.2 7.8h.1m2.8 12.1.2-.1.2-.1-.2.2q0 .3-.3.3h-.2v-.1h.2zm-7-20.2q.2 0 0 .1m3.3 6.6h.1zm3.8 4.7h.3l.2.3H65l-.1-.1zm-8.2 18.1h-.1ZM60.6 75l.1.1v.1q-.2 0 0-.2m6.6 12.4.4-.2q.2 0 0 0-.4 0-.3.2zM59 72.1h.1m3.3 5.3h.1m.3.4h.1m4.2 4.3-.3-.2zs.4.1.3.2zm-9.8-14.3.4.3h-.1l-.1-.2zm4 8.5h.1m1.6 1.9h.3v.2l-.1-.2zm2.4 2.6q0-.2 0 0h.2v.2h.2l.5.4q.3 0 .2.2c0 .2-.3-.2-.4-.2l-.3-.2q-.3-.1-.4-.4m1.9 6.7.3-.1.2-.1.4-.2.8-.4h.4q.2 0 0 0-.2.2-.7.3c-.5.1-.3.2-.4.3l-.5.2-.3.1-.2.1.2-.2zM58 69.3h.4v.1zm2.1 4.3q.3 0 .4.3l-.3-.1q-.1-.2 0-.2M64 79l.2.1zm4 3.8q-.3 0-.3-.3c0-.3.4.2.4.2h.1l.3.2v.1H68zm-8.2-10h.2zM68.5 83l.2.1zm.4.3h.2l.1.1v.1H69zm1 .7-.5-.4q-.2 0 0 0 .5 0 .6.4zq-.4 0-.3-.2m.4.9q.1-.1.1 0v.3q-.3-.1 0-.4zM58 69.5l.1.1.3.3h-.1l-.2-.2zm2.4 4.9v-.2h.1zm2.7 3.6q.1 0 0 0m2.1 2.2q0-.1 0 0l.2.1q.3.1 0 .1t-.2-.2m-4.4-5.4s-.2-.2 0-.2zm.5.7v-.1h.2zm1.3 1.8.2.2zm.4.4q-.2 0 0-.1l.4.3.2.3-.2-.2zm3.3 3.6v-.1m.8.6h.2v.2zM61.8 76l.3.2h.1q-.2 0-.2-.2m4.1 4.7h.2v-.1l-.1-.1H66q-.3-.2-.4-.5h.2l.1.1.2.1.2.2.2.2-.1.2zm1.5 1.3h.2q.1 0 0 .1zm-10 16h.2v-.1h.1l-.2.2zm2.5-25.1v.2zm5.1 7 .3.2zm2.1 2 .2.2zM59 70.5v-.2h.2v.3h.1v.2-.1zm.6 1.4q.3 0 .3.2V72zm2.4 4h.2v-.1l.2.1v.1zl-.1-.1m4.7 5.4V81h.2l.2.2.4.2h.2v.1l.2.2h.2v.1h.2-.2l-.2-.2h.2l.3.3h.2l.2.3h.1l.2.1h.1v.1H69l-.2-.1-.3-.1q-.2-.3-.6-.3h-.2v-.2h-.1l-.3-.2-.3-.2h-.1q0 .2-.1 0Zm-8.4-12.7v.1Zm5 8.9q.2 0 0 0m-.6-.7.1.1Zm1.8 2 .2.2c.1 0 .5.2.4.3s-.1 0-.2-.1zm-1.9-2.5.5.1v.3l-.2-.1v-.1h-.1q-.2 0-.2-.2m1.3 1.7.2.1.3.3-.2-.1zm-.8-1.1.2.1zm.3.3v.2zm-2-2.9h.2v.2zm4 5.2h.2v.1zm.8.8h.2v.1zm-4.4-5.5q.1 0 0 0m1 1.3.2.1.2.2.1.1H63l-.3-.2q-.2 0-.1-.2m.6.8q-.3-.2-.1-.2h.1l.1.1v.1l.2.2.2.1h-.4q-.2 0 0-.1m.7 1h.2zm.7.8h.2v.2zm-6.2-10.6h.1m1.5 3.3.2.2.2.2v.1l.2.1v.2h-.2V72h-.1q0-.2-.2-.2zm3.5 5.8h.2zm.8 1V78zm1.4 1.5q.1 0 0 0M61.3 74h.1M59 69.3h.1m3.5 6.4-.1-.2.1-.1zl.1.1zm3.8 4.5s-.3-.3 0-.2h.3v.3zm1 1q.1-.2.2 0 0 .1 0 0zm-8.5-12.9.4.4h-.2zm2 4.8h.2zM60 96.3l.2-.2h.2q.1 0 0 0c-.1 0-.5.4-.7.3zM63 76l-.1-.1h.2l-.3-.3q-.1 0 0-.1v.1l.3.1.3.3q0 .1 0 0h-.1v.1l-.1.1H63zm-.8-1.1h.1m.3.3V75v.1m3.6 4.4h.2zm-6.4 17.1-.2.1zm-.2-27.4.3.2.4.5.5.6c.2.2.7.8.2.3l-.6-.7-.5-.5zs-.3-.1-.1-.1m.5 1s.6.4.6.6l-.2-.2-.2-.2zm1.2 2.7.2.2h-.2m.9 1.7h.1m1.3 1.7h.1v.1zm.2.3v-.2q.2 0 .1.2 0 .1-.1 0m.6.5-.1-.2q-.1 0 0 0zm-1.6-2h.2zM61 71.5q-.1-.1.2 0l.3.3v.1H61v-.2l-.3-.2m.3 24.4h.2q.1-.2.1 0zm3-19.3.2.1v.1zm1.6 1.9-.2-.2v-.1zM60 69.6l.3.3q.2 0 .2.2c0 .2-.3-.2-.3-.3H60zm3.2 6h.1m.6.4.2.2q.1 0 0 .1H64zm-1.5 19.3c0-.1.7-.6.8-.5.1.2-.4.4-.6.4l-.3.2-.5.2c-.3 0 .4-.2.5-.3m0-21.3h.1v.1m.2.2V74l-.3-.5.3.3c.2 0 .6.5.7.7q0 .2 0 0-.1-.2-.2 0H63v-.3zM61.3 72v-.2.1Zm4 5.9-.2-.2zl.2.2.2.1.3.2v-.1h.1l.3.1v.1q-.2 0-.1.2l-.6-.4zm-3.9-5.8.2.2h-.1zm2.5 4h.2q0 .1 0 0zm-2.6-4.6.2.2.2.2zm3 4.8.2.2zm-.5 17.4h.2v.1zM61 70.8v-.2zl.2.3zm1.1 2 .1.1m1.4 2.3V75h.1m1.9 2.3.2.2zm-3-4.3.3.3q-.2 0-.3-.3m1.5 2.2q-.2 0 0 0v.2m2.7 3.4v-.2h.1zm-2.3-3 .6.4q.3 0 .3.4h-.1.1l.1.2-.2-.1v-.2l-.4-.4v.2h.1l-.1-.2V76zM64 94.3l.3-.1q.2-.4.6-.4l-.2.2zq-.2 0 0 0m-2-22.5q.2.1.1.2zm.4.8.1.1m3.3 4.7v-.1zm.9 1v-.1zm.2.2q0-.1.2 0l.3.3q.1 0 0 0zm1.4 1.4h.2v.2zM63 73.6h.1m.3.1.2.2.1.3q.3 0 0 0l-.2-.1q0-.2-.2-.2zm5.3 6.5.1-.1zl.4.2v.1l-.2-.1zm-6.5-8V72zm6.5 8V80m-4.9-5.7h.2v.1zm3.7 4.4q0-.1 0 0m.5.4.1.2q.2 0 .1.1zM66.7 78l.2.2zm3.5 11.2h.2zM63 72.8q.2.1 0 .1ZM70.7 89h.2zM64 74.4v-.2l.1.1.3.3.4.3.1.1h.1l-.2-.1-.2-.2-.2-.2zM65.7 93l.2-.1zq0 .1 0 0m.2-16.3-.1-.2.2.2.7.5.2.1.5.4q.2 0 0-.1-.2 0 0 0h.1v.2l.2-.1h.2q.2 0 0 .1 0 .2.4.3v.2h.3v.1h-.3L68 78v.2l.2.2.2.1.2.1h.2l.3.3h.2v.2h.3l.1.2h.4l.1.1.1.1-.5-.1h.2q.2 0 .2.2l.4.2h.2v.2h.2l.2.1q-.2.1 0 .2h.2l.9.7q0 .2.2.3l.2.2-.1-.2.3.3.3.3v.2l.3.2c.3 0 .1.1.2.2q.6.5.5 1c0 .3 0 0 0 0v-.2l-.2-.1V83l-1-1-.7-.7-1.1-.8-1.4-.9-1-.8-2.1-1.5zm5.9 4.2h.2l-.2-.2zm-5.5-4.2q0-.1 0 0 .1 0 0 0m-1-1.5.2.2h-.1zM72.1 89q.1 0 0 0m-4.5-11.7h.2zm.4.2-.2-.1q0-.2.1 0l.3.1.3.3h-.3zm6.3 6.2h.2v.2zm-.8 4.5h.2l.2-.2h.1q.1 0 0 0v.2h-.2zm1.4-2.5v-.4l.2-.1q0-.2 0 0v.3l-.2.5-.1.9q-.2.5-.5.5l.2-.8zm-2-4.4q.7.3 1.3 1.1T75 84c0 .8-.1 0-.2-.2v-.2h-.1l-.1-.3-.1-.3-.3-.3-.6-.6q-.7-.7-.5-.7m2.2 4.5v-.2zM48.5 99.2l.5-.3h.2v-.1q.2-.1 0-.2l-.2.2-.3.2zm.1.4h.3zm.3.2.2-.1h.1v-.1H49q-.2.2 0 .2m.3-.6V99zm2-30.5.1.1v-.1M49 100h.1q.3 0 .2-.1zq-.1 0 0 .1m.1-.5h.1m-.2 1h.2q0-.3-.1-.2zM51.2 67h.1v.1l.3.2v-.2q0-.2-.3-.2Zm0-.5h.1m-2 33.9h.1m0 .3h.1q0-.1 0 0ZM51.7 67l.2.2.2.1.2.2-.1-.2v-.2l-.1-.1v-.2H52v.2-.1zm.5 1.6v-.2zm-2.1 31.5.1-.1zm2.2-33.9.1.1v.1h.1l.1.2v.1h.2v-.4.1l-.2-.1h-.1zM49.9 101h.2zm2.4-34.2h.1m.2 1.8h.2zm0-1.5h.2l-.1-.1m0-1 .1.1m.3.9.2-.1zm-.2-1h.1m.2.1.1.2h.1v.1l.2.2.2.3h.2q.1-.1-.2-.2l-.2-.3v-.2q0 .2.1 0l-.1-.2H53v.1h-.2V66zm.1 1.5h.1m-2.5 33.7h.1m2-34.5v-.2zm.1.2h.3zm0 .5h.1m-2.5 33.8h.2l-.1-.2v.2m2.8-34h.1m.3.4.1.2v.1h.2zv-.2h-.2v.2zm-.2-1.1h.3-.1zm.4-.5h.1zm-2 34h.1m2.2-34.5.2.1v.1q0 .1 0 0h.1zm.2.9h.1m.2-.4h.1Zm-1.8 33.3h.2l.3-.3.3-.3q.2 0 .1-.1H54l-.2.2-.2.1-.1.2zm2-32.5v.2h.1zm0 1h.1v-.1zm.1-1.2.1.2zm0 1.4h.1M53 101.4l.4-.1v-.1l.3-.1.4-.2c0 .2-.5.3-.6.4l-.3.2h.4q0-.1 0 0h.2l.2-.1h.2l.2-.1h.2l.2-.2h.1l.1-.2h.2l.2-.1v-.1h.1l.6-.3.5-.3h.2v-.1l.1-.1.2-.2.2-.1h.1v.1l.1-.2h.4l.3-.2.4-.2h-.5l.2-.1.2-.1h.2l.3-.3.4-.3.2-.2v.2l.2-.2.3-.3.7-.5h.2l.3-.2.5-.4 1.6-1 .1-.2h-.1q-.1.1-.2 0h-.1v.1q0 .3-.4.4c-.4.2 0 0 0-.2q.2 0 0 0h-.1l-.4.1-.3.3-.3.2q-.4 0-.4.3v.2h-.1q0-.2-.2-.1l-.6.4h-.1s-.3.4-.5.4H59l-1.4.9h-.2v.1l-.2.1-.1.1q0 .1-.1 0h-.2v.2h-.3v.1l.2-.1q.2 0 0-.2l-.3.2h-.2v.1l-.2.1h-.3l-.2.2-1 .6-.4.3v.1l-.1.1h-.1q-.3 0-.5.4h-.1l-.2.2-.2.1h-.1v.1l-.2.2v-.2l-.1.1zm.8 0 .2-.1v.1zm2.9-2.2h.2zm3-1.4h.2q.1 0 0 0zm.6-.5h.2l.2-.1.1-.1-.2.3-.4.1q-.2 0 .1-.1m1.2-.6v.1zm.4-.3v.1m-8.2 4.2h.1v-.1m3.2-33h.3-.1q-.1-.3-.2-.1zm.5-.3.1.1q0 .2.3.2c.2 0-.2-.2-.2-.3zl-.2-.1h-.1zm-1 33.2h.2v-.2h-.1v.1zm1.3-1.9v.2l.1-.2.3-.2.2-.1v-.1l-.2.1-.3.1q-.2 0-.1.3m-.6 1.6h.1m1.8-2.3h.1zm.3.9.4-.2h-.2zm.7-.3.5-.4c0-.2-.2.1-.3.1s-.5.3-.2.3m2.4-2.7h.1zm1.2-.6h.2V95zm-.3.3h.1m-1.4 1.7h.1Zm.7-.4q.3 0 .4-.2-.1-.2-.2 0zm2.2-2.3.2-.2zm.5-.4h.2l.2-.2-.3.1zm-2.1 2.4.3-.2h-.1zm3-2.8-.2.2q0 .1.1 0 .2 0 .2-.3-.1-.2-.2.1m-.8.6.3-.2.2-.1h-1zm1.5-1.2-.2.2zl.3-.1.4-.2c.1-.1.8-.4.7-.6s-.5.3-.6.4h-.1l-.2.1v.1h-.3zm0 .3q.2-.1 0 0-.1 0 0 0m0 .1h-1Zm2.4-2-.2.3s-.5.2-.1.1q.3 0 .5-.3l.8-.5 1-.6.2-.1h-.2l-1 .5h-.1l-.2.1-.1.2q-.2.2-.3.1h-.1q-.2 0-.2.2m-2.7-16.2-.2-.2zm-.6 19.2-.1.2zq.3 0 .4-.3h-.2zm1-18.7q.1 0 0 0m.2.2.2.1h.1c.1 0 .2.4.4.4l.1.2.3.1.2.2.3.2-.2-.3zc-.4-.2 0 0-.1 0m.1 16.9-.1.2-.1.2h.2l.2-.2q.2 0 0-.3h-.1zm-.4.3-.2.1.4-.2h-.2m-.6.5.2-.1.1-.2zm5.4-13.5.8.4q.1 0 0 0h.1l-.6-.4q-.3 0-.5-.3-.4-.5-.5-.3.2.3.7.5m-.2 9.9h.1l.1-.2zM69 77.9h.2q0 .3.2.2l-.5-.5-.2-.1zm-.5 14.5q0 .2.2 0l.5-.3.2-.1.4-.3 2.7-1.6c.5-.4-.4.2-.6.3l-1.5.8-.8.6-.3.1-.2.1zm-1.1 1.1v.2zl.2-.2zm-.4.5.3-.1.2-.2v-.1h-.1l-.2.2zm7.4-11.3q.1 0 0 0m-.5 6v.2l.2-.1v-.1zm1-5.2h.2zm-6 9q0-.1 0 0m6.5-6.4.1-.3v-.4zm-.2.8v.4zv-.3zm.2-2.2.1.3v-.5q0-.1 0 0-.1 0 0 .2M74 89.1v-.2zm-.9.8-.1.2h.1l.2-.2zm-1 .7h.2q.2-.1 0-.2zm3.6-4.8V85zM74 89.2q.1 0 0-.1Z"/></svg>